<?xml version="1.0" encoding="UTF-8"?>
<svg xmlns="http://www.w3.org/2000/svg" version="1.1" width="100" height="100" viewBox="0 0 100 100"><rect x="0" y="0" width="100" height="100" fill="#ffffff"/><g transform="scale(3.448)"><g transform="translate(0,0)"><path fill-rule="evenodd" d="M8 0.25L8 2.75A0.25 0.25 0 0 0 8.25 3L9.75 3A0.25 0.25 0 0 1 10 3.25L10 4.75A0.25 0.25 0 0 1 9.75 5L8.25 5A0.25 0.25 0 0 0 8 5.25L8 8.75A0.25 0.25 0 0 0 8.25 9L10.75 9A0.25 0.25 0 0 1 11 9.25L11 9.75A0.25 0.25 0 0 1 10.75 10L9.25 10A0.25 0.25 0 0 0 9 10.25L9 10.75A0.25 0.25 0 0 1 8.75 11L8.25 11A0.25 0.25 0 0 1 8 10.75L8 10.25A0.25 0.25 0 0 0 7.75 10L5.25 10A0.25 0.25 0 0 1 5 9.75L5 8.25A0.25 0.25 0 0 0 4.75 8L2.25 8A0.25 0.25 0 0 0 2 8.25L2 8.75A0.25 0.25 0 0 1 1.75 9L1.25 9A0.25 0.25 0 0 0 1 9.25L1 10.75A0.25 0.25 0 0 1 0.75 11L0.25 11A0.25 0.25 0 0 0 0 11.25L0 11.75A0.25 0.25 0 0 0 0.25 12L0.75 12A0.25 0.25 0 0 0 1 11.75L1 11.25A0.25 0.25 0 0 1 1.25 11L2.75 11A0.25 0.25 0 0 1 3 11.25L3 13.75A0.25 0.25 0 0 1 2.75 14L2.25 14A0.25 0.25 0 0 0 2 14.25L2 14.75A0.25 0.25 0 0 1 1.75 15L1.25 15A0.25 0.25 0 0 1 1 14.75L1 14.25A0.25 0.25 0 0 0 0.75 14L0.25 14A0.25 0.25 0 0 0 0 14.25L0 15.75A0.25 0.25 0 0 0 0.25 16L1.75 16A0.25 0.25 0 0 0 2 15.75L2 15.25A0.25 0.25 0 0 1 2.25 15L3.75 15A0.25 0.25 0 0 1 4 15.25L4 15.75A0.25 0.25 0 0 1 3.75 16L3.25 16A0.25 0.25 0 0 0 3 16.25L3 16.75A0.25 0.25 0 0 1 2.75 17L0.25 17A0.25 0.25 0 0 0 0 17.25L0 20.75A0.25 0.25 0 0 0 0.25 21L0.75 21A0.25 0.25 0 0 0 1 20.75L1 18.25A0.25 0.25 0 0 1 1.25 18L1.75 18A0.25 0.25 0 0 1 2 18.25L2 19.75A0.25 0.25 0 0 0 2.25 20L2.75 20A0.25 0.25 0 0 0 3 19.75L3 18.25A0.25 0.25 0 0 1 3.25 18L3.75 18A0.25 0.25 0 0 1 4 18.25L4 18.75A0.25 0.25 0 0 0 4.25 19L4.75 19A0.25 0.25 0 0 1 5 19.25L5 19.75A0.25 0.25 0 0 1 4.75 20L4.25 20A0.25 0.25 0 0 0 4 20.25L4 20.75A0.25 0.25 0 0 0 4.25 21L7.75 21A0.25 0.25 0 0 1 8 21.25L8 21.75A0.25 0.25 0 0 0 8.25 22L8.75 22A0.25 0.25 0 0 1 9 22.25L9 23.75A0.25 0.25 0 0 1 8.75 24L8.25 24A0.25 0.25 0 0 0 8 24.25L8 26.75A0.25 0.25 0 0 0 8.25 27L8.75 27A0.25 0.25 0 0 0 9 26.75L9 26.25A0.25 0.25 0 0 1 9.25 26L9.75 26A0.25 0.25 0 0 1 10 26.25L10 26.75A0.25 0.25 0 0 0 10.25 27L10.75 27A0.25 0.25 0 0 0 11 26.75L11 25.25A0.25 0.25 0 0 0 10.75 25L9.25 25A0.25 0.25 0 0 1 9 24.75L9 24.25A0.25 0.25 0 0 1 9.25 24L9.75 24A0.25 0.25 0 0 0 10 23.75L10 21.25A0.25 0.25 0 0 1 10.25 21L11.75 21A0.25 0.25 0 0 0 12 20.75L12 17.25A0.25 0.25 0 0 0 11.75 17L11.25 17A0.25 0.25 0 0 0 11 17.25L11 17.75A0.25 0.25 0 0 1 10.75 18L10.25 18A0.25 0.25 0 0 1 10 17.75L10 17.25A0.25 0.25 0 0 0 9.75 17L9.25 17A0.25 0.25 0 0 0 9 17.25L9 17.75A0.25 0.25 0 0 0 9.25 18L9.75 18A0.25 0.25 0 0 1 10 18.25L10 18.75A0.25 0.25 0 0 0 10.25 19L10.75 19A0.25 0.25 0 0 1 11 19.25L11 19.75A0.25 0.25 0 0 1 10.75 20L10.25 20A0.25 0.25 0 0 0 10 20.25L10 20.75A0.25 0.25 0 0 1 9.75 21L9.25 21A0.25 0.25 0 0 1 9 20.75L9 19.25A0.25 0.25 0 0 0 8.75 19L8.25 19A0.25 0.25 0 0 1 8 18.75L8 18.25A0.25 0.25 0 0 0 7.75 18L4.25 18A0.25 0.25 0 0 1 4 17.75L4 17.25A0.25 0.25 0 0 1 4.25 17L7.75 17A0.25 0.25 0 0 0 8 16.75L8 16.25A0.25 0.25 0 0 1 8.25 16L8.75 16A0.25 0.25 0 0 0 9 15.75L9 15.25A0.25 0.25 0 0 1 9.25 15L10.75 15A0.25 0.25 0 0 1 11 15.25L11 15.75A0.25 0.25 0 0 0 11.25 16L11.75 16A0.25 0.25 0 0 0 12 15.75L12 15.25A0.25 0.25 0 0 0 11.75 15L11.25 15A0.25 0.25 0 0 1 11 14.75L11 13.25A0.25 0.25 0 0 0 10.75 13L10.25 13A0.25 0.25 0 0 1 10 12.75L10 12.25A0.25 0.25 0 0 1 10.25 12L10.75 12A0.25 0.25 0 0 0 11 11.75L11 10.25A0.25 0.25 0 0 1 11.25 10L11.75 10A0.25 0.25 0 0 1 12 10.25L12 10.75A0.25 0.25 0 0 0 12.25 11L12.75 11A0.25 0.25 0 0 0 13 10.75L13 10.25A0.25 0.25 0 0 1 13.25 10L15.75 10A0.25 0.25 0 0 1 16 10.25L16 11.75A0.25 0.25 0 0 0 16.25 12L17.75 12A0.25 0.25 0 0 1 18 12.25L18 12.75A0.25 0.25 0 0 0 18.25 13L18.75 13A0.25 0.25 0 0 1 19 13.25L19 13.75A0.25 0.25 0 0 0 19.25 14L19.75 14A0.25 0.25 0 0 0 20 13.75L20 13.25A0.25 0.25 0 0 1 20.25 13L21.75 13A0.25 0.25 0 0 1 22 13.25L22 13.75A0.25 0.25 0 0 0 22.25 14L22.75 14A0.25 0.25 0 0 1 23 14.25L23 14.75A0.25 0.25 0 0 0 23.25 15L23.75 15A0.25 0.25 0 0 1 24 15.25L24 15.75A0.25 0.25 0 0 0 24.25 16L24.75 16A0.25 0.25 0 0 1 25 16.25L25 16.75A0.25 0.25 0 0 1 24.75 17L22.25 17A0.25 0.25 0 0 1 22 16.75L22 16.25A0.25 0.25 0 0 0 21.75 16L21.25 16A0.25 0.25 0 0 1 21 15.75L21 15.25A0.25 0.25 0 0 0 20.75 15L20.25 15A0.25 0.25 0 0 0 20 15.25L20 15.75A0.25 0.25 0 0 0 20.25 16L20.75 16A0.25 0.25 0 0 1 21 16.25L21 16.75A0.25 0.25 0 0 1 20.75 17L20.25 17A0.25 0.25 0 0 0 20 17.25L20 17.75A0.25 0.25 0 0 1 19.75 18L19.25 18A0.25 0.25 0 0 1 19 17.75L19 17.25A0.25 0.25 0 0 0 18.75 17L18.25 17A0.25 0.25 0 0 1 18 16.75L18 14.25A0.25 0.25 0 0 0 17.75 14L16.25 14A0.25 0.25 0 0 1 16 13.75L16 13.25A0.25 0.25 0 0 0 15.75 13L15.25 13A0.25 0.25 0 0 1 15 12.75L15 11.25A0.25 0.25 0 0 0 14.75 11L14.25 11A0.25 0.25 0 0 0 14 11.25L14 12.75A0.25 0.25 0 0 1 13.75 13L13.25 13A0.25 0.25 0 0 1 13 12.75L13 12.25A0.25 0.25 0 0 0 12.75 12L12.25 12A0.25 0.25 0 0 0 12 12.25L12 12.75A0.25 0.25 0 0 0 12.25 13L12.75 13A0.25 0.25 0 0 1 13 13.25L13 13.75A0.25 0.25 0 0 0 13.25 14L13.75 14A0.25 0.25 0 0 0 14 13.75L14 13.25A0.25 0.25 0 0 1 14.25 13L14.75 13A0.25 0.25 0 0 1 15 13.25L15 13.75A0.25 0.25 0 0 0 15.25 14L15.75 14A0.25 0.25 0 0 1 16 14.25L16 15.75A0.25 0.25 0 0 1 15.75 16L13.25 16A0.25 0.25 0 0 0 13 16.25L13 16.75A0.25 0.25 0 0 0 13.25 17L16.75 17A0.25 0.25 0 0 1 17 17.25L17 17.75A0.25 0.25 0 0 1 16.75 18L16.25 18A0.25 0.25 0 0 0 16 18.25L16 18.75A0.25 0.25 0 0 1 15.75 19L15.25 19A0.25 0.25 0 0 0 15 19.25L15 19.75A0.25 0.25 0 0 1 14.75 20L13.25 20A0.25 0.25 0 0 0 13 20.25L13 21.75A0.25 0.25 0 0 1 12.75 22L12.25 22A0.25 0.25 0 0 0 12 22.25L12 25.75A0.25 0.25 0 0 0 12.25 26L12.75 26A0.25 0.25 0 0 1 13 26.25L13 26.75A0.25 0.25 0 0 1 12.75 27L12.25 27A0.25 0.25 0 0 0 12 27.25L12 27.75A0.25 0.25 0 0 1 11.75 28L11.25 28A0.25 0.25 0 0 0 11 28.25L11 28.75A0.25 0.25 0 0 0 11.25 29L13.75 29A0.25 0.25 0 0 0 14 28.75L14 28.25A0.25 0.25 0 0 0 13.75 28L13.25 28A0.25 0.25 0 0 1 13 27.75L13 27.25A0.25 0.25 0 0 1 13.25 27L13.75 27A0.25 0.25 0 0 0 14 26.75L14 26.25A0.25 0.25 0 0 1 14.25 26L14.75 26A0.25 0.25 0 0 0 15 25.75L15 25.25A0.25 0.25 0 0 0 14.75 25L14.25 25A0.25 0.25 0 0 1 14 24.75L14 24.25A0.25 0.25 0 0 0 13.75 24L13.25 24A0.25 0.25 0 0 1 13 23.75L13 23.25A0.25 0.25 0 0 1 13.25 23L13.75 23A0.25 0.25 0 0 0 14 22.75L14 21.25A0.25 0.25 0 0 1 14.25 21L14.75 21A0.25 0.25 0 0 1 15 21.25L15 21.75A0.25 0.25 0 0 0 15.25 22L15.75 22A0.25 0.25 0 0 0 16 21.75L16 21.25A0.25 0.25 0 0 1 16.25 21L17.75 21A0.25 0.25 0 0 1 18 21.25L18 21.75A0.25 0.25 0 0 1 17.75 22L17.25 22A0.25 0.25 0 0 0 17 22.25L17 23.75A0.25 0.25 0 0 1 16.75 24L16.25 24A0.25 0.25 0 0 0 16 24.25L16 27.75A0.25 0.25 0 0 1 15.75 28L15.25 28A0.25 0.25 0 0 0 15 28.25L15 28.75A0.25 0.25 0 0 0 15.25 29L15.75 29A0.25 0.25 0 0 0 16 28.75L16 28.25A0.25 0.25 0 0 1 16.25 28L16.75 28A0.25 0.25 0 0 1 17 28.25L17 28.75A0.25 0.25 0 0 0 17.25 29L18.75 29A0.25 0.25 0 0 0 19 28.75L19 27.25A0.25 0.25 0 0 1 19.25 27L19.75 27A0.25 0.25 0 0 0 20 26.75L20 26.25A0.25 0.25 0 0 0 19.75 26L19.25 26A0.25 0.25 0 0 0 19 26.25L19 26.75A0.25 0.25 0 0 1 18.75 27L18.25 27A0.25 0.25 0 0 1 18 26.75L18 26.25A0.25 0.25 0 0 0 17.75 26L17.25 26A0.25 0.25 0 0 1 17 25.75L17 24.25A0.25 0.25 0 0 1 17.25 24L17.75 24A0.25 0.25 0 0 1 18 24.25L18 24.75A0.25 0.25 0 0 0 18.25 25L18.75 25A0.25 0.25 0 0 0 19 24.75L19 24.25A0.25 0.25 0 0 0 18.75 24L18.25 24A0.25 0.25 0 0 1 18 23.75L18 23.25A0.25 0.25 0 0 1 18.25 23L19.75 23A0.25 0.25 0 0 1 20 23.25L20 24.75A0.25 0.25 0 0 0 20.25 25L26.75 25A0.25 0.25 0 0 0 27 24.75L27 24.25A0.25 0.25 0 0 0 26.75 24L25.25 24A0.25 0.25 0 0 1 25 23.75L25 23.25A0.25 0.25 0 0 1 25.25 23L25.75 23A0.25 0.25 0 0 0 26 22.75L26 21.25A0.25 0.25 0 0 1 26.25 21L26.75 21A0.25 0.25 0 0 1 27 21.25L27 21.75A0.25 0.25 0 0 0 27.25 22L28.75 22A0.25 0.25 0 0 0 29 21.75L29 21.25A0.25 0.25 0 0 0 28.75 21L27.25 21A0.25 0.25 0 0 1 27 20.75L27 20.25A0.25 0.25 0 0 1 27.25 20L27.75 20A0.25 0.25 0 0 0 28 19.75L28 18.25A0.25 0.25 0 0 1 28.25 18L28.75 18A0.25 0.25 0 0 0 29 17.75L29 17.25A0.25 0.25 0 0 0 28.75 17L28.25 17A0.25 0.25 0 0 1 28 16.75L28 16.25A0.25 0.25 0 0 0 27.75 16L25.25 16A0.25 0.25 0 0 1 25 15.75L25 15.25A0.25 0.25 0 0 1 25.25 15L25.75 15A0.25 0.25 0 0 0 26 14.75L26 13.25A0.25 0.25 0 0 1 26.25 13L26.75 13A0.25 0.25 0 0 1 27 13.25L27 13.75A0.25 0.25 0 0 0 27.25 14L28.75 14A0.25 0.25 0 0 0 29 13.75L29 13.25A0.25 0.25 0 0 0 28.75 13L27.25 13A0.25 0.25 0 0 1 27 12.75L27 12.25A0.25 0.25 0 0 0 26.75 12L26.25 12A0.25 0.25 0 0 1 26 11.75L26 11.25A0.25 0.25 0 0 1 26.25 11L27.75 11A0.25 0.25 0 0 0 28 10.75L28 10.25A0.25 0.25 0 0 1 28.25 10L28.75 10A0.25 0.25 0 0 0 29 9.75L29 8.25A0.25 0.25 0 0 0 28.75 8L26.25 8A0.25 0.25 0 0 0 26 8.25L26 8.75A0.25 0.25 0 0 0 26.25 9L27.75 9A0.25 0.25 0 0 1 28 9.25L28 9.75A0.25 0.25 0 0 1 27.75 10L26.25 10A0.25 0.25 0 0 0 26 10.25L26 10.75A0.25 0.25 0 0 1 25.75 11L25.25 11A0.25 0.25 0 0 1 25 10.75L25 9.25A0.25 0.25 0 0 0 24.75 9L24.25 9A0.25 0.25 0 0 1 24 8.75L24 8.25A0.25 0.25 0 0 0 23.75 8L20.25 8A0.25 0.25 0 0 1 20 7.75L20 7.25A0.25 0.25 0 0 1 20.25 7L20.75 7A0.25 0.25 0 0 0 21 6.75L21 4.25A0.25 0.25 0 0 0 20.75 4L20.25 4A0.25 0.25 0 0 1 20 3.75L20 3.25A0.25 0.25 0 0 1 20.25 3L20.75 3A0.25 0.25 0 0 0 21 2.75L21 2.25A0.25 0.25 0 0 0 20.75 2L20.25 2A0.25 0.25 0 0 1 20 1.75L20 1.25A0.25 0.25 0 0 1 20.25 1L20.75 1A0.25 0.25 0 0 0 21 0.75L21 0.25A0.25 0.25 0 0 0 20.75 0L20.25 0A0.25 0.25 0 0 0 20 0.25L20 0.75A0.25 0.25 0 0 1 19.75 1L19.25 1A0.25 0.25 0 0 1 19 0.75L19 0.25A0.25 0.25 0 0 0 18.75 0L18.25 0A0.25 0.25 0 0 0 18 0.25L18 0.75A0.25 0.25 0 0 1 17.75 1L17.25 1A0.25 0.25 0 0 1 17 0.75L17 0.25A0.25 0.25 0 0 0 16.75 0L16.25 0A0.25 0.25 0 0 0 16 0.25L16 0.75A0.25 0.25 0 0 0 16.25 1L16.75 1A0.25 0.25 0 0 1 17 1.25L17 1.75A0.25 0.25 0 0 1 16.75 2L16.25 2A0.25 0.25 0 0 0 16 2.25L16 2.75A0.25 0.25 0 0 1 15.75 3L14.25 3A0.25 0.25 0 0 1 14 2.75L14 2.25A0.25 0.25 0 0 0 13.75 2L13.25 2A0.25 0.25 0 0 1 13 1.75L13 1.25A0.25 0.25 0 0 1 13.25 1L14.75 1A0.25 0.25 0 0 0 15 0.75L15 0.25A0.25 0.25 0 0 0 14.75 0L13.25 0A0.25 0.25 0 0 0 13 0.25L13 0.75A0.25 0.25 0 0 1 12.75 1L12.25 1A0.25 0.25 0 0 1 12 0.75L12 0.25A0.25 0.25 0 0 0 11.75 0L11.25 0A0.25 0.25 0 0 0 11 0.25L11 0.75A0.25 0.25 0 0 0 11.25 1L11.75 1A0.25 0.25 0 0 1 12 1.25L12 1.75A0.25 0.25 0 0 0 12.25 2L12.75 2A0.25 0.25 0 0 1 13 2.25L13 2.75A0.25 0.25 0 0 1 12.75 3L12.25 3A0.25 0.25 0 0 0 12 3.25L12 3.75A0.25 0.25 0 0 1 11.75 4L11.25 4A0.25 0.25 0 0 1 11 3.75L11 2.25A0.25 0.25 0 0 0 10.75 2L10.25 2A0.25 0.25 0 0 1 10 1.75L10 0.25A0.25 0.25 0 0 0 9.75 0L8.25 0A0.25 0.25 0 0 0 8 0.25ZM17 2.25L17 2.75A0.25 0.25 0 0 0 17.25 3L18.75 3A0.25 0.25 0 0 0 19 2.75L19 2.25A0.25 0.25 0 0 0 18.75 2L17.25 2A0.25 0.25 0 0 0 17 2.25ZM12 4.25L12 4.75A0.25 0.25 0 0 1 11.75 5L10.25 5A0.25 0.25 0 0 0 10 5.25L10 5.75A0.25 0.25 0 0 1 9.75 6L9.25 6A0.25 0.25 0 0 0 9 6.25L9 6.75A0.25 0.25 0 0 0 9.25 7L9.75 7A0.25 0.25 0 0 0 10 6.75L10 6.25A0.25 0.25 0 0 1 10.25 6L10.75 6A0.25 0.25 0 0 1 11 6.25L11 7.75A0.25 0.25 0 0 0 11.25 8L12.75 8A0.25 0.25 0 0 1 13 8.25L13 8.75A0.25 0.25 0 0 1 12.75 9L12.25 9A0.25 0.25 0 0 0 12 9.25L12 9.75A0.25 0.25 0 0 0 12.25 10L12.75 10A0.25 0.25 0 0 0 13 9.75L13 9.25A0.25 0.25 0 0 1 13.25 9L14.75 9A0.25 0.25 0 0 0 15 8.75L15 7.25A0.25 0.25 0 0 1 15.25 7L15.75 7A0.25 0.25 0 0 1 16 7.25L16 7.75A0.25 0.25 0 0 0 16.25 8L16.75 8A0.25 0.25 0 0 1 17 8.25L17 8.75A0.25 0.25 0 0 1 16.75 9L16.25 9A0.25 0.25 0 0 0 16 9.25L16 9.75A0.25 0.25 0 0 0 16.25 10L16.75 10A0.25 0.25 0 0 1 17 10.25L17 10.75A0.25 0.25 0 0 0 17.25 11L18.75 11A0.25 0.25 0 0 1 19 11.25L19 12.75A0.25 0.25 0 0 0 19.25 13L19.75 13A0.25 0.25 0 0 0 20 12.75L20 12.25A0.25 0.25 0 0 1 20.25 12L20.75 12A0.25 0.25 0 0 0 21 11.75L21 11.25A0.25 0.25 0 0 0 20.75 11L20.25 11A0.25 0.25 0 0 1 20 10.75L20 10.25A0.25 0.25 0 0 1 20.25 10L21.75 10A0.25 0.25 0 0 1 22 10.25L22 10.75A0.25 0.25 0 0 0 22.25 11L23.75 11A0.25 0.25 0 0 0 24 10.75L24 9.25A0.25 0.25 0 0 0 23.75 9L23.25 9A0.25 0.25 0 0 0 23 9.25L23 9.75A0.25 0.25 0 0 1 22.75 10L22.25 10A0.25 0.25 0 0 1 22 9.75L22 9.25A0.25 0.25 0 0 0 21.75 9L20.25 9A0.25 0.25 0 0 1 20 8.75L20 8.25A0.25 0.25 0 0 0 19.75 8L19.25 8A0.25 0.25 0 0 1 19 7.75L19 7.25A0.25 0.25 0 0 1 19.25 7L19.75 7A0.25 0.25 0 0 0 20 6.75L20 5.25A0.25 0.25 0 0 0 19.75 5L19.25 5A0.25 0.25 0 0 1 19 4.75L19 4.25A0.25 0.25 0 0 0 18.75 4L16.25 4A0.25 0.25 0 0 0 16 4.25L16 4.75A0.25 0.25 0 0 0 16.25 5L16.75 5A0.25 0.25 0 0 1 17 5.25L17 6.75A0.25 0.25 0 0 1 16.75 7L16.25 7A0.25 0.25 0 0 1 16 6.75L16 6.25A0.25 0.25 0 0 0 15.75 6L15.25 6A0.25 0.25 0 0 0 15 6.25L15 6.75A0.25 0.25 0 0 1 14.75 7L14.25 7A0.25 0.25 0 0 1 14 6.75L14 6.25A0.25 0.25 0 0 0 13.75 6L13.25 6A0.25 0.25 0 0 1 13 5.75L13 4.25A0.25 0.25 0 0 0 12.75 4L12.25 4A0.25 0.25 0 0 0 12 4.25ZM14 4.25L14 4.75A0.25 0.25 0 0 0 14.25 5L14.75 5A0.25 0.25 0 0 0 15 4.75L15 4.25A0.25 0.25 0 0 0 14.75 4L14.25 4A0.25 0.25 0 0 0 14 4.25ZM18 5.25L18 6.75A0.25 0.25 0 0 0 18.25 7L18.75 7A0.25 0.25 0 0 0 19 6.75L19 5.25A0.25 0.25 0 0 0 18.75 5L18.25 5A0.25 0.25 0 0 0 18 5.25ZM12 6.25L12 6.75A0.25 0.25 0 0 0 12.25 7L12.75 7A0.25 0.25 0 0 1 13 7.25L13 7.75A0.25 0.25 0 0 0 13.25 8L13.75 8A0.25 0.25 0 0 0 14 7.75L14 7.25A0.25 0.25 0 0 0 13.75 7L13.25 7A0.25 0.25 0 0 1 13 6.75L13 6.25A0.25 0.25 0 0 0 12.75 6L12.25 6A0.25 0.25 0 0 0 12 6.25ZM6 8.25L6 8.75A0.25 0.25 0 0 0 6.25 9L6.75 9A0.25 0.25 0 0 0 7 8.75L7 8.25A0.25 0.25 0 0 0 6.75 8L6.25 8A0.25 0.25 0 0 0 6 8.25ZM18 8.25L18 8.75A0.25 0.25 0 0 1 17.75 9L17.25 9A0.25 0.25 0 0 0 17 9.25L17 9.75A0.25 0.25 0 0 0 17.25 10L17.75 10A0.25 0.25 0 0 0 18 9.75L18 9.25A0.25 0.25 0 0 1 18.25 9L18.75 9A0.25 0.25 0 0 0 19 8.75L19 8.25A0.25 0.25 0 0 0 18.75 8L18.25 8A0.25 0.25 0 0 0 18 8.25ZM2 9.25L2 9.75A0.25 0.25 0 0 0 2.25 10L2.75 10A0.25 0.25 0 0 1 3 10.25L3 10.75A0.25 0.25 0 0 0 3.25 11L4.75 11A0.25 0.25 0 0 1 5 11.25L5 12.75A0.25 0.25 0 0 1 4.75 13L4.25 13A0.25 0.25 0 0 0 4 13.25L4 13.75A0.25 0.25 0 0 0 4.25 14L4.75 14A0.25 0.25 0 0 0 5 13.75L5 13.25A0.25 0.25 0 0 1 5.25 13L5.75 13A0.25 0.25 0 0 1 6 13.25L6 13.75A0.25 0.25 0 0 0 6.25 14L6.75 14A0.25 0.25 0 0 1 7 14.25L7 14.75A0.25 0.25 0 0 1 6.75 15L6.25 15A0.25 0.25 0 0 0 6 15.25L6 15.75A0.25 0.25 0 0 0 6.25 16L7.75 16A0.25 0.25 0 0 0 8 15.75L8 15.25A0.25 0.25 0 0 1 8.25 15L8.75 15A0.25 0.25 0 0 0 9 14.75L9 14.25A0.25 0.25 0 0 1 9.25 14L9.75 14A0.25 0.25 0 0 0 10 13.75L10 13.25A0.25 0.25 0 0 0 9.75 13L8.25 13A0.25 0.25 0 0 0 8 13.25L8 13.75A0.25 0.25 0 0 1 7.75 14L7.25 14A0.25 0.25 0 0 1 7 13.75L7 13.25A0.25 0.25 0 0 0 6.75 13L6.25 13A0.25 0.25 0 0 1 6 12.75L6 12.25A0.25 0.25 0 0 1 6.25 12L6.75 12A0.25 0.25 0 0 0 7 11.75L7 11.25A0.25 0.25 0 0 0 6.75 11L5.25 11A0.25 0.25 0 0 1 5 10.75L5 10.25A0.25 0.25 0 0 0 4.75 10L3.25 10A0.25 0.25 0 0 1 3 9.75L3 9.25A0.25 0.25 0 0 0 2.75 9L2.25 9A0.25 0.25 0 0 0 2 9.25ZM22 12.25L22 12.75A0.25 0.25 0 0 0 22.25 13L22.75 13A0.25 0.25 0 0 1 23 13.25L23 13.75A0.25 0.25 0 0 0 23.25 14L23.75 14A0.25 0.25 0 0 0 24 13.75L24 13.25A0.25 0.25 0 0 1 24.25 13L25.75 13A0.25 0.25 0 0 0 26 12.75L26 12.25A0.25 0.25 0 0 0 25.75 12L24.25 12A0.25 0.25 0 0 0 24 12.25L24 12.75A0.25 0.25 0 0 1 23.75 13L23.25 13A0.25 0.25 0 0 1 23 12.75L23 12.25A0.25 0.25 0 0 0 22.75 12L22.25 12A0.25 0.25 0 0 0 22 12.25ZM21 17.25L21 17.75A0.25 0.25 0 0 1 20.75 18L20.25 18A0.25 0.25 0 0 0 20 18.25L20 18.75A0.25 0.25 0 0 0 20.25 19L20.75 19A0.25 0.25 0 0 0 21 18.75L21 18.25A0.25 0.25 0 0 1 21.25 18L21.75 18A0.25 0.25 0 0 1 22 18.25L22 19.75A0.25 0.25 0 0 0 22.25 20L23.75 20A0.25 0.25 0 0 0 24 19.75L24 18.25A0.25 0.25 0 0 0 23.75 18L22.25 18A0.25 0.25 0 0 1 22 17.75L22 17.25A0.25 0.25 0 0 0 21.75 17L21.25 17A0.25 0.25 0 0 0 21 17.25ZM26 17.25L26 17.75A0.25 0.25 0 0 1 25.75 18L25.25 18A0.25 0.25 0 0 0 25 18.25L25 18.75A0.25 0.25 0 0 0 25.25 19L25.75 19A0.25 0.25 0 0 1 26 19.25L26 19.75A0.25 0.25 0 0 1 25.75 20L25.25 20A0.25 0.25 0 0 0 25 20.25L25 20.75A0.25 0.25 0 0 0 25.25 21L25.75 21A0.25 0.25 0 0 0 26 20.75L26 20.25A0.25 0.25 0 0 1 26.25 20L26.75 20A0.25 0.25 0 0 0 27 19.75L27 18.25A0.25 0.25 0 0 1 27.25 18L27.75 18A0.25 0.25 0 0 0 28 17.75L28 17.25A0.25 0.25 0 0 0 27.75 17L26.25 17A0.25 0.25 0 0 0 26 17.25ZM13 18.25L13 18.75A0.25 0.25 0 0 0 13.25 19L13.75 19A0.25 0.25 0 0 0 14 18.75L14 18.25A0.25 0.25 0 0 0 13.75 18L13.25 18A0.25 0.25 0 0 0 13 18.25ZM17 18.25L17 19.75A0.25 0.25 0 0 0 17.25 20L18.75 20A0.25 0.25 0 0 0 19 19.75L19 19.25A0.25 0.25 0 0 0 18.75 19L18.25 19A0.25 0.25 0 0 1 18 18.75L18 18.25A0.25 0.25 0 0 0 17.75 18L17.25 18A0.25 0.25 0 0 0 17 18.25ZM6 19.25L6 19.75A0.25 0.25 0 0 0 6.25 20L7.75 20A0.25 0.25 0 0 0 8 19.75L8 19.25A0.25 0.25 0 0 0 7.75 19L6.25 19A0.25 0.25 0 0 0 6 19.25ZM21 21.25L21 23.75A0.25 0.25 0 0 0 21.25 24L23.75 24A0.25 0.25 0 0 0 24 23.75L24 21.25A0.25 0.25 0 0 0 23.75 21L21.25 21A0.25 0.25 0 0 0 21 21.25ZM22 22.25L22 22.75A0.25 0.25 0 0 0 22.25 23L22.75 23A0.25 0.25 0 0 0 23 22.75L23 22.25A0.25 0.25 0 0 0 22.75 22L22.25 22A0.25 0.25 0 0 0 22 22.25ZM28 23.25L28 23.75A0.25 0.25 0 0 0 28.25 24L28.75 24A0.25 0.25 0 0 0 29 23.75L29 23.25A0.25 0.25 0 0 0 28.75 23L28.25 23A0.25 0.25 0 0 0 28 23.25ZM13 25.25L13 25.75A0.25 0.25 0 0 0 13.25 26L13.75 26A0.25 0.25 0 0 0 14 25.75L14 25.25A0.25 0.25 0 0 0 13.75 25L13.25 25A0.25 0.25 0 0 0 13 25.25ZM21 26.25L21 27.75A0.25 0.25 0 0 0 21.25 28L23.75 28A0.25 0.25 0 0 1 24 28.25L24 28.75A0.25 0.25 0 0 0 24.25 29L26.75 29A0.25 0.25 0 0 0 27 28.75L27 28.25A0.25 0.25 0 0 1 27.25 28L27.75 28A0.25 0.25 0 0 0 28 27.75L28 26.25A0.25 0.25 0 0 0 27.75 26L26.25 26A0.25 0.25 0 0 0 26 26.25L26 26.75A0.25 0.25 0 0 0 26.25 27L26.75 27A0.25 0.25 0 0 1 27 27.25L27 27.75A0.25 0.25 0 0 1 26.75 28L24.25 28A0.25 0.25 0 0 1 24 27.75L24 27.25A0.25 0.25 0 0 1 24.25 27L24.75 27A0.25 0.25 0 0 0 25 26.75L25 26.25A0.25 0.25 0 0 0 24.75 26L21.25 26A0.25 0.25 0 0 0 21 26.25ZM17 27.25L17 27.75A0.25 0.25 0 0 0 17.25 28L17.75 28A0.25 0.25 0 0 0 18 27.75L18 27.25A0.25 0.25 0 0 0 17.75 27L17.25 27A0.25 0.25 0 0 0 17 27.25ZM9 28.25L9 28.75A0.25 0.25 0 0 0 9.25 29L9.75 29A0.25 0.25 0 0 0 10 28.75L10 28.25A0.25 0.25 0 0 0 9.75 28L9.25 28A0.25 0.25 0 0 0 9 28.25ZM0 0.25L0 6.75A0.25 0.25 0 0 0 0.25 7L6.75 7A0.25 0.25 0 0 0 7 6.75L7 0.25A0.25 0.25 0 0 0 6.75 0L0.25 0A0.25 0.25 0 0 0 0 0.25ZM1 1.25L1 5.75A0.25 0.25 0 0 0 1.25 6L5.75 6A0.25 0.25 0 0 0 6 5.75L6 1.25A0.25 0.25 0 0 0 5.75 1L1.25 1A0.25 0.25 0 0 0 1 1.25ZM2 2.25L2 4.75A0.25 0.25 0 0 0 2.25 5L4.75 5A0.25 0.25 0 0 0 5 4.75L5 2.25A0.25 0.25 0 0 0 4.75 2L2.25 2A0.25 0.25 0 0 0 2 2.25ZM22 0.25L22 6.75A0.25 0.25 0 0 0 22.25 7L28.75 7A0.25 0.25 0 0 0 29 6.75L29 0.25A0.25 0.25 0 0 0 28.75 0L22.25 0A0.25 0.25 0 0 0 22 0.25ZM23 1.25L23 5.75A0.25 0.25 0 0 0 23.25 6L27.75 6A0.25 0.25 0 0 0 28 5.75L28 1.25A0.25 0.25 0 0 0 27.75 1L23.25 1A0.25 0.25 0 0 0 23 1.25ZM24 2.25L24 4.75A0.25 0.25 0 0 0 24.25 5L26.75 5A0.25 0.25 0 0 0 27 4.75L27 2.25A0.25 0.25 0 0 0 26.75 2L24.25 2A0.25 0.25 0 0 0 24 2.25ZM0 22.25L0 28.75A0.25 0.25 0 0 0 0.25 29L6.75 29A0.25 0.25 0 0 0 7 28.75L7 22.25A0.25 0.25 0 0 0 6.75 22L0.25 22A0.25 0.25 0 0 0 0 22.25ZM1 23.25L1 27.75A0.25 0.25 0 0 0 1.25 28L5.75 28A0.25 0.25 0 0 0 6 27.75L6 23.25A0.25 0.25 0 0 0 5.75 23L1.25 23A0.25 0.25 0 0 0 1 23.25ZM2 24.25L2 26.75A0.25 0.25 0 0 0 2.25 27L4.75 27A0.25 0.25 0 0 0 5 26.75L5 24.25A0.25 0.25 0 0 0 4.75 24L2.25 24A0.25 0.25 0 0 0 2 24.25Z" fill="#000000"/></g></g></svg>
