<?xml version="1.0" encoding="UTF-8"?>
<svg xmlns="http://www.w3.org/2000/svg" version="1.1" width="200" height="200" viewBox="0 0 200 200"><rect x="0" y="0" width="200" height="200" fill="#ffffff"/><g transform="scale(6.897)"><g transform="translate(0,0)"><path fill-rule="evenodd" d="M8 0.25L8 2.75A0.25 0.25 0 0 0 8.25 3L8.75 3A0.25 0.25 0 0 1 9 3.25L9 4.75A0.25 0.25 0 0 1 8.75 5L8.25 5A0.25 0.25 0 0 0 8 5.25L8 8.75A0.25 0.25 0 0 1 7.75 9L7.25 9A0.25 0.25 0 0 1 7 8.75L7 8.25A0.25 0.25 0 0 0 6.75 8L6.25 8A0.25 0.25 0 0 0 6 8.25L6 8.75A0.25 0.25 0 0 1 5.75 9L5.25 9A0.25 0.25 0 0 1 5 8.75L5 8.25A0.25 0.25 0 0 0 4.75 8L2.25 8A0.25 0.25 0 0 0 2 8.25L2 8.75A0.25 0.25 0 0 0 2.25 9L3.75 9A0.25 0.25 0 0 1 4 9.25L4 10.75A0.25 0.25 0 0 0 4.25 11L4.75 11A0.25 0.25 0 0 0 5 10.75L5 10.25A0.25 0.25 0 0 1 5.25 10L5.75 10A0.25 0.25 0 0 1 6 10.25L6 10.75A0.25 0.25 0 0 0 6.25 11L6.75 11A0.25 0.25 0 0 1 7 11.25L7 11.75A0.25 0.25 0 0 1 6.75 12L5.25 12A0.25 0.25 0 0 0 5 12.25L5 12.75A0.25 0.25 0 0 1 4.75 13L4.25 13A0.25 0.25 0 0 0 4 13.25L4 13.75A0.25 0.25 0 0 1 3.75 14L3.25 14A0.25 0.25 0 0 1 3 13.75L3 12.25A0.25 0.25 0 0 0 2.75 12L2.25 12A0.25 0.25 0 0 1 2 11.75L2 11.25A0.25 0.25 0 0 0 1.75 11L0.25 11A0.25 0.25 0 0 0 0 11.25L0 11.75A0.25 0.25 0 0 0 0.25 12L0.75 12A0.25 0.25 0 0 1 1 12.25L1 14.75A0.25 0.25 0 0 1 0.75 15L0.25 15A0.25 0.25 0 0 0 0 15.25L0 15.75A0.25 0.25 0 0 0 0.25 16L0.75 16A0.25 0.25 0 0 0 1 15.75L1 15.25A0.25 0.25 0 0 1 1.25 15L3.75 15A0.25 0.25 0 0 1 4 15.25L4 16.75A0.25 0.25 0 0 1 3.75 17L3.25 17A0.25 0.25 0 0 1 3 16.75L3 16.25A0.25 0.25 0 0 0 2.75 16L2.25 16A0.25 0.25 0 0 0 2 16.25L2 16.75A0.25 0.25 0 0 1 1.75 17L0.25 17A0.25 0.25 0 0 0 0 17.25L0 20.75A0.25 0.25 0 0 0 0.25 21L0.75 21A0.25 0.25 0 0 0 1 20.75L1 18.25A0.25 0.25 0 0 1 1.25 18L1.75 18A0.25 0.25 0 0 0 2 17.75L2 17.25A0.25 0.25 0 0 1 2.25 17L2.75 17A0.25 0.25 0 0 1 3 17.25L3 18.75A0.25 0.25 0 0 0 3.25 19L3.75 19A0.25 0.25 0 0 1 4 19.25L4 19.75A0.25 0.25 0 0 1 3.75 20L2.25 20A0.25 0.25 0 0 0 2 20.25L2 20.75A0.25 0.25 0 0 0 2.25 21L4.75 21A0.25 0.25 0 0 0 5 20.75L5 20.25A0.25 0.25 0 0 1 5.25 20L5.75 20A0.25 0.25 0 0 1 6 20.25L6 20.75A0.25 0.25 0 0 0 6.25 21L7.75 21A0.25 0.25 0 0 1 8 21.25L8 21.75A0.25 0.25 0 0 0 8.25 22L8.75 22A0.25 0.25 0 0 1 9 22.25L9 23.75A0.25 0.25 0 0 1 8.75 24L8.25 24A0.25 0.25 0 0 0 8 24.25L8 26.75A0.25 0.25 0 0 0 8.25 27L8.75 27A0.25 0.25 0 0 1 9 27.25L9 28.75A0.25 0.25 0 0 0 9.25 29L9.75 29A0.25 0.25 0 0 0 10 28.75L10 28.25A0.25 0.25 0 0 1 10.25 28L10.75 28A0.25 0.25 0 0 0 11 27.75L11 26.25A0.25 0.25 0 0 1 11.25 26L11.75 26A0.25 0.25 0 0 1 12 26.25L12 27.75A0.25 0.25 0 0 0 12.25 28L13.75 28A0.25 0.25 0 0 1 14 28.25L14 28.75A0.25 0.25 0 0 0 14.25 29L14.75 29A0.25 0.25 0 0 0 15 28.75L15 27.25A0.25 0.25 0 0 0 14.75 27L13.25 27A0.25 0.25 0 0 1 13 26.75L13 25.25A0.25 0.25 0 0 1 13.25 25L13.75 25A0.25 0.25 0 0 1 14 25.25L14 25.75A0.25 0.25 0 0 0 14.25 26L16.75 26A0.25 0.25 0 0 0 17 25.75L17 23.25A0.25 0.25 0 0 0 16.75 23L16.25 23A0.25 0.25 0 0 1 16 22.75L16 22.25A0.25 0.25 0 0 0 15.75 22L15.25 22A0.25 0.25 0 0 1 15 21.75L15 20.25A0.25 0.25 0 0 0 14.75 20L13.25 20A0.25 0.25 0 0 1 13 19.75L13 19.25A0.25 0.25 0 0 1 13.25 19L15.75 19A0.25 0.25 0 0 1 16 19.25L16 20.75A0.25 0.25 0 0 0 16.25 21L16.75 21A0.25 0.25 0 0 1 17 21.25L17 21.75A0.25 0.25 0 0 0 17.25 22L17.75 22A0.25 0.25 0 0 1 18 22.25L18 22.75A0.25 0.25 0 0 0 18.25 23L18.75 23A0.25 0.25 0 0 1 19 23.25L19 23.75A0.25 0.25 0 0 0 19.25 24L19.75 24A0.25 0.25 0 0 1 20 24.25L20 24.75A0.25 0.25 0 0 1 19.75 25L19.25 25A0.25 0.25 0 0 0 19 25.25L19 25.75A0.25 0.25 0 0 1 18.75 26L18.25 26A0.25 0.25 0 0 0 18 26.25L18 26.75A0.25 0.25 0 0 0 18.25 27L18.75 27A0.25 0.25 0 0 0 19 26.75L19 26.25A0.25 0.25 0 0 1 19.25 26L19.75 26A0.25 0.25 0 0 0 20 25.75L20 25.25A0.25 0.25 0 0 1 20.25 25L22.75 25A0.25 0.25 0 0 1 23 25.25L23 25.75A0.25 0.25 0 0 1 22.75 26L21.25 26A0.25 0.25 0 0 0 21 26.25L21 27.75A0.25 0.25 0 0 0 21.25 28L21.75 28A0.25 0.25 0 0 0 22 27.75L22 27.25A0.25 0.25 0 0 1 22.25 27L22.75 27A0.25 0.25 0 0 0 23 26.75L23 26.25A0.25 0.25 0 0 1 23.25 26L23.75 26A0.25 0.25 0 0 1 24 26.25L24 26.75A0.25 0.25 0 0 0 24.25 27L26.75 27A0.25 0.25 0 0 1 27 27.25L27 27.75A0.25 0.25 0 0 1 26.75 28L23.25 28A0.25 0.25 0 0 0 23 28.25L23 28.75A0.25 0.25 0 0 0 23.25 29L26.75 29A0.25 0.25 0 0 0 27 28.75L27 28.25A0.25 0.25 0 0 1 27.25 28L27.75 28A0.25 0.25 0 0 0 28 27.75L28 26.25A0.25 0.25 0 0 0 27.75 26L24.25 26A0.25 0.25 0 0 1 24 25.75L24 25.25A0.25 0.25 0 0 1 24.25 25L27.75 25A0.25 0.25 0 0 0 28 24.75L28 24.25A0.25 0.25 0 0 0 27.75 24L25.25 24A0.25 0.25 0 0 1 25 23.75L25 22.25A0.25 0.25 0 0 1 25.25 22L25.75 22A0.25 0.25 0 0 1 26 22.25L26 22.75A0.25 0.25 0 0 0 26.25 23L26.75 23A0.25 0.25 0 0 0 27 22.75L27 22.25A0.25 0.25 0 0 1 27.25 22L28.75 22A0.25 0.25 0 0 0 29 21.75L29 21.25A0.25 0.25 0 0 0 28.75 21L27.25 21A0.25 0.25 0 0 1 27 20.75L27 20.25A0.25 0.25 0 0 1 27.25 20L27.75 20A0.25 0.25 0 0 0 28 19.75L28 19.25A0.25 0.25 0 0 0 27.75 19L27.25 19A0.25 0.25 0 0 0 27 19.25L27 19.75A0.25 0.25 0 0 1 26.75 20L25.25 20A0.25 0.25 0 0 1 25 19.75L25 19.25A0.25 0.25 0 0 0 24.75 19L24.25 19A0.25 0.25 0 0 1 24 18.75L24 18.25A0.25 0.25 0 0 1 24.25 18L24.75 18A0.25 0.25 0 0 0 25 17.75L25 17.25A0.25 0.25 0 0 0 24.75 17L24.25 17A0.25 0.25 0 0 1 24 16.75L24 16.25A0.25 0.25 0 0 1 24.25 16L25.75 16A0.25 0.25 0 0 1 26 16.25L26 17.75A0.25 0.25 0 0 0 26.25 18L28.75 18A0.25 0.25 0 0 0 29 17.75L29 17.25A0.25 0.25 0 0 0 28.75 17L27.25 17A0.25 0.25 0 0 1 27 16.75L27 16.25A0.25 0.25 0 0 1 27.25 16L27.75 16A0.25 0.25 0 0 0 28 15.75L28 15.25A0.25 0.25 0 0 0 27.75 15L27.25 15A0.25 0.25 0 0 0 27 15.25L27 15.75A0.25 0.25 0 0 1 26.75 16L26.25 16A0.25 0.25 0 0 1 26 15.75L26 15.25A0.25 0.25 0 0 0 25.75 15L25.25 15A0.25 0.25 0 0 1 25 14.75L25 14.25A0.25 0.25 0 0 1 25.25 14L25.75 14A0.25 0.25 0 0 0 26 13.75L26 13.25A0.25 0.25 0 0 1 26.25 13L26.75 13A0.25 0.25 0 0 1 27 13.25L27 13.75A0.25 0.25 0 0 0 27.25 14L28.75 14A0.25 0.25 0 0 0 29 13.75L29 13.25A0.25 0.25 0 0 0 28.75 13L28.25 13A0.25 0.25 0 0 1 28 12.75L28 12.25A0.25 0.25 0 0 1 28.25 12L28.75 12A0.25 0.25 0 0 0 29 11.75L29 11.25A0.25 0.25 0 0 0 28.75 11L28.25 11A0.25 0.25 0 0 1 28 10.75L28 10.25A0.25 0.25 0 0 1 28.25 10L28.75 10A0.25 0.25 0 0 0 29 9.75L29 8.25A0.25 0.25 0 0 0 28.75 8L26.25 8A0.25 0.25 0 0 0 26 8.25L26 8.75A0.25 0.25 0 0 1 25.75 9L24.25 9A0.25 0.25 0 0 1 24 8.75L24 8.25A0.25 0.25 0 0 0 23.75 8L21.25 8A0.25 0.25 0 0 1 21 7.75L21 5.25A0.25 0.25 0 0 0 20.75 5L20.25 5A0.25 0.25 0 0 1 20 4.75L20 4.25A0.25 0.25 0 0 1 20.25 4L20.75 4A0.25 0.25 0 0 0 21 3.75L21 2.25A0.25 0.25 0 0 0 20.75 2L20.25 2A0.25 0.25 0 0 1 20 1.75L20 1.25A0.25 0.25 0 0 1 20.25 1L20.75 1A0.25 0.25 0 0 0 21 0.75L21 0.25A0.25 0.25 0 0 0 20.75 0L20.25 0A0.25 0.25 0 0 0 20 0.25L20 0.75A0.25 0.25 0 0 1 19.75 1L19.25 1A0.25 0.25 0 0 1 19 0.75L19 0.25A0.25 0.25 0 0 0 18.75 0L18.25 0A0.25 0.25 0 0 0 18 0.25L18 0.75A0.25 0.25 0 0 0 18.25 1L18.75 1A0.25 0.25 0 0 1 19 1.25L19 1.75A0.25 0.25 0 0 1 18.75 2L18.25 2A0.25 0.25 0 0 0 18 2.25L18 2.75A0.25 0.25 0 0 1 17.75 3L17.25 3A0.25 0.25 0 0 1 17 2.75L17 0.25A0.25 0.25 0 0 0 16.75 0L15.25 0A0.25 0.25 0 0 0 15 0.25L15 0.75A0.25 0.25 0 0 0 15.25 1L15.75 1A0.25 0.25 0 0 1 16 1.25L16 2.75A0.25 0.25 0 0 1 15.75 3L14.25 3A0.25 0.25 0 0 1 14 2.75L14 1.25A0.25 0.25 0 0 0 13.75 1L13.25 1A0.25 0.25 0 0 0 13 1.25L13 1.75A0.25 0.25 0 0 1 12.75 2L12.25 2A0.25 0.25 0 0 1 12 1.75L12 1.25A0.25 0.25 0 0 0 11.75 1L10.25 1A0.25 0.25 0 0 1 10 0.75L10 0.25A0.25 0.25 0 0 0 9.75 0L8.25 0A0.25 0.25 0 0 0 8 0.25ZM9 2.25L9 2.75A0.25 0.25 0 0 0 9.25 3L9.75 3A0.25 0.25 0 0 1 10 3.25L10 4.75A0.25 0.25 0 0 0 10.25 5L10.75 5A0.25 0.25 0 0 1 11 5.25L11 6.75A0.25 0.25 0 0 1 10.75 7L10.25 7A0.25 0.25 0 0 1 10 6.75L10 6.25A0.25 0.25 0 0 0 9.75 6L9.25 6A0.25 0.25 0 0 0 9 6.25L9 6.75A0.25 0.25 0 0 0 9.25 7L9.75 7A0.25 0.25 0 0 1 10 7.25L10 7.75A0.25 0.25 0 0 1 9.75 8L9.25 8A0.25 0.25 0 0 0 9 8.25L9 8.75A0.25 0.25 0 0 1 8.75 9L8.25 9A0.25 0.25 0 0 0 8 9.25L8 11.75A0.25 0.25 0 0 1 7.75 12L7.25 12A0.25 0.25 0 0 0 7 12.25L7 12.75A0.25 0.25 0 0 1 6.75 13L6.25 13A0.25 0.25 0 0 0 6 13.25L6 13.75A0.25 0.25 0 0 0 6.25 14L6.75 14A0.25 0.25 0 0 1 7 14.25L7 14.75A0.25 0.25 0 0 1 6.75 15L6.25 15A0.25 0.25 0 0 0 6 15.25L6 15.75A0.25 0.25 0 0 1 5.75 16L5.25 16A0.25 0.25 0 0 0 5 16.25L5 16.75A0.25 0.25 0 0 0 5.25 17L5.75 17A0.25 0.25 0 0 1 6 17.25L6 17.75A0.25 0.25 0 0 1 5.75 18L5.25 18A0.25 0.25 0 0 0 5 18.25L5 18.75A0.25 0.25 0 0 0 5.25 19L5.75 19A0.25 0.25 0 0 1 6 19.25L6 19.75A0.25 0.25 0 0 0 6.25 20L6.75 20A0.25 0.25 0 0 0 7 19.75L7 19.25A0.25 0.25 0 0 1 7.25 19L8.75 19A0.25 0.25 0 0 1 9 19.25L9 19.75A0.25 0.25 0 0 0 9.25 20L9.75 20A0.25 0.25 0 0 1 10 20.25L10 20.75A0.25 0.25 0 0 0 10.25 21L11.75 21A0.25 0.25 0 0 0 12 20.75L12 19.25A0.25 0.25 0 0 0 11.75 19L11.25 19A0.25 0.25 0 0 1 11 18.75L11 18.25A0.25 0.25 0 0 1 11.25 18L11.75 18A0.25 0.25 0 0 0 12 17.75L12 17.25A0.25 0.25 0 0 0 11.75 17L11.25 17A0.25 0.25 0 0 1 11 16.75L11 16.25A0.25 0.25 0 0 1 11.25 16L11.75 16A0.25 0.25 0 0 0 12 15.75L12 14.25A0.25 0.25 0 0 1 12.25 14L12.75 14A0.25 0.25 0 0 1 13 14.25L13 14.75A0.25 0.25 0 0 0 13.25 15L14.75 15A0.25 0.25 0 0 1 15 15.25L15 15.75A0.25 0.25 0 0 0 15.25 16L15.75 16A0.25 0.25 0 0 0 16 15.75L16 14.25A0.25 0.25 0 0 1 16.25 14L16.75 14A0.25 0.25 0 0 0 17 13.75L17 10.25A0.25 0.25 0 0 1 17.25 10L17.75 10A0.25 0.25 0 0 1 18 10.25L18 12.75A0.25 0.25 0 0 0 18.25 13L20.75 13A0.25 0.25 0 0 1 21 13.25L21 13.75A0.25 0.25 0 0 0 21.25 14L21.75 14A0.25 0.25 0 0 1 22 14.25L22 14.75A0.25 0.25 0 0 1 21.75 15L20.25 15A0.25 0.25 0 0 1 20 14.75L20 14.25A0.25 0.25 0 0 0 19.75 14L18.25 14A0.25 0.25 0 0 0 18 14.25L18 15.75A0.25 0.25 0 0 1 17.75 16L17.25 16A0.25 0.25 0 0 0 17 16.25L17 16.75A0.25 0.25 0 0 1 16.75 17L14.25 17A0.25 0.25 0 0 0 14 17.25L14 17.75A0.25 0.25 0 0 0 14.25 18L15.75 18A0.25 0.25 0 0 1 16 18.25L16 18.75A0.25 0.25 0 0 0 16.25 19L16.75 19A0.25 0.25 0 0 1 17 19.25L17 20.75A0.25 0.25 0 0 0 17.25 21L18.75 21A0.25 0.25 0 0 1 19 21.25L19 21.75A0.25 0.25 0 0 0 19.25 22L19.75 22A0.25 0.25 0 0 0 20 21.75L20 21.25A0.25 0.25 0 0 0 19.75 21L19.25 21A0.25 0.25 0 0 1 19 20.75L19 18.25A0.25 0.25 0 0 1 19.25 18L19.75 18A0.25 0.25 0 0 1 20 18.25L20 18.75A0.25 0.25 0 0 0 20.25 19L20.75 19A0.25 0.25 0 0 0 21 18.75L21 18.25A0.25 0.25 0 0 1 21.25 18L21.75 18A0.25 0.25 0 0 1 22 18.25L22 19.75A0.25 0.25 0 0 0 22.25 20L22.75 20A0.25 0.25 0 0 0 23 19.75L23 18.25A0.25 0.25 0 0 1 23.25 18L23.75 18A0.25 0.25 0 0 0 24 17.75L24 17.25A0.25 0.25 0 0 0 23.75 17L23.25 17A0.25 0.25 0 0 1 23 16.75L23 14.25A0.25 0.25 0 0 1 23.25 14L23.75 14A0.25 0.25 0 0 0 24 13.75L24 13.25A0.25 0.25 0 0 1 24.25 13L24.75 13A0.25 0.25 0 0 0 25 12.75L25 12.25A0.25 0.25 0 0 1 25.25 12L26.75 12A0.25 0.25 0 0 0 27 11.75L27 10.25A0.25 0.25 0 0 1 27.25 10L27.75 10A0.25 0.25 0 0 0 28 9.75L28 9.25A0.25 0.25 0 0 0 27.75 9L26.25 9A0.25 0.25 0 0 0 26 9.25L26 9.75A0.25 0.25 0 0 1 25.75 10L25.25 10A0.25 0.25 0 0 0 25 10.25L25 11.75A0.25 0.25 0 0 1 24.75 12L24.25 12A0.25 0.25 0 0 0 24 12.25L24 12.75A0.25 0.25 0 0 1 23.75 13L23.25 13A0.25 0.25 0 0 1 23 12.75L23 10.25A0.25 0.25 0 0 1 23.25 10L23.75 10A0.25 0.25 0 0 0 24 9.75L24 9.25A0.25 0.25 0 0 0 23.75 9L23.25 9A0.25 0.25 0 0 0 23 9.25L23 9.75A0.25 0.25 0 0 1 22.75 10L22.25 10A0.25 0.25 0 0 1 22 9.75L22 9.25A0.25 0.25 0 0 0 21.75 9L20.25 9A0.25 0.25 0 0 1 20 8.75L20 5.25A0.25 0.25 0 0 0 19.75 5L19.25 5A0.25 0.25 0 0 1 19 4.75L19 4.25A0.25 0.25 0 0 0 18.75 4L17.25 4A0.25 0.25 0 0 1 17 3.75L17 3.25A0.25 0.25 0 0 0 16.75 3L16.25 3A0.25 0.25 0 0 0 16 3.25L16 4.75A0.25 0.25 0 0 0 16.25 5L16.75 5A0.25 0.25 0 0 1 17 5.25L17 6.75A0.25 0.25 0 0 1 16.75 7L16.25 7A0.25 0.25 0 0 1 16 6.75L16 6.25A0.25 0.25 0 0 0 15.75 6L15.25 6A0.25 0.25 0 0 0 15 6.25L15 6.75A0.25 0.25 0 0 1 14.75 7L14.25 7A0.25 0.25 0 0 1 14 6.75L14 5.25A0.25 0.25 0 0 0 13.75 5L13.25 5A0.25 0.25 0 0 1 13 4.75L13 4.25A0.25 0.25 0 0 0 12.75 4L12.25 4A0.25 0.25 0 0 1 12 3.75L12 3.25A0.25 0.25 0 0 0 11.75 3L11.25 3A0.25 0.25 0 0 1 11 2.75L11 2.25A0.25 0.25 0 0 0 10.75 2L9.25 2A0.25 0.25 0 0 0 9 2.25ZM18 5.25L18 6.75A0.25 0.25 0 0 0 18.25 7L18.75 7A0.25 0.25 0 0 0 19 6.75L19 5.25A0.25 0.25 0 0 0 18.75 5L18.25 5A0.25 0.25 0 0 0 18 5.25ZM12 6.25L12 6.75A0.25 0.25 0 0 0 12.25 7L12.75 7A0.25 0.25 0 0 0 13 6.75L13 6.25A0.25 0.25 0 0 0 12.75 6L12.25 6A0.25 0.25 0 0 0 12 6.25ZM11 8.25L11 8.75A0.25 0.25 0 0 1 10.75 9L10.25 9A0.25 0.25 0 0 0 10 9.25L10 9.75A0.25 0.25 0 0 0 10.25 10L10.75 10A0.25 0.25 0 0 0 11 9.75L11 9.25A0.25 0.25 0 0 1 11.25 9L11.75 9A0.25 0.25 0 0 0 12 8.75L12 8.25A0.25 0.25 0 0 0 11.75 8L11.25 8A0.25 0.25 0 0 0 11 8.25ZM13 8.25L13 10.75A0.25 0.25 0 0 1 12.75 11L9.25 11A0.25 0.25 0 0 0 9 11.25L9 11.75A0.25 0.25 0 0 0 9.25 12L11.75 12A0.25 0.25 0 0 1 12 12.25L12 12.75A0.25 0.25 0 0 1 11.75 13L7.25 13A0.25 0.25 0 0 0 7 13.25L7 13.75A0.25 0.25 0 0 0 7.25 14L7.75 14A0.25 0.25 0 0 1 8 14.25L8 14.75A0.25 0.25 0 0 0 8.25 15L8.75 15A0.25 0.25 0 0 1 9 15.25L9 15.75A0.25 0.25 0 0 1 8.75 16L8.25 16A0.25 0.25 0 0 0 8 16.25L8 16.75A0.25 0.25 0 0 1 7.75 17L7.25 17A0.25 0.25 0 0 1 7 16.75L7 16.25A0.25 0.25 0 0 0 6.75 16L6.25 16A0.25 0.25 0 0 0 6 16.25L6 16.75A0.25 0.25 0 0 0 6.25 17L6.75 17A0.25 0.25 0 0 1 7 17.25L7 17.75A0.25 0.25 0 0 1 6.75 18L6.25 18A0.25 0.25 0 0 0 6 18.25L6 18.75A0.25 0.25 0 0 0 6.25 19L6.75 19A0.25 0.25 0 0 0 7 18.75L7 18.25A0.25 0.25 0 0 1 7.25 18L7.75 18A0.25 0.25 0 0 0 8 17.75L8 17.25A0.25 0.25 0 0 1 8.25 17L8.75 17A0.25 0.25 0 0 1 9 17.25L9 18.75A0.25 0.25 0 0 0 9.25 19L9.75 19A0.25 0.25 0 0 0 10 18.75L10 15.25A0.25 0.25 0 0 0 9.75 15L9.25 15A0.25 0.25 0 0 1 9 14.75L9 14.25A0.25 0.25 0 0 1 9.25 14L11.75 14A0.25 0.25 0 0 0 12 13.75L12 13.25A0.25 0.25 0 0 1 12.25 13L12.75 13A0.25 0.25 0 0 1 13 13.25L13 13.75A0.25 0.25 0 0 0 13.25 14L13.75 14A0.25 0.25 0 0 0 14 13.75L14 13.25A0.25 0.25 0 0 0 13.75 13L13.25 13A0.25 0.25 0 0 1 13 12.75L13 12.25A0.25 0.25 0 0 1 13.25 12L13.75 12A0.25 0.25 0 0 0 14 11.75L14 11.25A0.25 0.25 0 0 1 14.25 11L15.75 11A0.25 0.25 0 0 0 16 10.75L16 9.25A0.25 0.25 0 0 1 16.25 9L16.75 9A0.25 0.25 0 0 0 17 8.75L17 8.25A0.25 0.25 0 0 0 16.75 8L15.25 8A0.25 0.25 0 0 0 15 8.25L15 9.75A0.25 0.25 0 0 1 14.75 10L14.25 10A0.25 0.25 0 0 1 14 9.75L14 8.25A0.25 0.25 0 0 0 13.75 8L13.25 8A0.25 0.25 0 0 0 13 8.25ZM18 8.25L18 8.75A0.25 0.25 0 0 0 18.25 9L18.75 9A0.25 0.25 0 0 0 19 8.75L19 8.25A0.25 0.25 0 0 0 18.75 8L18.25 8A0.25 0.25 0 0 0 18 8.25ZM0 9.25L0 9.75A0.25 0.25 0 0 0 0.25 10L0.75 10A0.25 0.25 0 0 0 1 9.75L1 9.25A0.25 0.25 0 0 0 0.75 9L0.25 9A0.25 0.25 0 0 0 0 9.25ZM6 9.25L6 9.75A0.25 0.25 0 0 0 6.25 10L6.75 10A0.25 0.25 0 0 0 7 9.75L7 9.25A0.25 0.25 0 0 0 6.75 9L6.25 9A0.25 0.25 0 0 0 6 9.25ZM20 10.25L20 10.75A0.25 0.25 0 0 0 20.25 11L20.75 11A0.25 0.25 0 0 1 21 11.25L21 12.75A0.25 0.25 0 0 0 21.25 13L21.75 13A0.25 0.25 0 0 1 22 13.25L22 13.75A0.25 0.25 0 0 0 22.25 14L22.75 14A0.25 0.25 0 0 0 23 13.75L23 13.25A0.25 0.25 0 0 0 22.75 13L22.25 13A0.25 0.25 0 0 1 22 12.75L22 10.25A0.25 0.25 0 0 0 21.75 10L20.25 10A0.25 0.25 0 0 0 20 10.25ZM15 12.25L15 13.75A0.25 0.25 0 0 0 15.25 14L15.75 14A0.25 0.25 0 0 0 16 13.75L16 12.25A0.25 0.25 0 0 0 15.75 12L15.25 12A0.25 0.25 0 0 0 15 12.25ZM4 14.25L4 14.75A0.25 0.25 0 0 0 4.25 15L4.75 15A0.25 0.25 0 0 0 5 14.75L5 14.25A0.25 0.25 0 0 0 4.75 14L4.25 14A0.25 0.25 0 0 0 4 14.25ZM18 16.25L18 16.75A0.25 0.25 0 0 1 17.75 17L17.25 17A0.25 0.25 0 0 0 17 17.25L17 18.75A0.25 0.25 0 0 0 17.25 19L17.75 19A0.25 0.25 0 0 0 18 18.75L18 17.25A0.25 0.25 0 0 1 18.25 17L18.75 17A0.25 0.25 0 0 0 19 16.75L19 16.25A0.25 0.25 0 0 0 18.75 16L18.25 16A0.25 0.25 0 0 0 18 16.25ZM21 16.25L21 16.75A0.25 0.25 0 0 1 20.75 17L20.25 17A0.25 0.25 0 0 0 20 17.25L20 17.75A0.25 0.25 0 0 0 20.25 18L20.75 18A0.25 0.25 0 0 0 21 17.75L21 17.25A0.25 0.25 0 0 1 21.25 17L21.75 17A0.25 0.25 0 0 1 22 17.25L22 17.75A0.25 0.25 0 0 0 22.25 18L22.75 18A0.25 0.25 0 0 0 23 17.75L23 17.25A0.25 0.25 0 0 0 22.75 17L22.25 17A0.25 0.25 0 0 1 22 16.75L22 16.25A0.25 0.25 0 0 0 21.75 16L21.25 16A0.25 0.25 0 0 0 21 16.25ZM13 21.25L13 21.75A0.25 0.25 0 0 0 13.25 22L13.75 22A0.25 0.25 0 0 0 14 21.75L14 21.25A0.25 0.25 0 0 0 13.75 21L13.25 21A0.25 0.25 0 0 0 13 21.25ZM21 21.25L21 23.75A0.25 0.25 0 0 0 21.25 24L23.75 24A0.25 0.25 0 0 0 24 23.75L24 21.25A0.25 0.25 0 0 0 23.75 21L21.25 21A0.25 0.25 0 0 0 21 21.25ZM26 21.25L26 21.75A0.25 0.25 0 0 0 26.25 22L26.75 22A0.25 0.25 0 0 0 27 21.75L27 21.25A0.25 0.25 0 0 0 26.75 21L26.25 21A0.25 0.25 0 0 0 26 21.25ZM10 22.25L10 23.75A0.25 0.25 0 0 0 10.25 24L11.75 24A0.25 0.25 0 0 0 12 23.75L12 23.25A0.25 0.25 0 0 0 11.75 23L11.25 23A0.25 0.25 0 0 1 11 22.75L11 22.25A0.25 0.25 0 0 0 10.75 22L10.25 22A0.25 0.25 0 0 0 10 22.25ZM22 22.25L22 22.75A0.25 0.25 0 0 0 22.25 23L22.75 23A0.25 0.25 0 0 0 23 22.75L23 22.25A0.25 0.25 0 0 0 22.75 22L22.25 22A0.25 0.25 0 0 0 22 22.25ZM13 23.25L13 23.75A0.25 0.25 0 0 0 13.25 24L13.75 24A0.25 0.25 0 0 1 14 24.25L14 24.75A0.25 0.25 0 0 0 14.25 25L15.75 25A0.25 0.25 0 0 0 16 24.75L16 24.25A0.25 0.25 0 0 0 15.75 24L15.25 24A0.25 0.25 0 0 1 15 23.75L15 23.25A0.25 0.25 0 0 0 14.75 23L13.25 23A0.25 0.25 0 0 0 13 23.25ZM9 25.25L9 25.75A0.25 0.25 0 0 0 9.25 26L9.75 26A0.25 0.25 0 0 0 10 25.75L10 25.25A0.25 0.25 0 0 0 9.75 25L9.25 25A0.25 0.25 0 0 0 9 25.25ZM16 27.25L16 27.75A0.25 0.25 0 0 0 16.25 28L16.75 28A0.25 0.25 0 0 1 17 28.25L17 28.75A0.25 0.25 0 0 0 17.25 29L18.75 29A0.25 0.25 0 0 0 19 28.75L19 28.25A0.25 0.25 0 0 0 18.75 28L17.25 28A0.25 0.25 0 0 1 17 27.75L17 27.25A0.25 0.25 0 0 0 16.75 27L16.25 27A0.25 0.25 0 0 0 16 27.25ZM0 0.25L0 6.75A0.25 0.25 0 0 0 0.25 7L6.75 7A0.25 0.25 0 0 0 7 6.75L7 0.25A0.25 0.25 0 0 0 6.75 0L0.25 0A0.25 0.25 0 0 0 0 0.25ZM1 1.25L1 5.75A0.25 0.25 0 0 0 1.25 6L5.75 6A0.25 0.25 0 0 0 6 5.75L6 1.25A0.25 0.25 0 0 0 5.75 1L1.25 1A0.25 0.25 0 0 0 1 1.25ZM2 2.25L2 4.75A0.25 0.25 0 0 0 2.25 5L4.75 5A0.25 0.25 0 0 0 5 4.75L5 2.25A0.25 0.25 0 0 0 4.75 2L2.25 2A0.25 0.25 0 0 0 2 2.25ZM22 0.25L22 6.75A0.25 0.25 0 0 0 22.25 7L28.75 7A0.25 0.25 0 0 0 29 6.75L29 0.25A0.25 0.25 0 0 0 28.75 0L22.25 0A0.25 0.25 0 0 0 22 0.25ZM23 1.25L23 5.75A0.25 0.25 0 0 0 23.25 6L27.75 6A0.25 0.25 0 0 0 28 5.75L28 1.25A0.25 0.25 0 0 0 27.75 1L23.25 1A0.25 0.25 0 0 0 23 1.25ZM24 2.25L24 4.75A0.25 0.25 0 0 0 24.25 5L26.75 5A0.25 0.25 0 0 0 27 4.75L27 2.25A0.25 0.25 0 0 0 26.75 2L24.25 2A0.25 0.25 0 0 0 24 2.25ZM0 22.25L0 28.75A0.25 0.25 0 0 0 0.25 29L6.75 29A0.25 0.25 0 0 0 7 28.75L7 22.25A0.25 0.25 0 0 0 6.75 22L0.25 22A0.25 0.25 0 0 0 0 22.25ZM1 23.25L1 27.75A0.25 0.25 0 0 0 1.25 28L5.75 28A0.25 0.25 0 0 0 6 27.75L6 23.25A0.25 0.25 0 0 0 5.75 23L1.25 23A0.25 0.25 0 0 0 1 23.25ZM2 24.25L2 26.75A0.25 0.25 0 0 0 2.25 27L4.75 27A0.25 0.25 0 0 0 5 26.75L5 24.25A0.25 0.25 0 0 0 4.75 24L2.25 24A0.25 0.25 0 0 0 2 24.25Z" fill="#000000"/></g></g></svg>
