<?xml version="1.0" encoding="UTF-8"?>
<svg xmlns="http://www.w3.org/2000/svg" version="1.1" width="100" height="100" viewBox="0 0 100 100"><rect x="0" y="0" width="100" height="100" fill="#ffffff"/><g transform="scale(3.448)"><g transform="translate(0,0)"><path fill-rule="evenodd" d="M8 0.25L8 2.75A0.25 0.25 0 0 0 8.25 3L8.75 3A0.25 0.25 0 0 1 9 3.25L9 4.75A0.25 0.25 0 0 1 8.75 5L8.25 5A0.25 0.25 0 0 0 8 5.25L8 9.75A0.25 0.25 0 0 0 8.25 10L9.75 10A0.25 0.25 0 0 0 10 9.75L10 9.25A0.25 0.25 0 0 0 9.75 9L9.25 9A0.25 0.25 0 0 1 9 8.75L9 8.25A0.25 0.25 0 0 1 9.25 8L10.75 8A0.25 0.25 0 0 1 11 8.25L11 10.75A0.25 0.25 0 0 1 10.75 11L10.25 11A0.25 0.25 0 0 0 10 11.25L10 11.75A0.25 0.25 0 0 1 9.75 12L8.25 12A0.25 0.25 0 0 0 8 12.25L8 12.75A0.25 0.25 0 0 0 8.25 13L9.75 13A0.25 0.25 0 0 1 10 13.25L10 13.75A0.25 0.25 0 0 0 10.25 14L10.75 14A0.25 0.25 0 0 1 11 14.25L11 15.75A0.25 0.25 0 0 1 10.75 16L10.25 16A0.25 0.25 0 0 0 10 16.25L10 16.75A0.25 0.25 0 0 1 9.75 17L9.25 17A0.25 0.25 0 0 1 9 16.75L9 16.25A0.25 0.25 0 0 0 8.75 16L8.25 16A0.25 0.25 0 0 1 8 15.75L8 14.25A0.25 0.25 0 0 0 7.75 14L6.25 14A0.25 0.25 0 0 1 6 13.75L6 13.25A0.25 0.25 0 0 1 6.25 13L6.75 13A0.25 0.25 0 0 0 7 12.75L7 12.25A0.25 0.25 0 0 0 6.75 12L6.25 12A0.25 0.25 0 0 1 6 11.75L6 11.25A0.25 0.25 0 0 1 6.25 11L6.75 11A0.25 0.25 0 0 0 7 10.75L7 10.25A0.25 0.25 0 0 0 6.75 10L3.25 10A0.25 0.25 0 0 1 3 9.75L3 9.25A0.25 0.25 0 0 1 3.25 9L4.75 9A0.25 0.25 0 0 0 5 8.75L5 8.25A0.25 0.25 0 0 0 4.75 8L2.25 8A0.25 0.25 0 0 0 2 8.25L2 9.75A0.25 0.25 0 0 1 1.75 10L1.25 10A0.25 0.25 0 0 1 1 9.75L1 9.25A0.25 0.25 0 0 0 0.75 9L0.25 9A0.25 0.25 0 0 0 0 9.25L0 9.75A0.25 0.25 0 0 0 0.25 10L0.75 10A0.25 0.25 0 0 1 1 10.25L1 10.75A0.25 0.25 0 0 1 0.75 11L0.25 11A0.25 0.25 0 0 0 0 11.25L0 11.75A0.25 0.25 0 0 0 0.25 12L0.75 12A0.25 0.25 0 0 0 1 11.75L1 11.25A0.25 0.25 0 0 1 1.25 11L1.75 11A0.25 0.25 0 0 1 2 11.25L2 12.75A0.25 0.25 0 0 0 2.25 13L4.75 13A0.25 0.25 0 0 1 5 13.25L5 14.75A0.25 0.25 0 0 1 4.75 15L4.25 15A0.25 0.25 0 0 0 4 15.25L4 15.75A0.25 0.25 0 0 0 4.25 16L4.75 16A0.25 0.25 0 0 1 5 16.25L5 16.75A0.25 0.25 0 0 0 5.25 17L6.75 17A0.25 0.25 0 0 1 7 17.25L7 17.75A0.25 0.25 0 0 1 6.75 18L6.25 18A0.25 0.25 0 0 0 6 18.25L6 18.75A0.25 0.25 0 0 0 6.25 19L6.75 19A0.25 0.25 0 0 1 7 19.25L7 19.75A0.25 0.25 0 0 1 6.75 20L5.25 20A0.25 0.25 0 0 1 5 19.75L5 18.25A0.25 0.25 0 0 0 4.75 18L4.25 18A0.25 0.25 0 0 0 4 18.25L4 18.75A0.25 0.25 0 0 1 3.75 19L2.25 19A0.25 0.25 0 0 0 2 19.25L2 19.75A0.25 0.25 0 0 0 2.25 20L4.75 20A0.25 0.25 0 0 1 5 20.25L5 20.75A0.25 0.25 0 0 0 5.25 21L7.75 21A0.25 0.25 0 0 1 8 21.25L8 21.75A0.25 0.25 0 0 0 8.25 22L8.75 22A0.25 0.25 0 0 1 9 22.25L9 23.75A0.25 0.25 0 0 1 8.75 24L8.25 24A0.25 0.25 0 0 0 8 24.25L8 26.75A0.25 0.25 0 0 0 8.25 27L8.75 27A0.25 0.25 0 0 0 9 26.75L9 26.25A0.25 0.25 0 0 1 9.25 26L9.75 26A0.25 0.25 0 0 1 10 26.25L10 26.75A0.25 0.25 0 0 0 10.25 27L10.75 27A0.25 0.25 0 0 0 11 26.75L11 26.25A0.25 0.25 0 0 1 11.25 26L13.75 26A0.25 0.25 0 0 0 14 25.75L14 25.25A0.25 0.25 0 0 1 14.25 25L14.75 25A0.25 0.25 0 0 1 15 25.25L15 25.75A0.25 0.25 0 0 0 15.25 26L16.75 26A0.25 0.25 0 0 1 17 26.25L17 26.75A0.25 0.25 0 0 1 16.75 27L16.25 27A0.25 0.25 0 0 0 16 27.25L16 27.75A0.25 0.25 0 0 1 15.75 28L13.25 28A0.25 0.25 0 0 0 13 28.25L13 28.75A0.25 0.25 0 0 0 13.25 29L18.75 29A0.25 0.25 0 0 0 19 28.75L19 28.25A0.25 0.25 0 0 0 18.75 28L17.25 28A0.25 0.25 0 0 1 17 27.75L17 27.25A0.25 0.25 0 0 1 17.25 27L19.75 27A0.25 0.25 0 0 0 20 26.75L20 26.25A0.25 0.25 0 0 0 19.75 26L19.25 26A0.25 0.25 0 0 1 19 25.75L19 25.25A0.25 0.25 0 0 0 18.75 25L18.25 25A0.25 0.25 0 0 1 18 24.75L18 24.25A0.25 0.25 0 0 1 18.25 24L19.75 24A0.25 0.25 0 0 1 20 24.25L20 24.75A0.25 0.25 0 0 0 20.25 25L26.75 25A0.25 0.25 0 0 0 27 24.75L27 24.25A0.25 0.25 0 0 1 27.25 24L28.75 24A0.25 0.25 0 0 0 29 23.75L29 23.25A0.25 0.25 0 0 0 28.75 23L28.25 23A0.25 0.25 0 0 1 28 22.75L28 22.25A0.25 0.25 0 0 1 28.25 22L28.75 22A0.25 0.25 0 0 0 29 21.75L29 21.25A0.25 0.25 0 0 0 28.75 21L28.25 21A0.25 0.25 0 0 0 28 21.25L28 21.75A0.25 0.25 0 0 1 27.75 22L27.25 22A0.25 0.25 0 0 0 27 22.25L27 23.75A0.25 0.25 0 0 1 26.75 24L25.25 24A0.25 0.25 0 0 1 25 23.75L25 23.25A0.25 0.25 0 0 1 25.25 23L25.75 23A0.25 0.25 0 0 0 26 22.75L26 22.25A0.25 0.25 0 0 0 25.75 22L25.25 22A0.25 0.25 0 0 1 25 21.75L25 21.25A0.25 0.25 0 0 1 25.25 21L26.75 21A0.25 0.25 0 0 0 27 20.75L27 20.25A0.25 0.25 0 0 1 27.25 20L27.75 20A0.25 0.25 0 0 0 28 19.75L28 19.25A0.25 0.25 0 0 0 27.75 19L27.25 19A0.25 0.25 0 0 1 27 18.75L27 18.25A0.25 0.25 0 0 1 27.25 18L28.75 18A0.25 0.25 0 0 0 29 17.75L29 17.25A0.25 0.25 0 0 0 28.75 17L28.25 17A0.25 0.25 0 0 1 28 16.75L28 15.25A0.25 0.25 0 0 0 27.75 15L27.25 15A0.25 0.25 0 0 0 27 15.25L27 15.75A0.25 0.25 0 0 1 26.75 16L25.25 16A0.25 0.25 0 0 1 25 15.75L25 13.25A0.25 0.25 0 0 0 24.75 13L22.25 13A0.25 0.25 0 0 1 22 12.75L22 12.25A0.25 0.25 0 0 1 22.25 12L22.75 12A0.25 0.25 0 0 0 23 11.75L23 11.25A0.25 0.25 0 0 1 23.25 11L23.75 11A0.25 0.25 0 0 1 24 11.25L24 11.75A0.25 0.25 0 0 0 24.25 12L25.75 12A0.25 0.25 0 0 1 26 12.25L26 13.75A0.25 0.25 0 0 0 26.25 14L28.75 14A0.25 0.25 0 0 0 29 13.75L29 13.25A0.25 0.25 0 0 0 28.75 13L27.25 13A0.25 0.25 0 0 1 27 12.75L27 12.25A0.25 0.25 0 0 0 26.75 12L26.25 12A0.25 0.25 0 0 1 26 11.75L26 11.25A0.25 0.25 0 0 1 26.25 11L27.75 11A0.25 0.25 0 0 0 28 10.75L28 10.25A0.25 0.25 0 0 1 28.25 10L28.75 10A0.25 0.25 0 0 0 29 9.75L29 8.25A0.25 0.25 0 0 0 28.75 8L26.25 8A0.25 0.25 0 0 0 26 8.25L26 8.75A0.25 0.25 0 0 1 25.75 9L24.25 9A0.25 0.25 0 0 1 24 8.75L24 8.25A0.25 0.25 0 0 0 23.75 8L20.25 8A0.25 0.25 0 0 0 20 8.25L20 8.75A0.25 0.25 0 0 0 20.25 9L21.75 9A0.25 0.25 0 0 1 22 9.25L22 9.75A0.25 0.25 0 0 1 21.75 10L20.25 10A0.25 0.25 0 0 0 20 10.25L20 10.75A0.25 0.25 0 0 0 20.25 11L21.75 11A0.25 0.25 0 0 1 22 11.25L22 11.75A0.25 0.25 0 0 1 21.75 12L21.25 12A0.25 0.25 0 0 0 21 12.25L21 12.75A0.25 0.25 0 0 1 20.75 13L19.25 13A0.25 0.25 0 0 1 19 12.75L19 11.25A0.25 0.25 0 0 0 18.75 11L18.25 11A0.25 0.25 0 0 0 18 11.25L18 13.75A0.25 0.25 0 0 1 17.75 14L17.25 14A0.25 0.25 0 0 1 17 13.75L17 11.25A0.25 0.25 0 0 0 16.75 11L16.25 11A0.25 0.25 0 0 1 16 10.75L16 10.25A0.25 0.25 0 0 1 16.25 10L16.75 10A0.25 0.25 0 0 0 17 9.75L17 9.25A0.25 0.25 0 0 0 16.75 9L16.25 9A0.25 0.25 0 0 1 16 8.75L16 7.25A0.25 0.25 0 0 1 16.25 7L16.75 7A0.25 0.25 0 0 0 17 6.75L17 5.25A0.25 0.25 0 0 0 16.75 5L16.25 5A0.25 0.25 0 0 1 16 4.75L16 4.25A0.25 0.25 0 0 1 16.25 4L17.75 4A0.25 0.25 0 0 1 18 4.25L18 6.75A0.25 0.25 0 0 0 18.25 7L18.75 7A0.25 0.25 0 0 0 19 6.75L19 5.25A0.25 0.25 0 0 1 19.25 5L19.75 5A0.25 0.25 0 0 1 20 5.25L20 6.75A0.25 0.25 0 0 0 20.25 7L20.75 7A0.25 0.25 0 0 0 21 6.75L21 4.25A0.25 0.25 0 0 0 20.75 4L20.25 4A0.25 0.25 0 0 1 20 3.75L20 3.25A0.25 0.25 0 0 1 20.25 3L20.75 3A0.25 0.25 0 0 0 21 2.75L21 2.25A0.25 0.25 0 0 0 20.75 2L20.25 2A0.25 0.25 0 0 1 20 1.75L20 1.25A0.25 0.25 0 0 1 20.25 1L20.75 1A0.25 0.25 0 0 0 21 0.75L21 0.25A0.25 0.25 0 0 0 20.75 0L20.25 0A0.25 0.25 0 0 0 20 0.25L20 0.75A0.25 0.25 0 0 1 19.75 1L19.25 1A0.25 0.25 0 0 1 19 0.75L19 0.25A0.25 0.25 0 0 0 18.75 0L18.25 0A0.25 0.25 0 0 0 18 0.25L18 1.75A0.25 0.25 0 0 0 18.25 2L18.75 2A0.25 0.25 0 0 1 19 2.25L19 3.75A0.25 0.25 0 0 1 18.75 4L18.25 4A0.25 0.25 0 0 1 18 3.75L18 3.25A0.25 0.25 0 0 0 17.75 3L17.25 3A0.25 0.25 0 0 1 17 2.75L17 1.25A0.25 0.25 0 0 0 16.75 1L16.25 1A0.25 0.25 0 0 1 16 0.75L16 0.25A0.25 0.25 0 0 0 15.75 0L14.25 0A0.25 0.25 0 0 0 14 0.25L14 0.75A0.25 0.25 0 0 1 13.75 1L13.25 1A0.25 0.25 0 0 1 13 0.75L13 0.25A0.25 0.25 0 0 0 12.75 0L8.25 0A0.25 0.25 0 0 0 8 0.25ZM11 1.25L11 1.75A0.25 0.25 0 0 1 10.75 2L9.25 2A0.25 0.25 0 0 0 9 2.25L9 2.75A0.25 0.25 0 0 0 9.25 3L10.75 3A0.25 0.25 0 0 1 11 3.25L11 3.75A0.25 0.25 0 0 1 10.75 4L10.25 4A0.25 0.25 0 0 0 10 4.25L10 4.75A0.25 0.25 0 0 0 10.25 5L11.75 5A0.25 0.25 0 0 1 12 5.25L12 5.75A0.25 0.25 0 0 1 11.75 6L11.25 6A0.25 0.25 0 0 0 11 6.25L11 6.75A0.25 0.25 0 0 0 11.25 7L11.75 7A0.25 0.25 0 0 0 12 6.75L12 6.25A0.25 0.25 0 0 1 12.25 6L12.75 6A0.25 0.25 0 0 1 13 6.25L13 7.75A0.25 0.25 0 0 0 13.25 8L13.75 8A0.25 0.25 0 0 0 14 7.75L14 6.25A0.25 0.25 0 0 1 14.25 6L14.75 6A0.25 0.25 0 0 1 15 6.25L15 6.75A0.25 0.25 0 0 0 15.25 7L15.75 7A0.25 0.25 0 0 0 16 6.75L16 6.25A0.25 0.25 0 0 0 15.75 6L15.25 6A0.25 0.25 0 0 1 15 5.75L15 5.25A0.25 0.25 0 0 0 14.75 5L12.25 5A0.25 0.25 0 0 1 12 4.75L12 2.25A0.25 0.25 0 0 1 12.25 2L12.75 2A0.25 0.25 0 0 1 13 2.25L13 3.75A0.25 0.25 0 0 0 13.25 4L13.75 4A0.25 0.25 0 0 0 14 3.75L14 2.25A0.25 0.25 0 0 1 14.25 2L14.75 2A0.25 0.25 0 0 1 15 2.25L15 3.75A0.25 0.25 0 0 0 15.25 4L15.75 4A0.25 0.25 0 0 0 16 3.75L16 2.25A0.25 0.25 0 0 0 15.75 2L15.25 2A0.25 0.25 0 0 1 15 1.75L15 1.25A0.25 0.25 0 0 0 14.75 1L14.25 1A0.25 0.25 0 0 0 14 1.25L14 1.75A0.25 0.25 0 0 1 13.75 2L13.25 2A0.25 0.25 0 0 1 13 1.75L13 1.25A0.25 0.25 0 0 0 12.75 1L11.25 1A0.25 0.25 0 0 0 11 1.25ZM9 6.25L9 6.75A0.25 0.25 0 0 0 9.25 7L9.75 7A0.25 0.25 0 0 0 10 6.75L10 6.25A0.25 0.25 0 0 0 9.75 6L9.25 6A0.25 0.25 0 0 0 9 6.25ZM6 8.25L6 8.75A0.25 0.25 0 0 0 6.25 9L6.75 9A0.25 0.25 0 0 0 7 8.75L7 8.25A0.25 0.25 0 0 0 6.75 8L6.25 8A0.25 0.25 0 0 0 6 8.25ZM18 8.25L18 8.75A0.25 0.25 0 0 0 18.25 9L18.75 9A0.25 0.25 0 0 0 19 8.75L19 8.25A0.25 0.25 0 0 0 18.75 8L18.25 8A0.25 0.25 0 0 0 18 8.25ZM13 9.25L13 9.75A0.25 0.25 0 0 0 13.25 10L13.75 10A0.25 0.25 0 0 1 14 10.25L14 10.75A0.25 0.25 0 0 1 13.75 11L13.25 11A0.25 0.25 0 0 0 13 11.25L13 11.75A0.25 0.25 0 0 1 12.75 12L12.25 12A0.25 0.25 0 0 1 12 11.75L12 11.25A0.25 0.25 0 0 0 11.75 11L11.25 11A0.25 0.25 0 0 0 11 11.25L11 11.75A0.25 0.25 0 0 0 11.25 12L11.75 12A0.25 0.25 0 0 1 12 12.25L12 12.75A0.25 0.25 0 0 0 12.25 13L12.75 13A0.25 0.25 0 0 1 13 13.25L13 13.75A0.25 0.25 0 0 0 13.25 14L13.75 14A0.25 0.25 0 0 1 14 14.25L14 14.75A0.25 0.25 0 0 0 14.25 15L14.75 15A0.25 0.25 0 0 1 15 15.25L15 15.75A0.25 0.25 0 0 0 15.25 16L16.75 16A0.25 0.25 0 0 0 17 15.75L17 15.25A0.25 0.25 0 0 0 16.75 15L15.25 15A0.25 0.25 0 0 1 15 14.75L15 14.25A0.25 0.25 0 0 1 15.25 14L15.75 14A0.25 0.25 0 0 0 16 13.75L16 13.25A0.25 0.25 0 0 0 15.75 13L15.25 13A0.25 0.25 0 0 0 15 13.25L15 13.75A0.25 0.25 0 0 1 14.75 14L14.25 14A0.25 0.25 0 0 1 14 13.75L14 13.25A0.25 0.25 0 0 0 13.75 13L13.25 13A0.25 0.25 0 0 1 13 12.75L13 12.25A0.25 0.25 0 0 1 13.25 12L14.75 12A0.25 0.25 0 0 0 15 11.75L15 9.25A0.25 0.25 0 0 0 14.75 9L13.25 9A0.25 0.25 0 0 0 13 9.25ZM23 9.25L23 9.75A0.25 0.25 0 0 1 22.75 10L22.25 10A0.25 0.25 0 0 0 22 10.25L22 10.75A0.25 0.25 0 0 0 22.25 11L22.75 11A0.25 0.25 0 0 0 23 10.75L23 10.25A0.25 0.25 0 0 1 23.25 10L23.75 10A0.25 0.25 0 0 0 24 9.75L24 9.25A0.25 0.25 0 0 0 23.75 9L23.25 9A0.25 0.25 0 0 0 23 9.25ZM26 9.25L26 9.75A0.25 0.25 0 0 1 25.75 10L25.25 10A0.25 0.25 0 0 0 25 10.25L25 10.75A0.25 0.25 0 0 0 25.25 11L25.75 11A0.25 0.25 0 0 0 26 10.75L26 10.25A0.25 0.25 0 0 1 26.25 10L27.75 10A0.25 0.25 0 0 0 28 9.75L28 9.25A0.25 0.25 0 0 0 27.75 9L26.25 9A0.25 0.25 0 0 0 26 9.25ZM3 11.25L3 11.75A0.25 0.25 0 0 0 3.25 12L4.75 12A0.25 0.25 0 0 1 5 12.25L5 12.75A0.25 0.25 0 0 0 5.25 13L5.75 13A0.25 0.25 0 0 0 6 12.75L6 12.25A0.25 0.25 0 0 0 5.75 12L5.25 12A0.25 0.25 0 0 1 5 11.75L5 11.25A0.25 0.25 0 0 0 4.75 11L3.25 11A0.25 0.25 0 0 0 3 11.25ZM21 13.25L21 13.75A0.25 0.25 0 0 0 21.25 14L21.75 14A0.25 0.25 0 0 0 22 13.75L22 13.25A0.25 0.25 0 0 0 21.75 13L21.25 13A0.25 0.25 0 0 0 21 13.25ZM0 14.25L0 20.75A0.25 0.25 0 0 0 0.25 21L0.75 21A0.25 0.25 0 0 0 1 20.75L1 18.25A0.25 0.25 0 0 1 1.25 18L2.75 18A0.25 0.25 0 0 0 3 17.75L3 17.25A0.25 0.25 0 0 0 2.75 17L1.25 17A0.25 0.25 0 0 1 1 16.75L1 15.25A0.25 0.25 0 0 1 1.25 15L1.75 15A0.25 0.25 0 0 1 2 15.25L2 15.75A0.25 0.25 0 0 0 2.25 16L2.75 16A0.25 0.25 0 0 0 3 15.75L3 15.25A0.25 0.25 0 0 0 2.75 15L2.25 15A0.25 0.25 0 0 1 2 14.75L2 14.25A0.25 0.25 0 0 0 1.75 14L0.25 14A0.25 0.25 0 0 0 0 14.25ZM18 14.25L18 14.75A0.25 0.25 0 0 0 18.25 15L18.75 15A0.25 0.25 0 0 1 19 15.25L19 15.75A0.25 0.25 0 0 1 18.75 16L18.25 16A0.25 0.25 0 0 0 18 16.25L18 17.75A0.25 0.25 0 0 1 17.75 18L17.25 18A0.25 0.25 0 0 0 17 18.25L17 18.75A0.25 0.25 0 0 1 16.75 19L15.25 19A0.25 0.25 0 0 1 15 18.75L15 18.25A0.25 0.25 0 0 0 14.75 18L14.25 18A0.25 0.25 0 0 0 14 18.25L14 18.75A0.25 0.25 0 0 1 13.75 19L13.25 19A0.25 0.25 0 0 0 13 19.25L13 19.75A0.25 0.25 0 0 1 12.75 20L12.25 20A0.25 0.25 0 0 0 12 20.25L12 20.75A0.25 0.25 0 0 1 11.75 21L10.25 21A0.25 0.25 0 0 1 10 20.75L10 20.25A0.25 0.25 0 0 1 10.25 20L10.75 20A0.25 0.25 0 0 0 11 19.75L11 19.25A0.25 0.25 0 0 1 11.25 19L11.75 19A0.25 0.25 0 0 0 12 18.75L12 16.25A0.25 0.25 0 0 1 12.25 16L12.75 16A0.25 0.25 0 0 1 13 16.25L13 16.75A0.25 0.25 0 0 0 13.25 17L13.75 17A0.25 0.25 0 0 0 14 16.75L14 16.25A0.25 0.25 0 0 0 13.75 16L13.25 16A0.25 0.25 0 0 1 13 15.75L13 15.25A0.25 0.25 0 0 0 12.75 15L12.25 15A0.25 0.25 0 0 0 12 15.25L12 15.75A0.25 0.25 0 0 1 11.75 16L11.25 16A0.25 0.25 0 0 0 11 16.25L11 16.75A0.25 0.25 0 0 1 10.75 17L10.25 17A0.25 0.25 0 0 0 10 17.25L10 17.75A0.25 0.25 0 0 1 9.75 18L9.25 18A0.25 0.25 0 0 0 9 18.25L9 18.75A0.25 0.25 0 0 1 8.75 19L8.25 19A0.25 0.25 0 0 0 8 19.25L8 19.75A0.25 0.25 0 0 0 8.25 20L8.75 20A0.25 0.25 0 0 1 9 20.25L9 20.75A0.25 0.25 0 0 0 9.25 21L9.75 21A0.25 0.25 0 0 1 10 21.25L10 21.75A0.25 0.25 0 0 0 10.25 22L12.75 22A0.25 0.25 0 0 1 13 22.25L13 22.75A0.25 0.25 0 0 0 13.25 23L13.75 23A0.25 0.25 0 0 1 14 23.25L14 23.75A0.25 0.25 0 0 1 13.75 24L12.25 24A0.25 0.25 0 0 0 12 24.25L12 24.75A0.25 0.25 0 0 0 12.25 25L13.75 25A0.25 0.25 0 0 0 14 24.75L14 24.25A0.25 0.25 0 0 1 14.25 24L14.75 24A0.25 0.25 0 0 1 15 24.25L15 24.75A0.25 0.25 0 0 0 15.25 25L15.75 25A0.25 0.25 0 0 0 16 24.75L16 24.25A0.25 0.25 0 0 0 15.75 24L15.25 24A0.25 0.25 0 0 1 15 23.75L15 23.25A0.25 0.25 0 0 1 15.25 23L15.75 23A0.25 0.25 0 0 0 16 22.75L16 21.25A0.25 0.25 0 0 1 16.25 21L16.75 21A0.25 0.25 0 0 1 17 21.25L17 21.75A0.25 0.25 0 0 0 17.25 22L17.75 22A0.25 0.25 0 0 0 18 21.75L18 21.25A0.25 0.25 0 0 0 17.75 21L17.25 21A0.25 0.25 0 0 1 17 20.75L17 19.25A0.25 0.25 0 0 1 17.25 19L18.75 19A0.25 0.25 0 0 0 19 18.75L19 18.25A0.25 0.25 0 0 1 19.25 18L19.75 18A0.25 0.25 0 0 1 20 18.25L20 18.75A0.25 0.25 0 0 0 20.25 19L23.75 19A0.25 0.25 0 0 0 24 18.75L24 17.25A0.25 0.25 0 0 1 24.25 17L24.75 17A0.25 0.25 0 0 1 25 17.25L25 19.75A0.25 0.25 0 0 0 25.25 20L26.75 20A0.25 0.25 0 0 0 27 19.75L27 19.25A0.25 0.25 0 0 0 26.75 19L26.25 19A0.25 0.25 0 0 1 26 18.75L26 18.25A0.25 0.25 0 0 1 26.25 18L26.75 18A0.25 0.25 0 0 0 27 17.75L27 17.25A0.25 0.25 0 0 0 26.75 17L25.25 17A0.25 0.25 0 0 1 25 16.75L25 16.25A0.25 0.25 0 0 0 24.75 16L24.25 16A0.25 0.25 0 0 0 24 16.25L24 16.75A0.25 0.25 0 0 1 23.75 17L23.25 17A0.25 0.25 0 0 1 23 16.75L23 15.25A0.25 0.25 0 0 0 22.75 15L22.25 15A0.25 0.25 0 0 0 22 15.25L22 16.75A0.25 0.25 0 0 1 21.75 17L21.25 17A0.25 0.25 0 0 1 21 16.75L21 16.25A0.25 0.25 0 0 0 20.75 16L20.25 16A0.25 0.25 0 0 1 20 15.75L20 14.25A0.25 0.25 0 0 0 19.75 14L18.25 14A0.25 0.25 0 0 0 18 14.25ZM5 15.25L5 15.75A0.25 0.25 0 0 0 5.25 16L6.75 16A0.25 0.25 0 0 1 7 16.25L7 16.75A0.25 0.25 0 0 0 7.25 17L7.75 17A0.25 0.25 0 0 0 8 16.75L8 16.25A0.25 0.25 0 0 0 7.75 16L7.25 16A0.25 0.25 0 0 1 7 15.75L7 15.25A0.25 0.25 0 0 0 6.75 15L5.25 15A0.25 0.25 0 0 0 5 15.25ZM20 17.25L20 17.75A0.25 0.25 0 0 0 20.25 18L20.75 18A0.25 0.25 0 0 0 21 17.75L21 17.25A0.25 0.25 0 0 0 20.75 17L20.25 17A0.25 0.25 0 0 0 20 17.25ZM22 17.25L22 17.75A0.25 0.25 0 0 0 22.25 18L22.75 18A0.25 0.25 0 0 0 23 17.75L23 17.25A0.25 0.25 0 0 0 22.75 17L22.25 17A0.25 0.25 0 0 0 22 17.25ZM10 18.25L10 18.75A0.25 0.25 0 0 1 9.75 19L9.25 19A0.25 0.25 0 0 0 9 19.25L9 19.75A0.25 0.25 0 0 0 9.25 20L9.75 20A0.25 0.25 0 0 0 10 19.75L10 19.25A0.25 0.25 0 0 1 10.25 19L10.75 19A0.25 0.25 0 0 0 11 18.75L11 18.25A0.25 0.25 0 0 0 10.75 18L10.25 18A0.25 0.25 0 0 0 10 18.25ZM15 20.25L15 20.75A0.25 0.25 0 0 0 15.25 21L15.75 21A0.25 0.25 0 0 0 16 20.75L16 20.25A0.25 0.25 0 0 0 15.75 20L15.25 20A0.25 0.25 0 0 0 15 20.25ZM13 21.25L13 21.75A0.25 0.25 0 0 0 13.25 22L13.75 22A0.25 0.25 0 0 1 14 22.25L14 22.75A0.25 0.25 0 0 0 14.25 23L14.75 23A0.25 0.25 0 0 0 15 22.75L15 22.25A0.25 0.25 0 0 0 14.75 22L14.25 22A0.25 0.25 0 0 1 14 21.75L14 21.25A0.25 0.25 0 0 0 13.75 21L13.25 21A0.25 0.25 0 0 0 13 21.25ZM19 21.25L19 21.75A0.25 0.25 0 0 0 19.25 22L19.75 22A0.25 0.25 0 0 0 20 21.75L20 21.25A0.25 0.25 0 0 0 19.75 21L19.25 21A0.25 0.25 0 0 0 19 21.25ZM21 21.25L21 23.75A0.25 0.25 0 0 0 21.25 24L23.75 24A0.25 0.25 0 0 0 24 23.75L24 21.25A0.25 0.25 0 0 0 23.75 21L21.25 21A0.25 0.25 0 0 0 21 21.25ZM22 22.25L22 22.75A0.25 0.25 0 0 0 22.25 23L22.75 23A0.25 0.25 0 0 0 23 22.75L23 22.25A0.25 0.25 0 0 0 22.75 22L22.25 22A0.25 0.25 0 0 0 22 22.25ZM10 23.25L10 23.75A0.25 0.25 0 0 1 9.75 24L9.25 24A0.25 0.25 0 0 0 9 24.25L9 24.75A0.25 0.25 0 0 0 9.25 25L9.75 25A0.25 0.25 0 0 0 10 24.75L10 24.25A0.25 0.25 0 0 1 10.25 24L10.75 24A0.25 0.25 0 0 0 11 23.75L11 23.25A0.25 0.25 0 0 0 10.75 23L10.25 23A0.25 0.25 0 0 0 10 23.25ZM21 26.25L21 28.75A0.25 0.25 0 0 0 21.25 29L24.75 29A0.25 0.25 0 0 0 25 28.75L25 28.25A0.25 0.25 0 0 1 25.25 28L25.75 28A0.25 0.25 0 0 1 26 28.25L26 28.75A0.25 0.25 0 0 0 26.25 29L26.75 29A0.25 0.25 0 0 0 27 28.75L27 28.25A0.25 0.25 0 0 1 27.25 28L27.75 28A0.25 0.25 0 0 0 28 27.75L28 26.25A0.25 0.25 0 0 0 27.75 26L26.25 26A0.25 0.25 0 0 0 26 26.25L26 26.75A0.25 0.25 0 0 1 25.75 27L25.25 27A0.25 0.25 0 0 1 25 26.75L25 26.25A0.25 0.25 0 0 0 24.75 26L21.25 26A0.25 0.25 0 0 0 21 26.25ZM22 27.25L22 27.75A0.25 0.25 0 0 0 22.25 28L23.75 28A0.25 0.25 0 0 0 24 27.75L24 27.25A0.25 0.25 0 0 0 23.75 27L22.25 27A0.25 0.25 0 0 0 22 27.25ZM26 27.25L26 27.75A0.25 0.25 0 0 0 26.25 28L26.75 28A0.25 0.25 0 0 0 27 27.75L27 27.25A0.25 0.25 0 0 0 26.75 27L26.25 27A0.25 0.25 0 0 0 26 27.25ZM9 28.25L9 28.75A0.25 0.25 0 0 0 9.25 29L10.75 29A0.25 0.25 0 0 0 11 28.75L11 28.25A0.25 0.25 0 0 0 10.75 28L9.25 28A0.25 0.25 0 0 0 9 28.25ZM0 0.25L0 6.75A0.25 0.25 0 0 0 0.25 7L6.75 7A0.25 0.25 0 0 0 7 6.75L7 0.25A0.25 0.25 0 0 0 6.75 0L0.25 0A0.25 0.25 0 0 0 0 0.25ZM1 1.25L1 5.75A0.25 0.25 0 0 0 1.25 6L5.75 6A0.25 0.25 0 0 0 6 5.75L6 1.25A0.25 0.25 0 0 0 5.75 1L1.25 1A0.25 0.25 0 0 0 1 1.25ZM2 2.25L2 4.75A0.25 0.25 0 0 0 2.25 5L4.75 5A0.25 0.25 0 0 0 5 4.75L5 2.25A0.25 0.25 0 0 0 4.75 2L2.25 2A0.25 0.25 0 0 0 2 2.25ZM22 0.25L22 6.75A0.25 0.25 0 0 0 22.25 7L28.75 7A0.25 0.25 0 0 0 29 6.75L29 0.25A0.25 0.25 0 0 0 28.75 0L22.25 0A0.25 0.25 0 0 0 22 0.25ZM23 1.25L23 5.75A0.25 0.25 0 0 0 23.25 6L27.75 6A0.25 0.25 0 0 0 28 5.75L28 1.25A0.25 0.25 0 0 0 27.75 1L23.25 1A0.25 0.25 0 0 0 23 1.25ZM24 2.25L24 4.75A0.25 0.25 0 0 0 24.25 5L26.75 5A0.25 0.25 0 0 0 27 4.75L27 2.25A0.25 0.25 0 0 0 26.75 2L24.25 2A0.25 0.25 0 0 0 24 2.25ZM0 22.25L0 28.75A0.25 0.25 0 0 0 0.25 29L6.75 29A0.25 0.25 0 0 0 7 28.75L7 22.25A0.25 0.25 0 0 0 6.75 22L0.25 22A0.25 0.25 0 0 0 0 22.25ZM1 23.25L1 27.75A0.25 0.25 0 0 0 1.25 28L5.75 28A0.25 0.25 0 0 0 6 27.75L6 23.25A0.25 0.25 0 0 0 5.75 23L1.25 23A0.25 0.25 0 0 0 1 23.25ZM2 24.25L2 26.75A0.25 0.25 0 0 0 2.25 27L4.75 27A0.25 0.25 0 0 0 5 26.75L5 24.25A0.25 0.25 0 0 0 4.75 24L2.25 24A0.25 0.25 0 0 0 2 24.25Z" fill="#000000"/></g></g></svg>
