<?xml version="1.0" encoding="UTF-8"?>
<svg xmlns="http://www.w3.org/2000/svg" version="1.1" width="100" height="100" viewBox="0 0 100 100"><rect x="0" y="0" width="100" height="100" fill="#ffffff"/><g transform="scale(3.448)"><g transform="translate(0,0)"><path fill-rule="evenodd" d="M8 0.25L8 2.75A0.25 0.25 0 0 0 8.25 3L8.75 3A0.25 0.25 0 0 1 9 3.25L9 4.75A0.25 0.25 0 0 1 8.75 5L8.25 5A0.25 0.25 0 0 0 8 5.25L8 8.75A0.25 0.25 0 0 1 7.75 9L7.25 9A0.25 0.25 0 0 1 7 8.75L7 8.25A0.25 0.25 0 0 0 6.75 8L6.25 8A0.25 0.25 0 0 0 6 8.25L6 8.75A0.25 0.25 0 0 1 5.75 9L5.25 9A0.25 0.25 0 0 1 5 8.75L5 8.25A0.25 0.25 0 0 0 4.75 8L2.25 8A0.25 0.25 0 0 0 2 8.25L2 8.75A0.25 0.25 0 0 0 2.25 9L4.75 9A0.25 0.25 0 0 1 5 9.25L5 10.75A0.25 0.25 0 0 0 5.25 11L6.75 11A0.25 0.25 0 0 0 7 10.75L7 10.25A0.25 0.25 0 0 1 7.25 10L8.75 10A0.25 0.25 0 0 1 9 10.25L9 11.75A0.25 0.25 0 0 0 9.25 12L12.75 12A0.25 0.25 0 0 1 13 12.25L13 12.75A0.25 0.25 0 0 1 12.75 13L12.25 13A0.25 0.25 0 0 0 12 13.25L12 13.75A0.25 0.25 0 0 1 11.75 14L11.25 14A0.25 0.25 0 0 0 11 14.25L11 14.75A0.25 0.25 0 0 1 10.75 15L10.25 15A0.25 0.25 0 0 1 10 14.75L10 14.25A0.25 0.25 0 0 0 9.75 14L9.25 14A0.25 0.25 0 0 1 9 13.75L9 13.25A0.25 0.25 0 0 0 8.75 13L8.25 13A0.25 0.25 0 0 0 8 13.25L8 13.75A0.25 0.25 0 0 1 7.75 14L6.25 14A0.25 0.25 0 0 0 6 14.25L6 14.75A0.25 0.25 0 0 1 5.75 15L5.25 15A0.25 0.25 0 0 0 5 15.25L5 15.75A0.25 0.25 0 0 0 5.25 16L5.75 16A0.25 0.25 0 0 1 6 16.25L6 16.75A0.25 0.25 0 0 1 5.75 17L4.25 17A0.25 0.25 0 0 1 4 16.75L4 14.25A0.25 0.25 0 0 0 3.75 14L3.25 14A0.25 0.25 0 0 1 3 13.75L3 13.25A0.25 0.25 0 0 0 2.75 13L2.25 13A0.25 0.25 0 0 1 2 12.75L2 12.25A0.25 0.25 0 0 0 1.75 12L1.25 12A0.25 0.25 0 0 1 1 11.75L1 9.25A0.25 0.25 0 0 0 0.75 9L0.25 9A0.25 0.25 0 0 0 0 9.25L0 11.75A0.25 0.25 0 0 0 0.25 12L0.75 12A0.25 0.25 0 0 1 1 12.25L1 12.75A0.25 0.25 0 0 1 0.75 13L0.25 13A0.25 0.25 0 0 0 0 13.25L0 13.75A0.25 0.25 0 0 0 0.25 14L0.75 14A0.25 0.25 0 0 1 1 14.25L1 14.75A0.25 0.25 0 0 1 0.75 15L0.25 15A0.25 0.25 0 0 0 0 15.25L0 15.75A0.25 0.25 0 0 0 0.25 16L0.75 16A0.25 0.25 0 0 0 1 15.75L1 15.25A0.25 0.25 0 0 1 1.25 15L2.75 15A0.25 0.25 0 0 1 3 15.25L3 15.75A0.25 0.25 0 0 1 2.75 16L2.25 16A0.25 0.25 0 0 0 2 16.25L2 16.75A0.25 0.25 0 0 1 1.75 17L0.25 17A0.25 0.25 0 0 0 0 17.25L0 20.75A0.25 0.25 0 0 0 0.25 21L0.75 21A0.25 0.25 0 0 0 1 20.75L1 18.25A0.25 0.25 0 0 1 1.25 18L1.75 18A0.25 0.25 0 0 1 2 18.25L2 20.75A0.25 0.25 0 0 0 2.25 21L3.75 21A0.25 0.25 0 0 0 4 20.75L4 20.25A0.25 0.25 0 0 0 3.75 20L3.25 20A0.25 0.25 0 0 1 3 19.75L3 18.25A0.25 0.25 0 0 1 3.25 18L3.75 18A0.25 0.25 0 0 1 4 18.25L4 18.75A0.25 0.25 0 0 0 4.25 19L4.75 19A0.25 0.25 0 0 1 5 19.25L5 20.75A0.25 0.25 0 0 0 5.25 21L6.75 21A0.25 0.25 0 0 0 7 20.75L7 20.25A0.25 0.25 0 0 0 6.75 20L6.25 20A0.25 0.25 0 0 1 6 19.75L6 19.25A0.25 0.25 0 0 1 6.25 19L6.75 19A0.25 0.25 0 0 0 7 18.75L7 18.25A0.25 0.25 0 0 1 7.25 18L8.75 18A0.25 0.25 0 0 1 9 18.25L9 18.75A0.25 0.25 0 0 0 9.25 19L10.75 19A0.25 0.25 0 0 1 11 19.25L11 19.75A0.25 0.25 0 0 0 11.25 20L11.75 20A0.25 0.25 0 0 0 12 19.75L12 19.25A0.25 0.25 0 0 1 12.25 19L12.75 19A0.25 0.25 0 0 1 13 19.25L13 20.75A0.25 0.25 0 0 1 12.75 21L12.25 21A0.25 0.25 0 0 0 12 21.25L12 21.75A0.25 0.25 0 0 0 12.25 22L12.75 22A0.25 0.25 0 0 1 13 22.25L13 22.75A0.25 0.25 0 0 1 12.75 23L12.25 23A0.25 0.25 0 0 0 12 23.25L12 23.75A0.25 0.25 0 0 1 11.75 24L10.25 24A0.25 0.25 0 0 1 10 23.75L10 23.25A0.25 0.25 0 0 0 9.75 23L9.25 23A0.25 0.25 0 0 0 9 23.25L9 23.75A0.25 0.25 0 0 1 8.75 24L8.25 24A0.25 0.25 0 0 0 8 24.25L8 26.75A0.25 0.25 0 0 0 8.25 27L9.75 27A0.25 0.25 0 0 1 10 27.25L10 27.75A0.25 0.25 0 0 1 9.75 28L9.25 28A0.25 0.25 0 0 0 9 28.25L9 28.75A0.25 0.25 0 0 0 9.25 29L9.75 29A0.25 0.25 0 0 0 10 28.75L10 28.25A0.25 0.25 0 0 1 10.25 28L10.75 28A0.25 0.25 0 0 1 11 28.25L11 28.75A0.25 0.25 0 0 0 11.25 29L12.75 29A0.25 0.25 0 0 0 13 28.75L13 28.25A0.25 0.25 0 0 1 13.25 28L13.75 28A0.25 0.25 0 0 1 14 28.25L14 28.75A0.25 0.25 0 0 0 14.25 29L15.75 29A0.25 0.25 0 0 0 16 28.75L16 26.25A0.25 0.25 0 0 1 16.25 26L16.75 26A0.25 0.25 0 0 1 17 26.25L17 26.75A0.25 0.25 0 0 0 17.25 27L17.75 27A0.25 0.25 0 0 1 18 27.25L18 27.75A0.25 0.25 0 0 1 17.75 28L17.25 28A0.25 0.25 0 0 0 17 28.25L17 28.75A0.25 0.25 0 0 0 17.25 29L18.75 29A0.25 0.25 0 0 0 19 28.75L19 27.25A0.25 0.25 0 0 0 18.75 27L18.25 27A0.25 0.25 0 0 1 18 26.75L18 26.25A0.25 0.25 0 0 1 18.25 26L20.75 26A0.25 0.25 0 0 1 21 26.25L21 27.75A0.25 0.25 0 0 0 21.25 28L21.75 28A0.25 0.25 0 0 1 22 28.25L22 28.75A0.25 0.25 0 0 0 22.25 29L24.75 29A0.25 0.25 0 0 0 25 28.75L25 28.25A0.25 0.25 0 0 1 25.25 28L25.75 28A0.25 0.25 0 0 1 26 28.25L26 28.75A0.25 0.25 0 0 0 26.25 29L26.75 29A0.25 0.25 0 0 0 27 28.75L27 28.25A0.25 0.25 0 0 1 27.25 28L27.75 28A0.25 0.25 0 0 0 28 27.75L28 26.25A0.25 0.25 0 0 0 27.75 26L27.25 26A0.25 0.25 0 0 0 27 26.25L27 27.75A0.25 0.25 0 0 1 26.75 28L26.25 28A0.25 0.25 0 0 1 26 27.75L26 25.25A0.25 0.25 0 0 1 26.25 25L27.75 25A0.25 0.25 0 0 0 28 24.75L28 24.25A0.25 0.25 0 0 0 27.75 24L26.25 24A0.25 0.25 0 0 1 26 23.75L26 23.25A0.25 0.25 0 0 1 26.25 23L27.75 23A0.25 0.25 0 0 0 28 22.75L28 22.25A0.25 0.25 0 0 1 28.25 22L28.75 22A0.25 0.25 0 0 0 29 21.75L29 21.25A0.25 0.25 0 0 0 28.75 21L28.25 21A0.25 0.25 0 0 0 28 21.25L28 21.75A0.25 0.25 0 0 1 27.75 22L25.25 22A0.25 0.25 0 0 1 25 21.75L25 20.25A0.25 0.25 0 0 1 25.25 20L25.75 20A0.25 0.25 0 0 1 26 20.25L26 20.75A0.25 0.25 0 0 0 26.25 21L26.75 21A0.25 0.25 0 0 0 27 20.75L27 20.25A0.25 0.25 0 0 1 27.25 20L27.75 20A0.25 0.25 0 0 0 28 19.75L28 19.25A0.25 0.25 0 0 0 27.75 19L27.25 19A0.25 0.25 0 0 0 27 19.25L27 19.75A0.25 0.25 0 0 1 26.75 20L26.25 20A0.25 0.25 0 0 1 26 19.75L26 19.25A0.25 0.25 0 0 0 25.75 19L25.25 19A0.25 0.25 0 0 1 25 18.75L25 17.25A0.25 0.25 0 0 1 25.25 17L26.75 17A0.25 0.25 0 0 1 27 17.25L27 17.75A0.25 0.25 0 0 0 27.25 18L28.75 18A0.25 0.25 0 0 0 29 17.75L29 17.25A0.25 0.25 0 0 0 28.75 17L28.25 17A0.25 0.25 0 0 1 28 16.75L28 16.25A0.25 0.25 0 0 0 27.75 16L25.25 16A0.25 0.25 0 0 1 25 15.75L25 15.25A0.25 0.25 0 0 0 24.75 15L23.25 15A0.25 0.25 0 0 0 23 15.25L23 16.75A0.25 0.25 0 0 1 22.75 17L22.25 17A0.25 0.25 0 0 1 22 16.75L22 16.25A0.25 0.25 0 0 0 21.75 16L21.25 16A0.25 0.25 0 0 1 21 15.75L21 15.25A0.25 0.25 0 0 1 21.25 15L21.75 15A0.25 0.25 0 0 0 22 14.75L22 14.25A0.25 0.25 0 0 1 22.25 14L22.75 14A0.25 0.25 0 0 0 23 13.75L23 13.25A0.25 0.25 0 0 1 23.25 13L23.75 13A0.25 0.25 0 0 1 24 13.25L24 13.75A0.25 0.25 0 0 0 24.25 14L25.75 14A0.25 0.25 0 0 1 26 14.25L26 14.75A0.25 0.25 0 0 0 26.25 15L26.75 15A0.25 0.25 0 0 0 27 14.75L27 14.25A0.25 0.25 0 0 1 27.25 14L28.75 14A0.25 0.25 0 0 0 29 13.75L29 13.25A0.25 0.25 0 0 0 28.75 13L27.25 13A0.25 0.25 0 0 1 27 12.75L27 12.25A0.25 0.25 0 0 0 26.75 12L25.25 12A0.25 0.25 0 0 0 25 12.25L25 12.75A0.25 0.25 0 0 1 24.75 13L24.25 13A0.25 0.25 0 0 1 24 12.75L24 12.25A0.25 0.25 0 0 0 23.75 12L23.25 12A0.25 0.25 0 0 0 23 12.25L23 12.75A0.25 0.25 0 0 1 22.75 13L22.25 13A0.25 0.25 0 0 1 22 12.75L22 11.25A0.25 0.25 0 0 0 21.75 11L21.25 11A0.25 0.25 0 0 1 21 10.75L21 10.25A0.25 0.25 0 0 0 20.75 10L20.25 10A0.25 0.25 0 0 0 20 10.25L20 10.75A0.25 0.25 0 0 0 20.25 11L20.75 11A0.25 0.25 0 0 1 21 11.25L21 12.75A0.25 0.25 0 0 1 20.75 13L19.25 13A0.25 0.25 0 0 0 19 13.25L19 13.75A0.25 0.25 0 0 0 19.25 14L19.75 14A0.25 0.25 0 0 1 20 14.25L20 14.75A0.25 0.25 0 0 1 19.75 15L19.25 15A0.25 0.25 0 0 0 19 15.25L19 15.75A0.25 0.25 0 0 1 18.75 16L17.25 16A0.25 0.25 0 0 0 17 16.25L17 19.75A0.25 0.25 0 0 1 16.75 20L16.25 20A0.25 0.25 0 0 0 16 20.25L16 20.75A0.25 0.25 0 0 1 15.75 21L15.25 21A0.25 0.25 0 0 1 15 20.75L15 19.25A0.25 0.25 0 0 1 15.25 19L15.75 19A0.25 0.25 0 0 0 16 18.75L16 17.25A0.25 0.25 0 0 0 15.75 17L15.25 17A0.25 0.25 0 0 0 15 17.25L15 17.75A0.25 0.25 0 0 1 14.75 18L12.25 18A0.25 0.25 0 0 1 12 17.75L12 17.25A0.25 0.25 0 0 1 12.25 17L12.75 17A0.25 0.25 0 0 0 13 16.75L13 16.25A0.25 0.25 0 0 1 13.25 16L13.75 16A0.25 0.25 0 0 0 14 15.75L14 15.25A0.25 0.25 0 0 1 14.25 15L14.75 15A0.25 0.25 0 0 1 15 15.25L15 15.75A0.25 0.25 0 0 0 15.25 16L15.75 16A0.25 0.25 0 0 0 16 15.75L16 15.25A0.25 0.25 0 0 1 16.25 15L16.75 15A0.25 0.25 0 0 0 17 14.75L17 14.25A0.25 0.25 0 0 0 16.75 14L16.25 14A0.25 0.25 0 0 1 16 13.75L16 13.25A0.25 0.25 0 0 1 16.25 13L17.75 13A0.25 0.25 0 0 0 18 12.75L18 11.25A0.25 0.25 0 0 1 18.25 11L18.75 11A0.25 0.25 0 0 0 19 10.75L19 10.25A0.25 0.25 0 0 0 18.75 10L17.25 10A0.25 0.25 0 0 1 17 9.75L17 9.25A0.25 0.25 0 0 0 16.75 9L16.25 9A0.25 0.25 0 0 0 16 9.25L16 9.75A0.25 0.25 0 0 0 16.25 10L16.75 10A0.25 0.25 0 0 1 17 10.25L17 10.75A0.25 0.25 0 0 1 16.75 11L16.25 11A0.25 0.25 0 0 0 16 11.25L16 12.75A0.25 0.25 0 0 1 15.75 13L15.25 13A0.25 0.25 0 0 1 15 12.75L15 12.25A0.25 0.25 0 0 0 14.75 12L14.25 12A0.25 0.25 0 0 1 14 11.75L14 10.25A0.25 0.25 0 0 1 14.25 10L14.75 10A0.25 0.25 0 0 0 15 9.75L15 9.25A0.25 0.25 0 0 0 14.75 9L14.25 9A0.25 0.25 0 0 1 14 8.75L14 8.25A0.25 0.25 0 0 1 14.25 8L14.75 8A0.25 0.25 0 0 0 15 7.75L15 6.25A0.25 0.25 0 0 1 15.25 6L15.75 6A0.25 0.25 0 0 1 16 6.25L16 7.75A0.25 0.25 0 0 0 16.25 8L16.75 8A0.25 0.25 0 0 0 17 7.75L17 6.25A0.25 0.25 0 0 0 16.75 6L16.25 6A0.25 0.25 0 0 1 16 5.75L16 5.25A0.25 0.25 0 0 1 16.25 5L16.75 5A0.25 0.25 0 0 0 17 4.75L17 4.25A0.25 0.25 0 0 1 17.25 4L17.75 4A0.25 0.25 0 0 1 18 4.25L18 6.75A0.25 0.25 0 0 0 18.25 7L18.75 7A0.25 0.25 0 0 1 19 7.25L19 7.75A0.25 0.25 0 0 1 18.75 8L18.25 8A0.25 0.25 0 0 0 18 8.25L18 8.75A0.25 0.25 0 0 0 18.25 9L18.75 9A0.25 0.25 0 0 0 19 8.75L19 8.25A0.25 0.25 0 0 1 19.25 8L19.75 8A0.25 0.25 0 0 1 20 8.25L20 8.75A0.25 0.25 0 0 0 20.25 9L21.75 9A0.25 0.25 0 0 1 22 9.25L22 9.75A0.25 0.25 0 0 0 22.25 10L22.75 10A0.25 0.25 0 0 1 23 10.25L23 10.75A0.25 0.25 0 0 0 23.25 11L24.75 11A0.25 0.25 0 0 0 25 10.75L25 10.25A0.25 0.25 0 0 1 25.25 10L25.75 10A0.25 0.25 0 0 0 26 9.75L26 9.25A0.25 0.25 0 0 1 26.25 9L26.75 9A0.25 0.25 0 0 1 27 9.25L27 9.75A0.25 0.25 0 0 0 27.25 10L28.75 10A0.25 0.25 0 0 0 29 9.75L29 8.25A0.25 0.25 0 0 0 28.75 8L26.25 8A0.25 0.25 0 0 0 26 8.25L26 8.75A0.25 0.25 0 0 1 25.75 9L24.25 9A0.25 0.25 0 0 1 24 8.75L24 8.25A0.25 0.25 0 0 0 23.75 8L20.25 8A0.25 0.25 0 0 1 20 7.75L20 7.25A0.25 0.25 0 0 1 20.25 7L20.75 7A0.25 0.25 0 0 0 21 6.75L21 6.25A0.25 0.25 0 0 0 20.75 6L20.25 6A0.25 0.25 0 0 0 20 6.25L20 6.75A0.25 0.25 0 0 1 19.75 7L19.25 7A0.25 0.25 0 0 1 19 6.75L19 5.25A0.25 0.25 0 0 1 19.25 5L19.75 5A0.25 0.25 0 0 0 20 4.75L20 4.25A0.25 0.25 0 0 1 20.25 4L20.75 4A0.25 0.25 0 0 0 21 3.75L21 2.25A0.25 0.25 0 0 0 20.75 2L20.25 2A0.25 0.25 0 0 1 20 1.75L20 1.25A0.25 0.25 0 0 1 20.25 1L20.75 1A0.25 0.25 0 0 0 21 0.75L21 0.25A0.25 0.25 0 0 0 20.75 0L20.25 0A0.25 0.25 0 0 0 20 0.25L20 0.75A0.25 0.25 0 0 1 19.75 1L19.25 1A0.25 0.25 0 0 1 19 0.75L19 0.25A0.25 0.25 0 0 0 18.75 0L18.25 0A0.25 0.25 0 0 0 18 0.25L18 0.75A0.25 0.25 0 0 1 17.75 1L17.25 1A0.25 0.25 0 0 1 17 0.75L17 0.25A0.25 0.25 0 0 0 16.75 0L16.25 0A0.25 0.25 0 0 0 16 0.25L16 0.75A0.25 0.25 0 0 1 15.75 1L14.25 1A0.25 0.25 0 0 1 14 0.75L14 0.25A0.25 0.25 0 0 0 13.75 0L12.25 0A0.25 0.25 0 0 0 12 0.25L12 0.75A0.25 0.25 0 0 1 11.75 1L10.25 1A0.25 0.25 0 0 0 10 1.25L10 1.75A0.25 0.25 0 0 1 9.75 2L9.25 2A0.25 0.25 0 0 1 9 1.75L9 0.25A0.25 0.25 0 0 0 8.75 0L8.25 0A0.25 0.25 0 0 0 8 0.25ZM12 1.25L12 1.75A0.25 0.25 0 0 1 11.75 2L11.25 2A0.25 0.25 0 0 0 11 2.25L11 2.75A0.25 0.25 0 0 1 10.75 3L10.25 3A0.25 0.25 0 0 0 10 3.25L10 4.75A0.25 0.25 0 0 1 9.75 5L9.25 5A0.25 0.25 0 0 0 9 5.25L9 6.75A0.25 0.25 0 0 0 9.25 7L9.75 7A0.25 0.25 0 0 0 10 6.75L10 5.25A0.25 0.25 0 0 1 10.25 5L10.75 5A0.25 0.25 0 0 1 11 5.25L11 6.75A0.25 0.25 0 0 0 11.25 7L11.75 7A0.25 0.25 0 0 0 12 6.75L12 5.25A0.25 0.25 0 0 1 12.25 5L12.75 5A0.25 0.25 0 0 0 13 4.75L13 3.25A0.25 0.25 0 0 1 13.25 3L15.75 3A0.25 0.25 0 0 1 16 3.25L16 3.75A0.25 0.25 0 0 0 16.25 4L16.75 4A0.25 0.25 0 0 0 17 3.75L17 3.25A0.25 0.25 0 0 1 17.25 3L17.75 3A0.25 0.25 0 0 1 18 3.25L18 3.75A0.25 0.25 0 0 0 18.25 4L18.75 4A0.25 0.25 0 0 0 19 3.75L19 3.25A0.25 0.25 0 0 0 18.75 3L18.25 3A0.25 0.25 0 0 1 18 2.75L18 2.25A0.25 0.25 0 0 0 17.75 2L14.25 2A0.25 0.25 0 0 1 14 1.75L14 1.25A0.25 0.25 0 0 0 13.75 1L12.25 1A0.25 0.25 0 0 0 12 1.25ZM11 3.25L11 4.75A0.25 0.25 0 0 0 11.25 5L11.75 5A0.25 0.25 0 0 0 12 4.75L12 3.25A0.25 0.25 0 0 0 11.75 3L11.25 3A0.25 0.25 0 0 0 11 3.25ZM14 4.25L14 4.75A0.25 0.25 0 0 0 14.25 5L14.75 5A0.25 0.25 0 0 0 15 4.75L15 4.25A0.25 0.25 0 0 0 14.75 4L14.25 4A0.25 0.25 0 0 0 14 4.25ZM13 6.25L13 7.75A0.25 0.25 0 0 0 13.25 8L13.75 8A0.25 0.25 0 0 0 14 7.75L14 6.25A0.25 0.25 0 0 0 13.75 6L13.25 6A0.25 0.25 0 0 0 13 6.25ZM9 8.25L9 9.75A0.25 0.25 0 0 0 9.25 10L10.75 10A0.25 0.25 0 0 1 11 10.25L11 10.75A0.25 0.25 0 0 0 11.25 11L11.75 11A0.25 0.25 0 0 0 12 10.75L12 10.25A0.25 0.25 0 0 0 11.75 10L11.25 10A0.25 0.25 0 0 1 11 9.75L11 9.25A0.25 0.25 0 0 1 11.25 9L11.75 9A0.25 0.25 0 0 0 12 8.75L12 8.25A0.25 0.25 0 0 0 11.75 8L9.25 8A0.25 0.25 0 0 0 9 8.25ZM6 9.25L6 9.75A0.25 0.25 0 0 0 6.25 10L6.75 10A0.25 0.25 0 0 0 7 9.75L7 9.25A0.25 0.25 0 0 0 6.75 9L6.25 9A0.25 0.25 0 0 0 6 9.25ZM13 9.25L13 9.75A0.25 0.25 0 0 0 13.25 10L13.75 10A0.25 0.25 0 0 0 14 9.75L14 9.25A0.25 0.25 0 0 0 13.75 9L13.25 9A0.25 0.25 0 0 0 13 9.25ZM23 9.25L23 9.75A0.25 0.25 0 0 0 23.25 10L23.75 10A0.25 0.25 0 0 0 24 9.75L24 9.25A0.25 0.25 0 0 0 23.75 9L23.25 9A0.25 0.25 0 0 0 23 9.25ZM4 12.25L4 12.75A0.25 0.25 0 0 0 4.25 13L6.75 13A0.25 0.25 0 0 0 7 12.75L7 12.25A0.25 0.25 0 0 0 6.75 12L4.25 12A0.25 0.25 0 0 0 4 12.25ZM13 13.25L13 13.75A0.25 0.25 0 0 1 12.75 14L12.25 14A0.25 0.25 0 0 0 12 14.25L12 15.75A0.25 0.25 0 0 0 12.25 16L12.75 16A0.25 0.25 0 0 0 13 15.75L13 15.25A0.25 0.25 0 0 1 13.25 15L13.75 15A0.25 0.25 0 0 0 14 14.75L14 13.25A0.25 0.25 0 0 0 13.75 13L13.25 13A0.25 0.25 0 0 0 13 13.25ZM21 13.25L21 13.75A0.25 0.25 0 0 0 21.25 14L21.75 14A0.25 0.25 0 0 0 22 13.75L22 13.25A0.25 0.25 0 0 0 21.75 13L21.25 13A0.25 0.25 0 0 0 21 13.25ZM26 13.25L26 13.75A0.25 0.25 0 0 0 26.25 14L26.75 14A0.25 0.25 0 0 0 27 13.75L27 13.25A0.25 0.25 0 0 0 26.75 13L26.25 13A0.25 0.25 0 0 0 26 13.25ZM8 14.25L8 14.75A0.25 0.25 0 0 1 7.75 15L6.25 15A0.25 0.25 0 0 0 6 15.25L6 15.75A0.25 0.25 0 0 0 6.25 16L7.75 16A0.25 0.25 0 0 0 8 15.75L8 15.25A0.25 0.25 0 0 1 8.25 15L8.75 15A0.25 0.25 0 0 1 9 15.25L9 15.75A0.25 0.25 0 0 0 9.25 16L9.75 16A0.25 0.25 0 0 1 10 16.25L10 16.75A0.25 0.25 0 0 1 9.75 17L9.25 17A0.25 0.25 0 0 0 9 17.25L9 17.75A0.25 0.25 0 0 0 9.25 18L10.75 18A0.25 0.25 0 0 0 11 17.75L11 16.25A0.25 0.25 0 0 0 10.75 16L10.25 16A0.25 0.25 0 0 1 10 15.75L10 15.25A0.25 0.25 0 0 0 9.75 15L9.25 15A0.25 0.25 0 0 1 9 14.75L9 14.25A0.25 0.25 0 0 0 8.75 14L8.25 14A0.25 0.25 0 0 0 8 14.25ZM15 14.25L15 14.75A0.25 0.25 0 0 0 15.25 15L15.75 15A0.25 0.25 0 0 0 16 14.75L16 14.25A0.25 0.25 0 0 0 15.75 14L15.25 14A0.25 0.25 0 0 0 15 14.25ZM19 16.25L19 16.75A0.25 0.25 0 0 1 18.75 17L18.25 17A0.25 0.25 0 0 0 18 17.25L18 18.75A0.25 0.25 0 0 0 18.25 19L18.75 19A0.25 0.25 0 0 0 19 18.75L19 18.25A0.25 0.25 0 0 1 19.25 18L19.75 18A0.25 0.25 0 0 1 20 18.25L20 18.75A0.25 0.25 0 0 0 20.25 19L20.75 19A0.25 0.25 0 0 1 21 19.25L21 19.75A0.25 0.25 0 0 0 21.25 20L21.75 20A0.25 0.25 0 0 0 22 19.75L22 19.25A0.25 0.25 0 0 1 22.25 19L22.75 19A0.25 0.25 0 0 0 23 18.75L23 18.25A0.25 0.25 0 0 1 23.25 18L23.75 18A0.25 0.25 0 0 0 24 17.75L24 17.25A0.25 0.25 0 0 1 24.25 17L24.75 17A0.25 0.25 0 0 0 25 16.75L25 16.25A0.25 0.25 0 0 0 24.75 16L24.25 16A0.25 0.25 0 0 0 24 16.25L24 16.75A0.25 0.25 0 0 1 23.75 17L23.25 17A0.25 0.25 0 0 0 23 17.25L23 17.75A0.25 0.25 0 0 1 22.75 18L22.25 18A0.25 0.25 0 0 1 22 17.75L22 17.25A0.25 0.25 0 0 0 21.75 17L21.25 17A0.25 0.25 0 0 1 21 16.75L21 16.25A0.25 0.25 0 0 0 20.75 16L19.25 16A0.25 0.25 0 0 0 19 16.25ZM2 17.25L2 17.75A0.25 0.25 0 0 0 2.25 18L2.75 18A0.25 0.25 0 0 0 3 17.75L3 17.25A0.25 0.25 0 0 0 2.75 17L2.25 17A0.25 0.25 0 0 0 2 17.25ZM6 17.25L6 17.75A0.25 0.25 0 0 0 6.25 18L6.75 18A0.25 0.25 0 0 0 7 17.75L7 17.25A0.25 0.25 0 0 0 6.75 17L6.25 17A0.25 0.25 0 0 0 6 17.25ZM20 17.25L20 17.75A0.25 0.25 0 0 0 20.25 18L20.75 18A0.25 0.25 0 0 1 21 18.25L21 18.75A0.25 0.25 0 0 0 21.25 19L21.75 19A0.25 0.25 0 0 0 22 18.75L22 18.25A0.25 0.25 0 0 0 21.75 18L21.25 18A0.25 0.25 0 0 1 21 17.75L21 17.25A0.25 0.25 0 0 0 20.75 17L20.25 17A0.25 0.25 0 0 0 20 17.25ZM18 20.25L18 20.75A0.25 0.25 0 0 0 18.25 21L18.75 21A0.25 0.25 0 0 0 19 20.75L19 20.25A0.25 0.25 0 0 0 18.75 20L18.25 20A0.25 0.25 0 0 0 18 20.25ZM8 21.25L8 21.75A0.25 0.25 0 0 0 8.25 22L10.75 22A0.25 0.25 0 0 0 11 21.75L11 21.25A0.25 0.25 0 0 0 10.75 21L8.25 21A0.25 0.25 0 0 0 8 21.25ZM21 21.25L21 23.75A0.25 0.25 0 0 0 21.25 24L23.75 24A0.25 0.25 0 0 0 24 23.75L24 21.25A0.25 0.25 0 0 0 23.75 21L21.25 21A0.25 0.25 0 0 0 21 21.25ZM15 22.25L15 22.75A0.25 0.25 0 0 0 15.25 23L16.75 23A0.25 0.25 0 0 0 17 22.75L17 22.25A0.25 0.25 0 0 0 16.75 22L15.25 22A0.25 0.25 0 0 0 15 22.25ZM18 22.25L18 22.75A0.25 0.25 0 0 0 18.25 23L18.75 23A0.25 0.25 0 0 1 19 23.25L19 24.75A0.25 0.25 0 0 0 19.25 25L19.75 25A0.25 0.25 0 0 0 20 24.75L20 23.25A0.25 0.25 0 0 0 19.75 23L19.25 23A0.25 0.25 0 0 1 19 22.75L19 22.25A0.25 0.25 0 0 0 18.75 22L18.25 22A0.25 0.25 0 0 0 18 22.25ZM22 22.25L22 22.75A0.25 0.25 0 0 0 22.25 23L22.75 23A0.25 0.25 0 0 0 23 22.75L23 22.25A0.25 0.25 0 0 0 22.75 22L22.25 22A0.25 0.25 0 0 0 22 22.25ZM13 23.25L13 24.75A0.25 0.25 0 0 0 13.25 25L13.75 25A0.25 0.25 0 0 0 14 24.75L14 23.25A0.25 0.25 0 0 0 13.75 23L13.25 23A0.25 0.25 0 0 0 13 23.25ZM9 24.25L9 25.75A0.25 0.25 0 0 0 9.25 26L9.75 26A0.25 0.25 0 0 1 10 26.25L10 26.75A0.25 0.25 0 0 0 10.25 27L10.75 27A0.25 0.25 0 0 0 11 26.75L11 25.25A0.25 0.25 0 0 0 10.75 25L10.25 25A0.25 0.25 0 0 1 10 24.75L10 24.25A0.25 0.25 0 0 0 9.75 24L9.25 24A0.25 0.25 0 0 0 9 24.25ZM15 24.25L15 24.75A0.25 0.25 0 0 0 15.25 25L17.75 25A0.25 0.25 0 0 0 18 24.75L18 24.25A0.25 0.25 0 0 0 17.75 24L15.25 24A0.25 0.25 0 0 0 15 24.25ZM25 24.25L25 24.75A0.25 0.25 0 0 1 24.75 25L24.25 25A0.25 0.25 0 0 0 24 25.25L24 25.75A0.25 0.25 0 0 1 23.75 26L23.25 26A0.25 0.25 0 0 1 23 25.75L23 25.25A0.25 0.25 0 0 0 22.75 25L21.25 25A0.25 0.25 0 0 0 21 25.25L21 25.75A0.25 0.25 0 0 0 21.25 26L22.75 26A0.25 0.25 0 0 1 23 26.25L23 26.75A0.25 0.25 0 0 1 22.75 27L22.25 27A0.25 0.25 0 0 0 22 27.25L22 27.75A0.25 0.25 0 0 0 22.25 28L24.75 28A0.25 0.25 0 0 0 25 27.75L25 27.25A0.25 0.25 0 0 0 24.75 27L24.25 27A0.25 0.25 0 0 1 24 26.75L24 26.25A0.25 0.25 0 0 1 24.25 26L24.75 26A0.25 0.25 0 0 0 25 25.75L25 25.25A0.25 0.25 0 0 1 25.25 25L25.75 25A0.25 0.25 0 0 0 26 24.75L26 24.25A0.25 0.25 0 0 0 25.75 24L25.25 24A0.25 0.25 0 0 0 25 24.25ZM12 26.25L12 27.75A0.25 0.25 0 0 0 12.25 28L12.75 28A0.25 0.25 0 0 0 13 27.75L13 26.25A0.25 0.25 0 0 0 12.75 26L12.25 26A0.25 0.25 0 0 0 12 26.25ZM14 27.25L14 27.75A0.25 0.25 0 0 0 14.25 28L14.75 28A0.25 0.25 0 0 0 15 27.75L15 27.25A0.25 0.25 0 0 0 14.75 27L14.25 27A0.25 0.25 0 0 0 14 27.25ZM0 0.25L0 6.75A0.25 0.25 0 0 0 0.25 7L6.75 7A0.25 0.25 0 0 0 7 6.75L7 0.25A0.25 0.25 0 0 0 6.75 0L0.25 0A0.25 0.25 0 0 0 0 0.25ZM1 1.25L1 5.75A0.25 0.25 0 0 0 1.25 6L5.75 6A0.25 0.25 0 0 0 6 5.75L6 1.25A0.25 0.25 0 0 0 5.75 1L1.25 1A0.25 0.25 0 0 0 1 1.25ZM2 2.25L2 4.75A0.25 0.25 0 0 0 2.25 5L4.75 5A0.25 0.25 0 0 0 5 4.75L5 2.25A0.25 0.25 0 0 0 4.75 2L2.25 2A0.25 0.25 0 0 0 2 2.25ZM22 0.25L22 6.75A0.25 0.25 0 0 0 22.25 7L28.75 7A0.25 0.25 0 0 0 29 6.75L29 0.25A0.25 0.25 0 0 0 28.75 0L22.25 0A0.25 0.25 0 0 0 22 0.25ZM23 1.25L23 5.75A0.25 0.25 0 0 0 23.25 6L27.75 6A0.25 0.25 0 0 0 28 5.75L28 1.25A0.25 0.25 0 0 0 27.75 1L23.25 1A0.25 0.25 0 0 0 23 1.25ZM24 2.25L24 4.75A0.25 0.25 0 0 0 24.25 5L26.75 5A0.25 0.25 0 0 0 27 4.75L27 2.25A0.25 0.25 0 0 0 26.75 2L24.25 2A0.25 0.25 0 0 0 24 2.25ZM0 22.25L0 28.75A0.25 0.25 0 0 0 0.25 29L6.75 29A0.25 0.25 0 0 0 7 28.75L7 22.25A0.25 0.25 0 0 0 6.75 22L0.25 22A0.25 0.25 0 0 0 0 22.25ZM1 23.25L1 27.75A0.25 0.25 0 0 0 1.25 28L5.75 28A0.25 0.25 0 0 0 6 27.75L6 23.25A0.25 0.25 0 0 0 5.75 23L1.25 23A0.25 0.25 0 0 0 1 23.25ZM2 24.25L2 26.75A0.25 0.25 0 0 0 2.25 27L4.75 27A0.25 0.25 0 0 0 5 26.75L5 24.25A0.25 0.25 0 0 0 4.75 24L2.25 24A0.25 0.25 0 0 0 2 24.25Z" fill="#000000"/></g></g></svg>
