<?xml version="1.0" encoding="UTF-8"?>
<svg xmlns="http://www.w3.org/2000/svg" version="1.1" width="100" height="100" viewBox="0 0 100 100"><rect x="0" y="0" width="100" height="100" fill="#ffffff"/><g transform="scale(3.448)"><g transform="translate(0,0)"><path fill-rule="evenodd" d="M8 0.25L8 2.75A0.25 0.25 0 0 0 8.25 3L8.75 3A0.25 0.25 0 0 1 9 3.25L9 3.75A0.25 0.25 0 0 0 9.25 4L9.75 4A0.25 0.25 0 0 1 10 4.25L10 4.75A0.25 0.25 0 0 1 9.75 5L8.25 5A0.25 0.25 0 0 0 8 5.25L8 8.75A0.25 0.25 0 0 0 8.25 9L8.75 9A0.25 0.25 0 0 1 9 9.25L9 9.75A0.25 0.25 0 0 0 9.25 10L10.75 10A0.25 0.25 0 0 1 11 10.25L11 10.75A0.25 0.25 0 0 1 10.75 11L10.25 11A0.25 0.25 0 0 0 10 11.25L10 11.75A0.25 0.25 0 0 0 10.25 12L10.75 12A0.25 0.25 0 0 1 11 12.25L11 13.75A0.25 0.25 0 0 0 11.25 14L12.75 14A0.25 0.25 0 0 1 13 14.25L13 14.75A0.25 0.25 0 0 1 12.75 15L12.25 15A0.25 0.25 0 0 0 12 15.25L12 15.75A0.25 0.25 0 0 0 12.25 16L12.75 16A0.25 0.25 0 0 0 13 15.75L13 15.25A0.25 0.25 0 0 1 13.25 15L13.75 15A0.25 0.25 0 0 0 14 14.75L14 14.25A0.25 0.25 0 0 1 14.25 14L14.75 14A0.25 0.25 0 0 0 15 13.75L15 13.25A0.25 0.25 0 0 1 15.25 13L15.75 13A0.25 0.25 0 0 1 16 13.25L16 16.75A0.25 0.25 0 0 0 16.25 17L17.75 17A0.25 0.25 0 0 0 18 16.75L18 16.25A0.25 0.25 0 0 0 17.75 16L17.25 16A0.25 0.25 0 0 1 17 15.75L17 14.25A0.25 0.25 0 0 1 17.25 14L17.75 14A0.25 0.25 0 0 1 18 14.25L18 14.75A0.25 0.25 0 0 0 18.25 15L18.75 15A0.25 0.25 0 0 0 19 14.75L19 14.25A0.25 0.25 0 0 1 19.25 14L19.75 14A0.25 0.25 0 0 1 20 14.25L20 15.75A0.25 0.25 0 0 0 20.25 16L20.75 16A0.25 0.25 0 0 0 21 15.75L21 15.25A0.25 0.25 0 0 1 21.25 15L21.75 15A0.25 0.25 0 0 0 22 14.75L22 14.25A0.25 0.25 0 0 1 22.25 14L22.75 14A0.25 0.25 0 0 0 23 13.75L23 13.25A0.25 0.25 0 0 1 23.25 13L23.75 13A0.25 0.25 0 0 1 24 13.25L24 14.75A0.25 0.25 0 0 0 24.25 15L25.75 15A0.25 0.25 0 0 0 26 14.75L26 14.25A0.25 0.25 0 0 1 26.25 14L26.75 14A0.25 0.25 0 0 1 27 14.25L27 15.75A0.25 0.25 0 0 1 26.75 16L25.25 16A0.25 0.25 0 0 0 25 16.25L25 16.75A0.25 0.25 0 0 1 24.75 17L24.25 17A0.25 0.25 0 0 1 24 16.75L24 16.25A0.25 0.25 0 0 0 23.75 16L23.25 16A0.25 0.25 0 0 0 23 16.25L23 16.75A0.25 0.25 0 0 1 22.75 17L20.25 17A0.25 0.25 0 0 0 20 17.25L20 17.75A0.25 0.25 0 0 1 19.75 18L16.25 18A0.25 0.25 0 0 0 16 18.25L16 20.75A0.25 0.25 0 0 1 15.75 21L12.25 21A0.25 0.25 0 0 1 12 20.75L12 20.25A0.25 0.25 0 0 0 11.75 20L10.25 20A0.25 0.25 0 0 0 10 20.25L10 20.75A0.25 0.25 0 0 0 10.25 21L10.75 21A0.25 0.25 0 0 1 11 21.25L11 21.75A0.25 0.25 0 0 1 10.75 22L9.25 22A0.25 0.25 0 0 1 9 21.75L9 20.25A0.25 0.25 0 0 0 8.75 20L8.25 20A0.25 0.25 0 0 0 8 20.25L8 21.75A0.25 0.25 0 0 0 8.25 22L8.75 22A0.25 0.25 0 0 1 9 22.25L9 22.75A0.25 0.25 0 0 0 9.25 23L10.75 23A0.25 0.25 0 0 1 11 23.25L11 24.75A0.25 0.25 0 0 0 11.25 25L11.75 25A0.25 0.25 0 0 1 12 25.25L12 25.75A0.25 0.25 0 0 1 11.75 26L11.25 26A0.25 0.25 0 0 0 11 26.25L11 26.75A0.25 0.25 0 0 1 10.75 27L10.25 27A0.25 0.25 0 0 1 10 26.75L10 26.25A0.25 0.25 0 0 0 9.75 26L9.25 26A0.25 0.25 0 0 1 9 25.75L9 24.25A0.25 0.25 0 0 0 8.75 24L8.25 24A0.25 0.25 0 0 0 8 24.25L8 26.75A0.25 0.25 0 0 0 8.25 27L8.75 27A0.25 0.25 0 0 1 9 27.25L9 27.75A0.25 0.25 0 0 0 9.25 28L11.75 28A0.25 0.25 0 0 0 12 27.75L12 27.25A0.25 0.25 0 0 1 12.25 27L12.75 27A0.25 0.25 0 0 1 13 27.25L13 28.75A0.25 0.25 0 0 0 13.25 29L14.75 29A0.25 0.25 0 0 0 15 28.75L15 28.25A0.25 0.25 0 0 1 15.25 28L15.75 28A0.25 0.25 0 0 1 16 28.25L16 28.75A0.25 0.25 0 0 0 16.25 29L17.75 29A0.25 0.25 0 0 0 18 28.75L18 28.25A0.25 0.25 0 0 1 18.25 28L18.75 28A0.25 0.25 0 0 0 19 27.75L19 27.25A0.25 0.25 0 0 1 19.25 27L19.75 27A0.25 0.25 0 0 0 20 26.75L20 26.25A0.25 0.25 0 0 1 20.25 26L21.75 26A0.25 0.25 0 0 1 22 26.25L22 26.75A0.25 0.25 0 0 1 21.75 27L21.25 27A0.25 0.25 0 0 0 21 27.25L21 27.75A0.25 0.25 0 0 0 21.25 28L21.75 28A0.25 0.25 0 0 0 22 27.75L22 27.25A0.25 0.25 0 0 1 22.25 27L22.75 27A0.25 0.25 0 0 1 23 27.25L23 28.75A0.25 0.25 0 0 0 23.25 29L26.75 29A0.25 0.25 0 0 0 27 28.75L27 28.25A0.25 0.25 0 0 1 27.25 28L27.75 28A0.25 0.25 0 0 0 28 27.75L28 26.25A0.25 0.25 0 0 0 27.75 26L26.25 26A0.25 0.25 0 0 1 26 25.75L26 25.25A0.25 0.25 0 0 1 26.25 25L26.75 25A0.25 0.25 0 0 0 27 24.75L27 24.25A0.25 0.25 0 0 0 26.75 24L25.25 24A0.25 0.25 0 0 1 25 23.75L25 23.25A0.25 0.25 0 0 1 25.25 23L25.75 23A0.25 0.25 0 0 0 26 22.75L26 21.25A0.25 0.25 0 0 1 26.25 21L26.75 21A0.25 0.25 0 0 1 27 21.25L27 21.75A0.25 0.25 0 0 0 27.25 22L28.75 22A0.25 0.25 0 0 0 29 21.75L29 21.25A0.25 0.25 0 0 0 28.75 21L27.25 21A0.25 0.25 0 0 1 27 20.75L27 20.25A0.25 0.25 0 0 1 27.25 20L27.75 20A0.25 0.25 0 0 0 28 19.75L28 18.25A0.25 0.25 0 0 1 28.25 18L28.75 18A0.25 0.25 0 0 0 29 17.75L29 17.25A0.25 0.25 0 0 0 28.75 17L28.25 17A0.25 0.25 0 0 0 28 17.25L28 17.75A0.25 0.25 0 0 1 27.75 18L26.25 18A0.25 0.25 0 0 1 26 17.75L26 17.25A0.25 0.25 0 0 1 26.25 17L26.75 17A0.25 0.25 0 0 0 27 16.75L27 16.25A0.25 0.25 0 0 1 27.25 16L27.75 16A0.25 0.25 0 0 0 28 15.75L28 14.25A0.25 0.25 0 0 1 28.25 14L28.75 14A0.25 0.25 0 0 0 29 13.75L29 13.25A0.25 0.25 0 0 0 28.75 13L28.25 13A0.25 0.25 0 0 0 28 13.25L28 13.75A0.25 0.25 0 0 1 27.75 14L27.25 14A0.25 0.25 0 0 1 27 13.75L27 12.25A0.25 0.25 0 0 0 26.75 12L25.25 12A0.25 0.25 0 0 1 25 11.75L25 11.25A0.25 0.25 0 0 1 25.25 11L25.75 11A0.25 0.25 0 0 0 26 10.75L26 9.25A0.25 0.25 0 0 1 26.25 9L27.75 9A0.25 0.25 0 0 1 28 9.25L28 9.75A0.25 0.25 0 0 1 27.75 10L27.25 10A0.25 0.25 0 0 0 27 10.25L27 10.75A0.25 0.25 0 0 0 27.25 11L27.75 11A0.25 0.25 0 0 1 28 11.25L28 11.75A0.25 0.25 0 0 0 28.25 12L28.75 12A0.25 0.25 0 0 0 29 11.75L29 11.25A0.25 0.25 0 0 0 28.75 11L28.25 11A0.25 0.25 0 0 1 28 10.75L28 10.25A0.25 0.25 0 0 1 28.25 10L28.75 10A0.25 0.25 0 0 0 29 9.75L29 8.25A0.25 0.25 0 0 0 28.75 8L26.25 8A0.25 0.25 0 0 0 26 8.25L26 8.75A0.25 0.25 0 0 1 25.75 9L24.25 9A0.25 0.25 0 0 1 24 8.75L24 8.25A0.25 0.25 0 0 0 23.75 8L18.25 8A0.25 0.25 0 0 0 18 8.25L18 8.75A0.25 0.25 0 0 0 18.25 9L21.75 9A0.25 0.25 0 0 1 22 9.25L22 9.75A0.25 0.25 0 0 1 21.75 10L20.25 10A0.25 0.25 0 0 0 20 10.25L20 10.75A0.25 0.25 0 0 0 20.25 11L22.75 11A0.25 0.25 0 0 1 23 11.25L23 12.75A0.25 0.25 0 0 1 22.75 13L22.25 13A0.25 0.25 0 0 1 22 12.75L22 12.25A0.25 0.25 0 0 0 21.75 12L20.25 12A0.25 0.25 0 0 0 20 12.25L20 12.75A0.25 0.25 0 0 1 19.75 13L19.25 13A0.25 0.25 0 0 1 19 12.75L19 11.25A0.25 0.25 0 0 0 18.75 11L18.25 11A0.25 0.25 0 0 1 18 10.75L18 10.25A0.25 0.25 0 0 0 17.75 10L17.25 10A0.25 0.25 0 0 0 17 10.25L17 11.75A0.25 0.25 0 0 1 16.75 12L15.25 12A0.25 0.25 0 0 1 15 11.75L15 10.25A0.25 0.25 0 0 1 15.25 10L15.75 10A0.25 0.25 0 0 0 16 9.75L16 9.25A0.25 0.25 0 0 0 15.75 9L15.25 9A0.25 0.25 0 0 0 15 9.25L15 9.75A0.25 0.25 0 0 1 14.75 10L14.25 10A0.25 0.25 0 0 1 14 9.75L14 8.25A0.25 0.25 0 0 1 14.25 8L14.75 8A0.25 0.25 0 0 0 15 7.75L15 6.25A0.25 0.25 0 0 1 15.25 6L15.75 6A0.25 0.25 0 0 1 16 6.25L16 6.75A0.25 0.25 0 0 0 16.25 7L16.75 7A0.25 0.25 0 0 0 17 6.75L17 4.25A0.25 0.25 0 0 1 17.25 4L17.75 4A0.25 0.25 0 0 1 18 4.25L18 6.75A0.25 0.25 0 0 0 18.25 7L18.75 7A0.25 0.25 0 0 0 19 6.75L19 5.25A0.25 0.25 0 0 1 19.25 5L19.75 5A0.25 0.25 0 0 0 20 4.75L20 4.25A0.25 0.25 0 0 1 20.25 4L20.75 4A0.25 0.25 0 0 0 21 3.75L21 2.25A0.25 0.25 0 0 0 20.75 2L20.25 2A0.25 0.25 0 0 1 20 1.75L20 1.25A0.25 0.25 0 0 1 20.25 1L20.75 1A0.25 0.25 0 0 0 21 0.75L21 0.25A0.25 0.25 0 0 0 20.75 0L20.25 0A0.25 0.25 0 0 0 20 0.25L20 0.75A0.25 0.25 0 0 1 19.75 1L19.25 1A0.25 0.25 0 0 1 19 0.75L19 0.25A0.25 0.25 0 0 0 18.75 0L17.25 0A0.25 0.25 0 0 0 17 0.25L17 0.75A0.25 0.25 0 0 0 17.25 1L17.75 1A0.25 0.25 0 0 1 18 1.25L18 2.75A0.25 0.25 0 0 1 17.75 3L16.25 3A0.25 0.25 0 0 1 16 2.75L16 2.25A0.25 0.25 0 0 0 15.75 2L15.25 2A0.25 0.25 0 0 1 15 1.75L15 0.25A0.25 0.25 0 0 0 14.75 0L14.25 0A0.25 0.25 0 0 0 14 0.25L14 1.75A0.25 0.25 0 0 1 13.75 2L13.25 2A0.25 0.25 0 0 1 13 1.75L13 0.25A0.25 0.25 0 0 0 12.75 0L11.25 0A0.25 0.25 0 0 0 11 0.25L11 0.75A0.25 0.25 0 0 1 10.75 1L10.25 1A0.25 0.25 0 0 1 10 0.75L10 0.25A0.25 0.25 0 0 0 9.75 0L8.25 0A0.25 0.25 0 0 0 8 0.25ZM9 2.25L9 2.75A0.25 0.25 0 0 0 9.25 3L9.75 3A0.25 0.25 0 0 1 10 3.25L10 3.75A0.25 0.25 0 0 0 10.25 4L10.75 4A0.25 0.25 0 0 0 11 3.75L11 3.25A0.25 0.25 0 0 0 10.75 3L10.25 3A0.25 0.25 0 0 1 10 2.75L10 2.25A0.25 0.25 0 0 0 9.75 2L9.25 2A0.25 0.25 0 0 0 9 2.25ZM12 2.25L12 2.75A0.25 0.25 0 0 0 12.25 3L12.75 3A0.25 0.25 0 0 1 13 3.25L13 4.75A0.25 0.25 0 0 1 12.75 5L12.25 5A0.25 0.25 0 0 0 12 5.25L12 5.75A0.25 0.25 0 0 1 11.75 6L11.25 6A0.25 0.25 0 0 0 11 6.25L11 6.75A0.25 0.25 0 0 1 10.75 7L10.25 7A0.25 0.25 0 0 1 10 6.75L10 6.25A0.25 0.25 0 0 0 9.75 6L9.25 6A0.25 0.25 0 0 0 9 6.25L9 6.75A0.25 0.25 0 0 0 9.25 7L9.75 7A0.25 0.25 0 0 1 10 7.25L10 7.75A0.25 0.25 0 0 1 9.75 8L9.25 8A0.25 0.25 0 0 0 9 8.25L9 8.75A0.25 0.25 0 0 0 9.25 9L10.75 9A0.25 0.25 0 0 1 11 9.25L11 9.75A0.25 0.25 0 0 0 11.25 10L11.75 10A0.25 0.25 0 0 0 12 9.75L12 9.25A0.25 0.25 0 0 1 12.25 9L12.75 9A0.25 0.25 0 0 0 13 8.75L13 8.25A0.25 0.25 0 0 1 13.25 8L13.75 8A0.25 0.25 0 0 0 14 7.75L14 6.25A0.25 0.25 0 0 0 13.75 6L13.25 6A0.25 0.25 0 0 1 13 5.75L13 5.25A0.25 0.25 0 0 1 13.25 5L14.75 5A0.25 0.25 0 0 0 15 4.75L15 4.25A0.25 0.25 0 0 0 14.75 4L14.25 4A0.25 0.25 0 0 1 14 3.75L14 3.25A0.25 0.25 0 0 1 14.25 3L14.75 3A0.25 0.25 0 0 0 15 2.75L15 2.25A0.25 0.25 0 0 0 14.75 2L14.25 2A0.25 0.25 0 0 0 14 2.25L14 2.75A0.25 0.25 0 0 1 13.75 3L13.25 3A0.25 0.25 0 0 1 13 2.75L13 2.25A0.25 0.25 0 0 0 12.75 2L12.25 2A0.25 0.25 0 0 0 12 2.25ZM18 3.25L18 3.75A0.25 0.25 0 0 0 18.25 4L18.75 4A0.25 0.25 0 0 0 19 3.75L19 3.25A0.25 0.25 0 0 0 18.75 3L18.25 3A0.25 0.25 0 0 0 18 3.25ZM12 6.25L12 6.75A0.25 0.25 0 0 1 11.75 7L11.25 7A0.25 0.25 0 0 0 11 7.25L11 8.75A0.25 0.25 0 0 0 11.25 9L11.75 9A0.25 0.25 0 0 0 12 8.75L12 7.25A0.25 0.25 0 0 1 12.25 7L12.75 7A0.25 0.25 0 0 0 13 6.75L13 6.25A0.25 0.25 0 0 0 12.75 6L12.25 6A0.25 0.25 0 0 0 12 6.25ZM20 6.25L20 6.75A0.25 0.25 0 0 0 20.25 7L20.75 7A0.25 0.25 0 0 0 21 6.75L21 6.25A0.25 0.25 0 0 0 20.75 6L20.25 6A0.25 0.25 0 0 0 20 6.25ZM2 8.25L2 8.75A0.25 0.25 0 0 1 1.75 9L0.25 9A0.25 0.25 0 0 0 0 9.25L0 9.75A0.25 0.25 0 0 0 0.25 10L1.75 10A0.25 0.25 0 0 1 2 10.25L2 10.75A0.25 0.25 0 0 0 2.25 11L2.75 11A0.25 0.25 0 0 1 3 11.25L3 11.75A0.25 0.25 0 0 0 3.25 12L4.75 12A0.25 0.25 0 0 1 5 12.25L5 12.75A0.25 0.25 0 0 0 5.25 13L6.75 13A0.25 0.25 0 0 1 7 13.25L7 13.75A0.25 0.25 0 0 1 6.75 14L4.25 14A0.25 0.25 0 0 0 4 14.25L4 16.75A0.25 0.25 0 0 1 3.75 17L3.25 17A0.25 0.25 0 0 0 3 17.25L3 17.75A0.25 0.25 0 0 0 3.25 18L3.75 18A0.25 0.25 0 0 1 4 18.25L4 18.75A0.25 0.25 0 0 1 3.75 19L2.25 19A0.25 0.25 0 0 0 2 19.25L2 20.75A0.25 0.25 0 0 0 2.25 21L2.75 21A0.25 0.25 0 0 0 3 20.75L3 20.25A0.25 0.25 0 0 1 3.25 20L3.75 20A0.25 0.25 0 0 1 4 20.25L4 20.75A0.25 0.25 0 0 0 4.25 21L6.75 21A0.25 0.25 0 0 0 7 20.75L7 20.25A0.25 0.25 0 0 0 6.75 20L4.25 20A0.25 0.25 0 0 1 4 19.75L4 19.25A0.25 0.25 0 0 1 4.25 19L4.75 19A0.25 0.25 0 0 0 5 18.75L5 18.25A0.25 0.25 0 0 1 5.25 18L5.75 18A0.25 0.25 0 0 1 6 18.25L6 18.75A0.25 0.25 0 0 0 6.25 19L8.75 19A0.25 0.25 0 0 0 9 18.75L9 18.25A0.25 0.25 0 0 1 9.25 18L9.75 18A0.25 0.25 0 0 1 10 18.25L10 18.75A0.25 0.25 0 0 0 10.25 19L12.75 19A0.25 0.25 0 0 0 13 18.75L13 18.25A0.25 0.25 0 0 1 13.25 18L14.75 18A0.25 0.25 0 0 0 15 17.75L15 17.25A0.25 0.25 0 0 0 14.75 17L12.25 17A0.25 0.25 0 0 0 12 17.25L12 17.75A0.25 0.25 0 0 1 11.75 18L11.25 18A0.25 0.25 0 0 1 11 17.75L11 17.25A0.25 0.25 0 0 0 10.75 17L8.25 17A0.25 0.25 0 0 0 8 17.25L8 17.75A0.25 0.25 0 0 1 7.75 18L6.25 18A0.25 0.25 0 0 1 6 17.75L6 17.25A0.25 0.25 0 0 1 6.25 17L6.75 17A0.25 0.25 0 0 0 7 16.75L7 16.25A0.25 0.25 0 0 0 6.75 16L5.25 16A0.25 0.25 0 0 1 5 15.75L5 15.25A0.25 0.25 0 0 1 5.25 15L6.75 15A0.25 0.25 0 0 0 7 14.75L7 14.25A0.25 0.25 0 0 1 7.25 14L7.75 14A0.25 0.25 0 0 0 8 13.75L8 12.25A0.25 0.25 0 0 1 8.25 12L8.75 12A0.25 0.25 0 0 0 9 11.75L9 11.25A0.25 0.25 0 0 0 8.75 11L8.25 11A0.25 0.25 0 0 1 8 10.75L8 10.25A0.25 0.25 0 0 0 7.75 10L6.25 10A0.25 0.25 0 0 0 6 10.25L6 10.75A0.25 0.25 0 0 1 5.75 11L3.25 11A0.25 0.25 0 0 1 3 10.75L3 10.25A0.25 0.25 0 0 1 3.25 10L3.75 10A0.25 0.25 0 0 0 4 9.75L4 9.25A0.25 0.25 0 0 1 4.25 9L4.75 9A0.25 0.25 0 0 0 5 8.75L5 8.25A0.25 0.25 0 0 0 4.75 8L2.25 8A0.25 0.25 0 0 0 2 8.25ZM6 8.25L6 8.75A0.25 0.25 0 0 0 6.25 9L6.75 9A0.25 0.25 0 0 0 7 8.75L7 8.25A0.25 0.25 0 0 0 6.75 8L6.25 8A0.25 0.25 0 0 0 6 8.25ZM23 9.25L23 10.75A0.25 0.25 0 0 0 23.25 11L23.75 11A0.25 0.25 0 0 0 24 10.75L24 9.25A0.25 0.25 0 0 0 23.75 9L23.25 9A0.25 0.25 0 0 0 23 9.25ZM0 11.25L0 13.75A0.25 0.25 0 0 0 0.25 14L0.75 14A0.25 0.25 0 0 0 1 13.75L1 11.25A0.25 0.25 0 0 0 0.75 11L0.25 11A0.25 0.25 0 0 0 0 11.25ZM6 11.25L6 11.75A0.25 0.25 0 0 0 6.25 12L7.75 12A0.25 0.25 0 0 0 8 11.75L8 11.25A0.25 0.25 0 0 0 7.75 11L6.25 11A0.25 0.25 0 0 0 6 11.25ZM13 11.25L13 11.75A0.25 0.25 0 0 0 13.25 12L13.75 12A0.25 0.25 0 0 0 14 11.75L14 11.25A0.25 0.25 0 0 0 13.75 11L13.25 11A0.25 0.25 0 0 0 13 11.25ZM17 12.25L17 12.75A0.25 0.25 0 0 0 17.25 13L17.75 13A0.25 0.25 0 0 1 18 13.25L18 13.75A0.25 0.25 0 0 0 18.25 14L18.75 14A0.25 0.25 0 0 0 19 13.75L19 13.25A0.25 0.25 0 0 0 18.75 13L18.25 13A0.25 0.25 0 0 1 18 12.75L18 12.25A0.25 0.25 0 0 0 17.75 12L17.25 12A0.25 0.25 0 0 0 17 12.25ZM24 12.25L24 12.75A0.25 0.25 0 0 0 24.25 13L24.75 13A0.25 0.25 0 0 1 25 13.25L25 13.75A0.25 0.25 0 0 0 25.25 14L25.75 14A0.25 0.25 0 0 0 26 13.75L26 13.25A0.25 0.25 0 0 0 25.75 13L25.25 13A0.25 0.25 0 0 1 25 12.75L25 12.25A0.25 0.25 0 0 0 24.75 12L24.25 12A0.25 0.25 0 0 0 24 12.25ZM20 13.25L20 13.75A0.25 0.25 0 0 0 20.25 14L21.75 14A0.25 0.25 0 0 0 22 13.75L22 13.25A0.25 0.25 0 0 0 21.75 13L20.25 13A0.25 0.25 0 0 0 20 13.25ZM9 14.25L9 15.75A0.25 0.25 0 0 0 9.25 16L9.75 16A0.25 0.25 0 0 0 10 15.75L10 14.25A0.25 0.25 0 0 0 9.75 14L9.25 14A0.25 0.25 0 0 0 9 14.25ZM0 15.25L0 15.75A0.25 0.25 0 0 0 0.25 16L0.75 16A0.25 0.25 0 0 1 1 16.25L1 16.75A0.25 0.25 0 0 1 0.75 17L0.25 17A0.25 0.25 0 0 0 0 17.25L0 20.75A0.25 0.25 0 0 0 0.25 21L0.75 21A0.25 0.25 0 0 0 1 20.75L1 18.25A0.25 0.25 0 0 1 1.25 18L1.75 18A0.25 0.25 0 0 0 2 17.75L2 16.25A0.25 0.25 0 0 1 2.25 16L2.75 16A0.25 0.25 0 0 0 3 15.75L3 15.25A0.25 0.25 0 0 0 2.75 15L0.25 15A0.25 0.25 0 0 0 0 15.25ZM23 17.25L23 17.75A0.25 0.25 0 0 1 22.75 18L22.25 18A0.25 0.25 0 0 0 22 18.25L22 19.75A0.25 0.25 0 0 0 22.25 20L22.75 20A0.25 0.25 0 0 0 23 19.75L23 19.25A0.25 0.25 0 0 1 23.25 19L24.75 19A0.25 0.25 0 0 1 25 19.25L25 19.75A0.25 0.25 0 0 0 25.25 20L26.75 20A0.25 0.25 0 0 0 27 19.75L27 19.25A0.25 0.25 0 0 0 26.75 19L26.25 19A0.25 0.25 0 0 1 26 18.75L26 18.25A0.25 0.25 0 0 0 25.75 18L24.25 18A0.25 0.25 0 0 1 24 17.75L24 17.25A0.25 0.25 0 0 0 23.75 17L23.25 17A0.25 0.25 0 0 0 23 17.25ZM20 18.25L20 18.75A0.25 0.25 0 0 0 20.25 19L20.75 19A0.25 0.25 0 0 0 21 18.75L21 18.25A0.25 0.25 0 0 0 20.75 18L20.25 18A0.25 0.25 0 0 0 20 18.25ZM17 19.25L17 20.75A0.25 0.25 0 0 0 17.25 21L17.75 21A0.25 0.25 0 0 1 18 21.25L18 21.75A0.25 0.25 0 0 1 17.75 22L16.25 22A0.25 0.25 0 0 0 16 22.25L16 22.75A0.25 0.25 0 0 1 15.75 23L15.25 23A0.25 0.25 0 0 1 15 22.75L15 22.25A0.25 0.25 0 0 0 14.75 22L14.25 22A0.25 0.25 0 0 0 14 22.25L14 22.75A0.25 0.25 0 0 1 13.75 23L13.25 23A0.25 0.25 0 0 0 13 23.25L13 24.75A0.25 0.25 0 0 0 13.25 25L13.75 25A0.25 0.25 0 0 1 14 25.25L14 25.75A0.25 0.25 0 0 1 13.75 26L13.25 26A0.25 0.25 0 0 0 13 26.25L13 26.75A0.25 0.25 0 0 0 13.25 27L13.75 27A0.25 0.25 0 0 0 14 26.75L14 26.25A0.25 0.25 0 0 1 14.25 26L14.75 26A0.25 0.25 0 0 1 15 26.25L15 26.75A0.25 0.25 0 0 0 15.25 27L15.75 27A0.25 0.25 0 0 0 16 26.75L16 24.25A0.25 0.25 0 0 1 16.25 24L16.75 24A0.25 0.25 0 0 1 17 24.25L17 24.75A0.25 0.25 0 0 0 17.25 25L17.75 25A0.25 0.25 0 0 1 18 25.25L18 25.75A0.25 0.25 0 0 0 18.25 26L18.75 26A0.25 0.25 0 0 0 19 25.75L19 25.25A0.25 0.25 0 0 1 19.25 25L19.75 25A0.25 0.25 0 0 0 20 24.75L20 23.25A0.25 0.25 0 0 0 19.75 23L19.25 23A0.25 0.25 0 0 1 19 22.75L19 21.25A0.25 0.25 0 0 0 18.75 21L18.25 21A0.25 0.25 0 0 1 18 20.75L18 19.25A0.25 0.25 0 0 0 17.75 19L17.25 19A0.25 0.25 0 0 0 17 19.25ZM21 21.25L21 23.75A0.25 0.25 0 0 0 21.25 24L23.75 24A0.25 0.25 0 0 0 24 23.75L24 21.25A0.25 0.25 0 0 0 23.75 21L21.25 21A0.25 0.25 0 0 0 21 21.25ZM11 22.25L11 22.75A0.25 0.25 0 0 0 11.25 23L11.75 23A0.25 0.25 0 0 0 12 22.75L12 22.25A0.25 0.25 0 0 0 11.75 22L11.25 22A0.25 0.25 0 0 0 11 22.25ZM22 22.25L22 22.75A0.25 0.25 0 0 0 22.25 23L22.75 23A0.25 0.25 0 0 0 23 22.75L23 22.25A0.25 0.25 0 0 0 22.75 22L22.25 22A0.25 0.25 0 0 0 22 22.25ZM17 23.25L17 23.75A0.25 0.25 0 0 0 17.25 24L17.75 24A0.25 0.25 0 0 1 18 24.25L18 24.75A0.25 0.25 0 0 0 18.25 25L18.75 25A0.25 0.25 0 0 0 19 24.75L19 24.25A0.25 0.25 0 0 0 18.75 24L18.25 24A0.25 0.25 0 0 1 18 23.75L18 23.25A0.25 0.25 0 0 0 17.75 23L17.25 23A0.25 0.25 0 0 0 17 23.25ZM14 24.25L14 24.75A0.25 0.25 0 0 0 14.25 25L14.75 25A0.25 0.25 0 0 0 15 24.75L15 24.25A0.25 0.25 0 0 0 14.75 24L14.25 24A0.25 0.25 0 0 0 14 24.25ZM22 25.25L22 25.75A0.25 0.25 0 0 0 22.25 26L22.75 26A0.25 0.25 0 0 1 23 26.25L23 26.75A0.25 0.25 0 0 0 23.25 27L23.75 27A0.25 0.25 0 0 0 24 26.75L24 26.25A0.25 0.25 0 0 1 24.25 26L24.75 26A0.25 0.25 0 0 0 25 25.75L25 25.25A0.25 0.25 0 0 0 24.75 25L24.25 25A0.25 0.25 0 0 0 24 25.25L24 25.75A0.25 0.25 0 0 1 23.75 26L23.25 26A0.25 0.25 0 0 1 23 25.75L23 25.25A0.25 0.25 0 0 0 22.75 25L22.25 25A0.25 0.25 0 0 0 22 25.25ZM25 27.25L25 27.75A0.25 0.25 0 0 0 25.25 28L26.75 28A0.25 0.25 0 0 0 27 27.75L27 27.25A0.25 0.25 0 0 0 26.75 27L25.25 27A0.25 0.25 0 0 0 25 27.25ZM0 0.25L0 6.75A0.25 0.25 0 0 0 0.25 7L6.75 7A0.25 0.25 0 0 0 7 6.75L7 0.25A0.25 0.25 0 0 0 6.75 0L0.25 0A0.25 0.25 0 0 0 0 0.25ZM1 1.25L1 5.75A0.25 0.25 0 0 0 1.25 6L5.75 6A0.25 0.25 0 0 0 6 5.75L6 1.25A0.25 0.25 0 0 0 5.75 1L1.25 1A0.25 0.25 0 0 0 1 1.25ZM2 2.25L2 4.75A0.25 0.25 0 0 0 2.25 5L4.75 5A0.25 0.25 0 0 0 5 4.75L5 2.25A0.25 0.25 0 0 0 4.75 2L2.25 2A0.25 0.25 0 0 0 2 2.25ZM22 0.25L22 6.75A0.25 0.25 0 0 0 22.25 7L28.75 7A0.25 0.25 0 0 0 29 6.75L29 0.25A0.25 0.25 0 0 0 28.75 0L22.25 0A0.25 0.25 0 0 0 22 0.25ZM23 1.25L23 5.75A0.25 0.25 0 0 0 23.25 6L27.75 6A0.25 0.25 0 0 0 28 5.75L28 1.25A0.25 0.25 0 0 0 27.75 1L23.25 1A0.25 0.25 0 0 0 23 1.25ZM24 2.25L24 4.75A0.25 0.25 0 0 0 24.25 5L26.75 5A0.25 0.25 0 0 0 27 4.75L27 2.25A0.25 0.25 0 0 0 26.75 2L24.25 2A0.25 0.25 0 0 0 24 2.25ZM0 22.25L0 28.75A0.25 0.25 0 0 0 0.25 29L6.75 29A0.25 0.25 0 0 0 7 28.75L7 22.25A0.25 0.25 0 0 0 6.75 22L0.25 22A0.25 0.25 0 0 0 0 22.25ZM1 23.25L1 27.75A0.25 0.25 0 0 0 1.25 28L5.75 28A0.25 0.25 0 0 0 6 27.75L6 23.25A0.25 0.25 0 0 0 5.75 23L1.25 23A0.25 0.25 0 0 0 1 23.25ZM2 24.25L2 26.75A0.25 0.25 0 0 0 2.25 27L4.75 27A0.25 0.25 0 0 0 5 26.75L5 24.25A0.25 0.25 0 0 0 4.75 24L2.25 24A0.25 0.25 0 0 0 2 24.25Z" fill="#000000"/></g></g></svg>
