<?xml version="1.0" encoding="UTF-8"?>
<svg xmlns="http://www.w3.org/2000/svg" version="1.1" width="100" height="100" viewBox="0 0 100 100"><rect x="0" y="0" width="100" height="100" fill="#ffffff"/><g transform="scale(3.448)"><g transform="translate(0,0)"><path fill-rule="evenodd" d="M8 0.25L8 2.75A0.25 0.25 0 0 0 8.25 3L8.75 3A0.25 0.25 0 0 1 9 3.25L9 3.75A0.25 0.25 0 0 0 9.25 4L9.75 4A0.25 0.25 0 0 1 10 4.25L10 4.75A0.25 0.25 0 0 1 9.75 5L8.25 5A0.25 0.25 0 0 0 8 5.25L8 8.75A0.25 0.25 0 0 0 8.25 9L8.75 9A0.25 0.25 0 0 1 9 9.25L9 9.75A0.25 0.25 0 0 1 8.75 10L8.25 10A0.25 0.25 0 0 0 8 10.25L8 11.75A0.25 0.25 0 0 1 7.75 12L6.25 12A0.25 0.25 0 0 0 6 12.25L6 12.75A0.25 0.25 0 0 0 6.25 13L6.75 13A0.25 0.25 0 0 1 7 13.25L7 13.75A0.25 0.25 0 0 1 6.75 14L6.25 14A0.25 0.25 0 0 0 6 14.25L6 14.75A0.25 0.25 0 0 1 5.75 15L5.25 15A0.25 0.25 0 0 1 5 14.75L5 14.25A0.25 0.25 0 0 0 4.75 14L4.25 14A0.25 0.25 0 0 1 4 13.75L4 12.25A0.25 0.25 0 0 0 3.75 12L3.25 12A0.25 0.25 0 0 1 3 11.75L3 11.25A0.25 0.25 0 0 0 2.75 11L2.25 11A0.25 0.25 0 0 1 2 10.75L2 10.25A0.25 0.25 0 0 1 2.25 10L3.75 10A0.25 0.25 0 0 0 4 9.75L4 9.25A0.25 0.25 0 0 1 4.25 9L4.75 9A0.25 0.25 0 0 1 5 9.25L5 9.75A0.25 0.25 0 0 0 5.25 10L5.75 10A0.25 0.25 0 0 1 6 10.25L6 10.75A0.25 0.25 0 0 0 6.25 11L6.75 11A0.25 0.25 0 0 0 7 10.75L7 10.25A0.25 0.25 0 0 0 6.75 10L6.25 10A0.25 0.25 0 0 1 6 9.75L6 9.25A0.25 0.25 0 0 1 6.25 9L6.75 9A0.25 0.25 0 0 0 7 8.75L7 8.25A0.25 0.25 0 0 0 6.75 8L6.25 8A0.25 0.25 0 0 0 6 8.25L6 8.75A0.25 0.25 0 0 1 5.75 9L5.25 9A0.25 0.25 0 0 1 5 8.75L5 8.25A0.25 0.25 0 0 0 4.75 8L2.25 8A0.25 0.25 0 0 0 2 8.25L2 8.75A0.25 0.25 0 0 1 1.75 9L1.25 9A0.25 0.25 0 0 0 1 9.25L1 10.75A0.25 0.25 0 0 0 1.25 11L1.75 11A0.25 0.25 0 0 1 2 11.25L2 11.75A0.25 0.25 0 0 1 1.75 12L0.25 12A0.25 0.25 0 0 0 0 12.25L0 12.75A0.25 0.25 0 0 0 0.25 13L0.75 13A0.25 0.25 0 0 1 1 13.25L1 13.75A0.25 0.25 0 0 1 0.75 14L0.25 14A0.25 0.25 0 0 0 0 14.25L0 14.75A0.25 0.25 0 0 0 0.25 15L1.75 15A0.25 0.25 0 0 0 2 14.75L2 14.25A0.25 0.25 0 0 1 2.25 14L3.75 14A0.25 0.25 0 0 1 4 14.25L4 14.75A0.25 0.25 0 0 1 3.75 15L3.25 15A0.25 0.25 0 0 0 3 15.25L3 15.75A0.25 0.25 0 0 0 3.25 16L3.75 16A0.25 0.25 0 0 1 4 16.25L4 18.75A0.25 0.25 0 0 0 4.25 19L6.75 19A0.25 0.25 0 0 1 7 19.25L7 19.75A0.25 0.25 0 0 1 6.75 20L5.25 20A0.25 0.25 0 0 0 5 20.25L5 20.75A0.25 0.25 0 0 0 5.25 21L7.75 21A0.25 0.25 0 0 1 8 21.25L8 21.75A0.25 0.25 0 0 0 8.25 22L8.75 22A0.25 0.25 0 0 1 9 22.25L9 23.75A0.25 0.25 0 0 1 8.75 24L8.25 24A0.25 0.25 0 0 0 8 24.25L8 26.75A0.25 0.25 0 0 0 8.25 27L8.75 27A0.25 0.25 0 0 1 9 27.25L9 28.75A0.25 0.25 0 0 0 9.25 29L9.75 29A0.25 0.25 0 0 0 10 28.75L10 28.25A0.25 0.25 0 0 1 10.25 28L10.75 28A0.25 0.25 0 0 1 11 28.25L11 28.75A0.25 0.25 0 0 0 11.25 29L12.75 29A0.25 0.25 0 0 0 13 28.75L13 27.25A0.25 0.25 0 0 1 13.25 27L13.75 27A0.25 0.25 0 0 0 14 26.75L14 26.25A0.25 0.25 0 0 0 13.75 26L13.25 26A0.25 0.25 0 0 1 13 25.75L13 25.25A0.25 0.25 0 0 1 13.25 25L13.75 25A0.25 0.25 0 0 0 14 24.75L14 24.25A0.25 0.25 0 0 1 14.25 24L14.75 24A0.25 0.25 0 0 1 15 24.25L15 24.75A0.25 0.25 0 0 0 15.25 25L16.75 25A0.25 0.25 0 0 1 17 25.25L17 25.75A0.25 0.25 0 0 0 17.25 26L17.75 26A0.25 0.25 0 0 0 18 25.75L18 25.25A0.25 0.25 0 0 1 18.25 25L18.75 25A0.25 0.25 0 0 0 19 24.75L19 23.25A0.25 0.25 0 0 1 19.25 23L19.75 23A0.25 0.25 0 0 1 20 23.25L20 25.75A0.25 0.25 0 0 0 20.25 26L21.75 26A0.25 0.25 0 0 1 22 26.25L22 26.75A0.25 0.25 0 0 1 21.75 27L21.25 27A0.25 0.25 0 0 0 21 27.25L21 27.75A0.25 0.25 0 0 0 21.25 28L21.75 28A0.25 0.25 0 0 0 22 27.75L22 27.25A0.25 0.25 0 0 1 22.25 27L22.75 27A0.25 0.25 0 0 1 23 27.25L23 28.75A0.25 0.25 0 0 0 23.25 29L24.75 29A0.25 0.25 0 0 0 25 28.75L25 28.25A0.25 0.25 0 0 1 25.25 28L25.75 28A0.25 0.25 0 0 1 26 28.25L26 28.75A0.25 0.25 0 0 0 26.25 29L26.75 29A0.25 0.25 0 0 0 27 28.75L27 28.25A0.25 0.25 0 0 1 27.25 28L27.75 28A0.25 0.25 0 0 0 28 27.75L28 26.25A0.25 0.25 0 0 0 27.75 26L26.25 26A0.25 0.25 0 0 1 26 25.75L26 25.25A0.25 0.25 0 0 1 26.25 25L26.75 25A0.25 0.25 0 0 0 27 24.75L27 24.25A0.25 0.25 0 0 1 27.25 24L28.75 24A0.25 0.25 0 0 0 29 23.75L29 23.25A0.25 0.25 0 0 0 28.75 23L27.25 23A0.25 0.25 0 0 1 27 22.75L27 22.25A0.25 0.25 0 0 1 27.25 22L28.75 22A0.25 0.25 0 0 0 29 21.75L29 21.25A0.25 0.25 0 0 0 28.75 21L27.25 21A0.25 0.25 0 0 1 27 20.75L27 20.25A0.25 0.25 0 0 1 27.25 20L27.75 20A0.25 0.25 0 0 0 28 19.75L28 19.25A0.25 0.25 0 0 0 27.75 19L27.25 19A0.25 0.25 0 0 0 27 19.25L27 19.75A0.25 0.25 0 0 1 26.75 20L26.25 20A0.25 0.25 0 0 1 26 19.75L26 18.25A0.25 0.25 0 0 1 26.25 18L28.75 18A0.25 0.25 0 0 0 29 17.75L29 17.25A0.25 0.25 0 0 0 28.75 17L27.25 17A0.25 0.25 0 0 1 27 16.75L27 16.25A0.25 0.25 0 0 0 26.75 16L25.25 16A0.25 0.25 0 0 0 25 16.25L25 16.75A0.25 0.25 0 0 1 24.75 17L22.25 17A0.25 0.25 0 0 1 22 16.75L22 16.25A0.25 0.25 0 0 0 21.75 16L21.25 16A0.25 0.25 0 0 1 21 15.75L21 15.25A0.25 0.25 0 0 1 21.25 15L21.75 15A0.25 0.25 0 0 0 22 14.75L22 14.25A0.25 0.25 0 0 1 22.25 14L22.75 14A0.25 0.25 0 0 1 23 14.25L23 14.75A0.25 0.25 0 0 0 23.25 15L24.75 15A0.25 0.25 0 0 0 25 14.75L25 14.25A0.25 0.25 0 0 1 25.25 14L25.75 14A0.25 0.25 0 0 0 26 13.75L26 13.25A0.25 0.25 0 0 1 26.25 13L26.75 13A0.25 0.25 0 0 0 27 12.75L27 12.25A0.25 0.25 0 0 1 27.25 12L28.75 12A0.25 0.25 0 0 0 29 11.75L29 11.25A0.25 0.25 0 0 0 28.75 11L28.25 11A0.25 0.25 0 0 1 28 10.75L28 10.25A0.25 0.25 0 0 1 28.25 10L28.75 10A0.25 0.25 0 0 0 29 9.75L29 8.25A0.25 0.25 0 0 0 28.75 8L26.25 8A0.25 0.25 0 0 0 26 8.25L26 9.75A0.25 0.25 0 0 0 26.25 10L26.75 10A0.25 0.25 0 0 1 27 10.25L27 11.75A0.25 0.25 0 0 1 26.75 12L25.25 12A0.25 0.25 0 0 1 25 11.75L25 9.25A0.25 0.25 0 0 0 24.75 9L24.25 9A0.25 0.25 0 0 1 24 8.75L24 8.25A0.25 0.25 0 0 0 23.75 8L21.25 8A0.25 0.25 0 0 1 21 7.75L21 6.25A0.25 0.25 0 0 0 20.75 6L20.25 6A0.25 0.25 0 0 0 20 6.25L20 8.75A0.25 0.25 0 0 0 20.25 9L21.75 9A0.25 0.25 0 0 1 22 9.25L22 9.75A0.25 0.25 0 0 1 21.75 10L20.25 10A0.25 0.25 0 0 0 20 10.25L20 10.75A0.25 0.25 0 0 0 20.25 11L21.75 11A0.25 0.25 0 0 0 22 10.75L22 10.25A0.25 0.25 0 0 1 22.25 10L22.75 10A0.25 0.25 0 0 1 23 10.25L23 10.75A0.25 0.25 0 0 0 23.25 11L23.75 11A0.25 0.25 0 0 1 24 11.25L24 11.75A0.25 0.25 0 0 1 23.75 12L23.25 12A0.25 0.25 0 0 0 23 12.25L23 12.75A0.25 0.25 0 0 1 22.75 13L22.25 13A0.25 0.25 0 0 1 22 12.75L22 12.25A0.25 0.25 0 0 0 21.75 12L20.25 12A0.25 0.25 0 0 0 20 12.25L20 12.75A0.25 0.25 0 0 1 19.75 13L19.25 13A0.25 0.25 0 0 1 19 12.75L19 12.25A0.25 0.25 0 0 0 18.75 12L18.25 12A0.25 0.25 0 0 0 18 12.25L18 13.75A0.25 0.25 0 0 0 18.25 14L19.75 14A0.25 0.25 0 0 1 20 14.25L20 14.75A0.25 0.25 0 0 1 19.75 15L17.25 15A0.25 0.25 0 0 1 17 14.75L17 13.25A0.25 0.25 0 0 0 16.75 13L16.25 13A0.25 0.25 0 0 1 16 12.75L16 12.25A0.25 0.25 0 0 1 16.25 12L16.75 12A0.25 0.25 0 0 0 17 11.75L17 11.25A0.25 0.25 0 0 0 16.75 11L16.25 11A0.25 0.25 0 0 1 16 10.75L16 10.25A0.25 0.25 0 0 1 16.25 10L16.75 10A0.25 0.25 0 0 0 17 9.75L17 8.25A0.25 0.25 0 0 0 16.75 8L15.25 8A0.25 0.25 0 0 1 15 7.75L15 6.25A0.25 0.25 0 0 1 15.25 6L15.75 6A0.25 0.25 0 0 1 16 6.25L16 6.75A0.25 0.25 0 0 0 16.25 7L16.75 7A0.25 0.25 0 0 0 17 6.75L17 4.25A0.25 0.25 0 0 1 17.25 4L17.75 4A0.25 0.25 0 0 1 18 4.25L18 6.75A0.25 0.25 0 0 0 18.25 7L18.75 7A0.25 0.25 0 0 0 19 6.75L19 5.25A0.25 0.25 0 0 1 19.25 5L19.75 5A0.25 0.25 0 0 0 20 4.75L20 4.25A0.25 0.25 0 0 1 20.25 4L20.75 4A0.25 0.25 0 0 0 21 3.75L21 2.25A0.25 0.25 0 0 0 20.75 2L20.25 2A0.25 0.25 0 0 1 20 1.75L20 1.25A0.25 0.25 0 0 1 20.25 1L20.75 1A0.25 0.25 0 0 0 21 0.75L21 0.25A0.25 0.25 0 0 0 20.75 0L20.25 0A0.25 0.25 0 0 0 20 0.25L20 0.75A0.25 0.25 0 0 1 19.75 1L19.25 1A0.25 0.25 0 0 1 19 0.75L19 0.25A0.25 0.25 0 0 0 18.75 0L18.25 0A0.25 0.25 0 0 0 18 0.25L18 0.75A0.25 0.25 0 0 1 17.75 1L17.25 1A0.25 0.25 0 0 0 17 1.25L17 1.75A0.25 0.25 0 0 0 17.25 2L17.75 2A0.25 0.25 0 0 1 18 2.25L18 2.75A0.25 0.25 0 0 1 17.75 3L16.25 3A0.25 0.25 0 0 1 16 2.75L16 0.25A0.25 0.25 0 0 0 15.75 0L15.25 0A0.25 0.25 0 0 0 15 0.25L15 2.75A0.25 0.25 0 0 0 15.25 3L15.75 3A0.25 0.25 0 0 1 16 3.25L16 4.75A0.25 0.25 0 0 1 15.75 5L15.25 5A0.25 0.25 0 0 1 15 4.75L15 4.25A0.25 0.25 0 0 0 14.75 4L12.25 4A0.25 0.25 0 0 1 12 3.75L12 3.25A0.25 0.25 0 0 0 11.75 3L11.25 3A0.25 0.25 0 0 1 11 2.75L11 2.25A0.25 0.25 0 0 0 10.75 2L10.25 2A0.25 0.25 0 0 0 10 2.25L10 2.75A0.25 0.25 0 0 1 9.75 3L9.25 3A0.25 0.25 0 0 1 9 2.75L9 1.25A0.25 0.25 0 0 1 9.25 1L9.75 1A0.25 0.25 0 0 0 10 0.75L10 0.25A0.25 0.25 0 0 0 9.75 0L8.25 0A0.25 0.25 0 0 0 8 0.25ZM13 0.25L13 0.75A0.25 0.25 0 0 1 12.75 1L12.25 1A0.25 0.25 0 0 0 12 1.25L12 1.75A0.25 0.25 0 0 0 12.25 2L12.75 2A0.25 0.25 0 0 1 13 2.25L13 2.75A0.25 0.25 0 0 0 13.25 3L13.75 3A0.25 0.25 0 0 0 14 2.75L14 0.25A0.25 0.25 0 0 0 13.75 0L13.25 0A0.25 0.25 0 0 0 13 0.25ZM18 1.25L18 1.75A0.25 0.25 0 0 0 18.25 2L18.75 2A0.25 0.25 0 0 0 19 1.75L19 1.25A0.25 0.25 0 0 0 18.75 1L18.25 1A0.25 0.25 0 0 0 18 1.25ZM18 3.25L18 3.75A0.25 0.25 0 0 0 18.25 4L18.75 4A0.25 0.25 0 0 0 19 3.75L19 3.25A0.25 0.25 0 0 0 18.75 3L18.25 3A0.25 0.25 0 0 0 18 3.25ZM10 5.25L10 5.75A0.25 0.25 0 0 1 9.75 6L9.25 6A0.25 0.25 0 0 0 9 6.25L9 7.75A0.25 0.25 0 0 0 9.25 8L9.75 8A0.25 0.25 0 0 0 10 7.75L10 6.25A0.25 0.25 0 0 1 10.25 6L10.75 6A0.25 0.25 0 0 1 11 6.25L11 6.75A0.25 0.25 0 0 0 11.25 7L11.75 7A0.25 0.25 0 0 1 12 7.25L12 7.75A0.25 0.25 0 0 1 11.75 8L11.25 8A0.25 0.25 0 0 0 11 8.25L11 8.75A0.25 0.25 0 0 1 10.75 9L10.25 9A0.25 0.25 0 0 0 10 9.25L10 9.75A0.25 0.25 0 0 1 9.75 10L9.25 10A0.25 0.25 0 0 0 9 10.25L9 12.75A0.25 0.25 0 0 1 8.75 13L8.25 13A0.25 0.25 0 0 0 8 13.25L8 13.75A0.25 0.25 0 0 1 7.75 14L7.25 14A0.25 0.25 0 0 0 7 14.25L7 14.75A0.25 0.25 0 0 1 6.75 15L6.25 15A0.25 0.25 0 0 0 6 15.25L6 15.75A0.25 0.25 0 0 0 6.25 16L6.75 16A0.25 0.25 0 0 1 7 16.25L7 16.75A0.25 0.25 0 0 1 6.75 17L5.25 17A0.25 0.25 0 0 0 5 17.25L5 17.75A0.25 0.25 0 0 0 5.25 18L6.75 18A0.25 0.25 0 0 0 7 17.75L7 17.25A0.25 0.25 0 0 1 7.25 17L7.75 17A0.25 0.25 0 0 1 8 17.25L8 17.75A0.25 0.25 0 0 0 8.25 18L8.75 18A0.25 0.25 0 0 0 9 17.75L9 16.25A0.25 0.25 0 0 1 9.25 16L9.75 16A0.25 0.25 0 0 0 10 15.75L10 15.25A0.25 0.25 0 0 1 10.25 15L10.75 15A0.25 0.25 0 0 1 11 15.25L11 15.75A0.25 0.25 0 0 0 11.25 16L11.75 16A0.25 0.25 0 0 1 12 16.25L12 16.75A0.25 0.25 0 0 0 12.25 17L13.75 17A0.25 0.25 0 0 1 14 17.25L14 18.75A0.25 0.25 0 0 1 13.75 19L12.25 19A0.25 0.25 0 0 1 12 18.75L12 18.25A0.25 0.25 0 0 0 11.75 18L11.25 18A0.25 0.25 0 0 0 11 18.25L11 18.75A0.25 0.25 0 0 0 11.25 19L11.75 19A0.25 0.25 0 0 1 12 19.25L12 19.75A0.25 0.25 0 0 1 11.75 20L10.25 20A0.25 0.25 0 0 0 10 20.25L10 20.75A0.25 0.25 0 0 1 9.75 21L9.25 21A0.25 0.25 0 0 0 9 21.25L9 21.75A0.25 0.25 0 0 0 9.25 22L9.75 22A0.25 0.25 0 0 1 10 22.25L10 23.75A0.25 0.25 0 0 1 9.75 24L9.25 24A0.25 0.25 0 0 0 9 24.25L9 24.75A0.25 0.25 0 0 0 9.25 25L9.75 25A0.25 0.25 0 0 1 10 25.25L10 26.75A0.25 0.25 0 0 0 10.25 27L10.75 27A0.25 0.25 0 0 1 11 27.25L11 27.75A0.25 0.25 0 0 0 11.25 28L11.75 28A0.25 0.25 0 0 0 12 27.75L12 27.25A0.25 0.25 0 0 1 12.25 27L12.75 27A0.25 0.25 0 0 0 13 26.75L13 26.25A0.25 0.25 0 0 0 12.75 26L11.25 26A0.25 0.25 0 0 1 11 25.75L11 25.25A0.25 0.25 0 0 0 10.75 25L10.25 25A0.25 0.25 0 0 1 10 24.75L10 24.25A0.25 0.25 0 0 1 10.25 24L11.75 24A0.25 0.25 0 0 1 12 24.25L12 24.75A0.25 0.25 0 0 0 12.25 25L12.75 25A0.25 0.25 0 0 0 13 24.75L13 23.25A0.25 0.25 0 0 1 13.25 23L13.75 23A0.25 0.25 0 0 0 14 22.75L14 19.25A0.25 0.25 0 0 1 14.25 19L15.75 19A0.25 0.25 0 0 0 16 18.75L16 18.25A0.25 0.25 0 0 0 15.75 18L15.25 18A0.25 0.25 0 0 1 15 17.75L15 17.25A0.25 0.25 0 0 1 15.25 17L15.75 17A0.25 0.25 0 0 0 16 16.75L16 16.25A0.25 0.25 0 0 0 15.75 16L15.25 16A0.25 0.25 0 0 1 15 15.75L15 15.25A0.25 0.25 0 0 1 15.25 15L15.75 15A0.25 0.25 0 0 0 16 14.75L16 14.25A0.25 0.25 0 0 0 15.75 14L15.25 14A0.25 0.25 0 0 1 15 13.75L15 11.25A0.25 0.25 0 0 0 14.75 11L14.25 11A0.25 0.25 0 0 0 14 11.25L14 11.75A0.25 0.25 0 0 1 13.75 12L13.25 12A0.25 0.25 0 0 1 13 11.75L13 11.25A0.25 0.25 0 0 0 12.75 11L11.25 11A0.25 0.25 0 0 0 11 11.25L11 11.75A0.25 0.25 0 0 1 10.75 12L10.25 12A0.25 0.25 0 0 1 10 11.75L10 10.25A0.25 0.25 0 0 1 10.25 10L10.75 10A0.25 0.25 0 0 0 11 9.75L11 9.25A0.25 0.25 0 0 1 11.25 9L11.75 9A0.25 0.25 0 0 1 12 9.25L12 9.75A0.25 0.25 0 0 0 12.25 10L12.75 10A0.25 0.25 0 0 0 13 9.75L13 9.25A0.25 0.25 0 0 1 13.25 9L13.75 9A0.25 0.25 0 0 1 14 9.25L14 9.75A0.25 0.25 0 0 0 14.25 10L15.75 10A0.25 0.25 0 0 0 16 9.75L16 9.25A0.25 0.25 0 0 0 15.75 9L15.25 9A0.25 0.25 0 0 1 15 8.75L15 8.25A0.25 0.25 0 0 0 14.75 8L13.25 8A0.25 0.25 0 0 1 13 7.75L13 7.25A0.25 0.25 0 0 1 13.25 7L13.75 7A0.25 0.25 0 0 0 14 6.75L14 6.25A0.25 0.25 0 0 0 13.75 6L13.25 6A0.25 0.25 0 0 0 13 6.25L13 6.75A0.25 0.25 0 0 1 12.75 7L12.25 7A0.25 0.25 0 0 1 12 6.75L12 5.25A0.25 0.25 0 0 0 11.75 5L10.25 5A0.25 0.25 0 0 0 10 5.25ZM18 8.25L18 8.75A0.25 0.25 0 0 0 18.25 9L18.75 9A0.25 0.25 0 0 0 19 8.75L19 8.25A0.25 0.25 0 0 0 18.75 8L18.25 8A0.25 0.25 0 0 0 18 8.25ZM23 9.25L23 9.75A0.25 0.25 0 0 0 23.25 10L23.75 10A0.25 0.25 0 0 0 24 9.75L24 9.25A0.25 0.25 0 0 0 23.75 9L23.25 9A0.25 0.25 0 0 0 23 9.25ZM27 9.25L27 9.75A0.25 0.25 0 0 0 27.25 10L27.75 10A0.25 0.25 0 0 0 28 9.75L28 9.25A0.25 0.25 0 0 0 27.75 9L27.25 9A0.25 0.25 0 0 0 27 9.25ZM2 12.25L2 12.75A0.25 0.25 0 0 0 2.25 13L2.75 13A0.25 0.25 0 0 0 3 12.75L3 12.25A0.25 0.25 0 0 0 2.75 12L2.25 12A0.25 0.25 0 0 0 2 12.25ZM24 12.25L24 12.75A0.25 0.25 0 0 1 23.75 13L23.25 13A0.25 0.25 0 0 0 23 13.25L23 13.75A0.25 0.25 0 0 0 23.25 14L23.75 14A0.25 0.25 0 0 0 24 13.75L24 13.25A0.25 0.25 0 0 1 24.25 13L24.75 13A0.25 0.25 0 0 0 25 12.75L25 12.25A0.25 0.25 0 0 0 24.75 12L24.25 12A0.25 0.25 0 0 0 24 12.25ZM9 13.25L9 13.75A0.25 0.25 0 0 1 8.75 14L8.25 14A0.25 0.25 0 0 0 8 14.25L8 14.75A0.25 0.25 0 0 1 7.75 15L7.25 15A0.25 0.25 0 0 0 7 15.25L7 15.75A0.25 0.25 0 0 0 7.25 16L7.75 16A0.25 0.25 0 0 0 8 15.75L8 15.25A0.25 0.25 0 0 1 8.25 15L9.75 15A0.25 0.25 0 0 0 10 14.75L10 13.25A0.25 0.25 0 0 0 9.75 13L9.25 13A0.25 0.25 0 0 0 9 13.25ZM11 13.25L11 14.75A0.25 0.25 0 0 0 11.25 15L12.75 15A0.25 0.25 0 0 0 13 14.75L13 14.25A0.25 0.25 0 0 1 13.25 14L13.75 14A0.25 0.25 0 0 1 14 14.25L14 14.75A0.25 0.25 0 0 0 14.25 15L14.75 15A0.25 0.25 0 0 0 15 14.75L15 14.25A0.25 0.25 0 0 0 14.75 14L14.25 14A0.25 0.25 0 0 1 14 13.75L14 13.25A0.25 0.25 0 0 0 13.75 13L13.25 13A0.25 0.25 0 0 0 13 13.25L13 13.75A0.25 0.25 0 0 1 12.75 14L12.25 14A0.25 0.25 0 0 1 12 13.75L12 13.25A0.25 0.25 0 0 0 11.75 13L11.25 13A0.25 0.25 0 0 0 11 13.25ZM20 13.25L20 13.75A0.25 0.25 0 0 0 20.25 14L21.75 14A0.25 0.25 0 0 0 22 13.75L22 13.25A0.25 0.25 0 0 0 21.75 13L20.25 13A0.25 0.25 0 0 0 20 13.25ZM28 13.25L28 13.75A0.25 0.25 0 0 1 27.75 14L27.25 14A0.25 0.25 0 0 0 27 14.25L27 14.75A0.25 0.25 0 0 0 27.25 15L27.75 15A0.25 0.25 0 0 0 28 14.75L28 14.25A0.25 0.25 0 0 1 28.25 14L28.75 14A0.25 0.25 0 0 0 29 13.75L29 13.25A0.25 0.25 0 0 0 28.75 13L28.25 13A0.25 0.25 0 0 0 28 13.25ZM4 15.25L4 15.75A0.25 0.25 0 0 0 4.25 16L4.75 16A0.25 0.25 0 0 0 5 15.75L5 15.25A0.25 0.25 0 0 0 4.75 15L4.25 15A0.25 0.25 0 0 0 4 15.25ZM0 16.25L0 20.75A0.25 0.25 0 0 0 0.25 21L0.75 21A0.25 0.25 0 0 0 1 20.75L1 18.25A0.25 0.25 0 0 1 1.25 18L2.75 18A0.25 0.25 0 0 0 3 17.75L3 17.25A0.25 0.25 0 0 0 2.75 17L2.25 17A0.25 0.25 0 0 1 2 16.75L2 16.25A0.25 0.25 0 0 0 1.75 16L0.25 16A0.25 0.25 0 0 0 0 16.25ZM14 16.25L14 16.75A0.25 0.25 0 0 0 14.25 17L14.75 17A0.25 0.25 0 0 0 15 16.75L15 16.25A0.25 0.25 0 0 0 14.75 16L14.25 16A0.25 0.25 0 0 0 14 16.25ZM17 16.25L17 17.75A0.25 0.25 0 0 0 17.25 18L17.75 18A0.25 0.25 0 0 0 18 17.75L18 17.25A0.25 0.25 0 0 1 18.25 17L18.75 17A0.25 0.25 0 0 1 19 17.25L19 17.75A0.25 0.25 0 0 0 19.25 18L19.75 18A0.25 0.25 0 0 1 20 18.25L20 18.75A0.25 0.25 0 0 0 20.25 19L20.75 19A0.25 0.25 0 0 1 21 19.25L21 19.75A0.25 0.25 0 0 0 21.25 20L21.75 20A0.25 0.25 0 0 0 22 19.75L22 19.25A0.25 0.25 0 0 1 22.25 19L23.75 19A0.25 0.25 0 0 0 24 18.75L24 18.25A0.25 0.25 0 0 0 23.75 18L22.25 18A0.25 0.25 0 0 1 22 17.75L22 17.25A0.25 0.25 0 0 0 21.75 17L21.25 17A0.25 0.25 0 0 1 21 16.75L21 16.25A0.25 0.25 0 0 0 20.75 16L17.25 16A0.25 0.25 0 0 0 17 16.25ZM20 17.25L20 17.75A0.25 0.25 0 0 0 20.25 18L20.75 18A0.25 0.25 0 0 0 21 17.75L21 17.25A0.25 0.25 0 0 0 20.75 17L20.25 17A0.25 0.25 0 0 0 20 17.25ZM25 17.25L25 17.75A0.25 0.25 0 0 0 25.25 18L25.75 18A0.25 0.25 0 0 0 26 17.75L26 17.25A0.25 0.25 0 0 0 25.75 17L25.25 17A0.25 0.25 0 0 0 25 17.25ZM17 19.25L17 20.75A0.25 0.25 0 0 1 16.75 21L16.25 21A0.25 0.25 0 0 1 16 20.75L16 20.25A0.25 0.25 0 0 0 15.75 20L15.25 20A0.25 0.25 0 0 0 15 20.25L15 21.75A0.25 0.25 0 0 0 15.25 22L16.75 22A0.25 0.25 0 0 0 17 21.75L17 21.25A0.25 0.25 0 0 1 17.25 21L17.75 21A0.25 0.25 0 0 1 18 21.25L18 21.75A0.25 0.25 0 0 0 18.25 22L18.75 22A0.25 0.25 0 0 0 19 21.75L19 21.25A0.25 0.25 0 0 0 18.75 21L18.25 21A0.25 0.25 0 0 1 18 20.75L18 19.25A0.25 0.25 0 0 0 17.75 19L17.25 19A0.25 0.25 0 0 0 17 19.25ZM2 20.25L2 20.75A0.25 0.25 0 0 0 2.25 21L2.75 21A0.25 0.25 0 0 0 3 20.75L3 20.25A0.25 0.25 0 0 0 2.75 20L2.25 20A0.25 0.25 0 0 0 2 20.25ZM12 20.25L12 20.75A0.25 0.25 0 0 0 12.25 21L12.75 21A0.25 0.25 0 0 0 13 20.75L13 20.25A0.25 0.25 0 0 0 12.75 20L12.25 20A0.25 0.25 0 0 0 12 20.25ZM25 20.25L25 23.75A0.25 0.25 0 0 0 25.25 24L26.75 24A0.25 0.25 0 0 0 27 23.75L27 23.25A0.25 0.25 0 0 0 26.75 23L26.25 23A0.25 0.25 0 0 1 26 22.75L26 22.25A0.25 0.25 0 0 1 26.25 22L26.75 22A0.25 0.25 0 0 0 27 21.75L27 21.25A0.25 0.25 0 0 0 26.75 21L26.25 21A0.25 0.25 0 0 1 26 20.75L26 20.25A0.25 0.25 0 0 0 25.75 20L25.25 20A0.25 0.25 0 0 0 25 20.25ZM10 21.25L10 21.75A0.25 0.25 0 0 0 10.25 22L10.75 22A0.25 0.25 0 0 1 11 22.25L11 22.75A0.25 0.25 0 0 0 11.25 23L12.75 23A0.25 0.25 0 0 0 13 22.75L13 22.25A0.25 0.25 0 0 0 12.75 22L11.25 22A0.25 0.25 0 0 1 11 21.75L11 21.25A0.25 0.25 0 0 0 10.75 21L10.25 21A0.25 0.25 0 0 0 10 21.25ZM21 21.25L21 23.75A0.25 0.25 0 0 0 21.25 24L23.75 24A0.25 0.25 0 0 0 24 23.75L24 21.25A0.25 0.25 0 0 0 23.75 21L21.25 21A0.25 0.25 0 0 0 21 21.25ZM22 22.25L22 22.75A0.25 0.25 0 0 0 22.25 23L22.75 23A0.25 0.25 0 0 0 23 22.75L23 22.25A0.25 0.25 0 0 0 22.75 22L22.25 22A0.25 0.25 0 0 0 22 22.25ZM15 23.25L15 23.75A0.25 0.25 0 0 0 15.25 24L17.75 24A0.25 0.25 0 0 0 18 23.75L18 23.25A0.25 0.25 0 0 0 17.75 23L15.25 23A0.25 0.25 0 0 0 15 23.25ZM22 25.25L22 25.75A0.25 0.25 0 0 0 22.25 26L22.75 26A0.25 0.25 0 0 1 23 26.25L23 26.75A0.25 0.25 0 0 0 23.25 27L23.75 27A0.25 0.25 0 0 1 24 27.25L24 27.75A0.25 0.25 0 0 0 24.25 28L24.75 28A0.25 0.25 0 0 0 25 27.75L25 27.25A0.25 0.25 0 0 1 25.25 27L25.75 27A0.25 0.25 0 0 1 26 27.25L26 27.75A0.25 0.25 0 0 0 26.25 28L26.75 28A0.25 0.25 0 0 0 27 27.75L27 27.25A0.25 0.25 0 0 0 26.75 27L26.25 27A0.25 0.25 0 0 1 26 26.75L26 26.25A0.25 0.25 0 0 0 25.75 26L25.25 26A0.25 0.25 0 0 1 25 25.75L25 25.25A0.25 0.25 0 0 0 24.75 25L24.25 25A0.25 0.25 0 0 0 24 25.25L24 25.75A0.25 0.25 0 0 1 23.75 26L23.25 26A0.25 0.25 0 0 1 23 25.75L23 25.25A0.25 0.25 0 0 0 22.75 25L22.25 25A0.25 0.25 0 0 0 22 25.25ZM24 26.25L24 26.75A0.25 0.25 0 0 0 24.25 27L24.75 27A0.25 0.25 0 0 0 25 26.75L25 26.25A0.25 0.25 0 0 0 24.75 26L24.25 26A0.25 0.25 0 0 0 24 26.25ZM15 27.25L15 27.75A0.25 0.25 0 0 1 14.75 28L14.25 28A0.25 0.25 0 0 0 14 28.25L14 28.75A0.25 0.25 0 0 0 14.25 29L14.75 29A0.25 0.25 0 0 0 15 28.75L15 28.25A0.25 0.25 0 0 1 15.25 28L15.75 28A0.25 0.25 0 0 0 16 27.75L16 27.25A0.25 0.25 0 0 0 15.75 27L15.25 27A0.25 0.25 0 0 0 15 27.25ZM18 27.25L18 27.75A0.25 0.25 0 0 1 17.75 28L17.25 28A0.25 0.25 0 0 0 17 28.25L17 28.75A0.25 0.25 0 0 0 17.25 29L17.75 29A0.25 0.25 0 0 0 18 28.75L18 28.25A0.25 0.25 0 0 1 18.25 28L18.75 28A0.25 0.25 0 0 0 19 27.75L19 27.25A0.25 0.25 0 0 0 18.75 27L18.25 27A0.25 0.25 0 0 0 18 27.25ZM0 0.25L0 6.75A0.25 0.25 0 0 0 0.25 7L6.75 7A0.25 0.25 0 0 0 7 6.75L7 0.25A0.25 0.25 0 0 0 6.75 0L0.25 0A0.25 0.25 0 0 0 0 0.25ZM1 1.25L1 5.75A0.25 0.25 0 0 0 1.25 6L5.75 6A0.25 0.25 0 0 0 6 5.75L6 1.25A0.25 0.25 0 0 0 5.75 1L1.25 1A0.25 0.25 0 0 0 1 1.25ZM2 2.25L2 4.75A0.25 0.25 0 0 0 2.25 5L4.75 5A0.25 0.25 0 0 0 5 4.75L5 2.25A0.25 0.25 0 0 0 4.75 2L2.25 2A0.25 0.25 0 0 0 2 2.25ZM22 0.25L22 6.75A0.25 0.25 0 0 0 22.25 7L28.75 7A0.25 0.25 0 0 0 29 6.75L29 0.25A0.25 0.25 0 0 0 28.75 0L22.25 0A0.25 0.25 0 0 0 22 0.25ZM23 1.25L23 5.75A0.25 0.25 0 0 0 23.25 6L27.75 6A0.25 0.25 0 0 0 28 5.75L28 1.25A0.25 0.25 0 0 0 27.75 1L23.25 1A0.25 0.25 0 0 0 23 1.25ZM24 2.25L24 4.75A0.25 0.25 0 0 0 24.25 5L26.75 5A0.25 0.25 0 0 0 27 4.75L27 2.25A0.25 0.25 0 0 0 26.75 2L24.25 2A0.25 0.25 0 0 0 24 2.25ZM0 22.25L0 28.75A0.25 0.25 0 0 0 0.25 29L6.75 29A0.25 0.25 0 0 0 7 28.75L7 22.25A0.25 0.25 0 0 0 6.75 22L0.25 22A0.25 0.25 0 0 0 0 22.25ZM1 23.25L1 27.75A0.25 0.25 0 0 0 1.25 28L5.75 28A0.25 0.25 0 0 0 6 27.75L6 23.25A0.25 0.25 0 0 0 5.75 23L1.25 23A0.25 0.25 0 0 0 1 23.25ZM2 24.25L2 26.75A0.25 0.25 0 0 0 2.25 27L4.75 27A0.25 0.25 0 0 0 5 26.75L5 24.25A0.25 0.25 0 0 0 4.75 24L2.25 24A0.25 0.25 0 0 0 2 24.25Z" fill="#000000"/></g></g></svg>
