<?xml version="1.0" encoding="UTF-8"?>
<svg xmlns="http://www.w3.org/2000/svg" version="1.1" width="200" height="200" viewBox="0 0 200 200"><rect x="0" y="0" width="200" height="200" fill="#ffffff"/><g transform="scale(6.897)"><g transform="translate(0,0)"><path fill-rule="evenodd" d="M12 0.25L12 0.75A0.25 0.25 0 0 1 11.75 1L11.25 1A0.25 0.25 0 0 0 11 1.25L11 2.75A0.25 0.25 0 0 0 11.25 3L12.75 3A0.25 0.25 0 0 0 13 2.75L13 2.25A0.25 0.25 0 0 1 13.25 2L13.75 2A0.25 0.25 0 0 1 14 2.25L14 3.75A0.25 0.25 0 0 1 13.75 4L10.25 4A0.25 0.25 0 0 0 10 4.25L10 6.75A0.25 0.25 0 0 1 9.75 7L9.25 7A0.25 0.25 0 0 1 9 6.75L9 6.25A0.25 0.25 0 0 0 8.75 6L8.25 6A0.25 0.25 0 0 0 8 6.25L8 6.75A0.25 0.25 0 0 0 8.25 7L8.75 7A0.25 0.25 0 0 1 9 7.25L9 7.75A0.25 0.25 0 0 0 9.25 8L9.75 8A0.25 0.25 0 0 1 10 8.25L10 9.75A0.25 0.25 0 0 1 9.75 10L9.25 10A0.25 0.25 0 0 1 9 9.75L9 9.25A0.25 0.25 0 0 0 8.75 9L8.25 9A0.25 0.25 0 0 1 8 8.75L8 8.25A0.25 0.25 0 0 0 7.75 8L6.25 8A0.25 0.25 0 0 0 6 8.25L6 8.75A0.25 0.25 0 0 1 5.75 9L5.25 9A0.25 0.25 0 0 1 5 8.75L5 8.25A0.25 0.25 0 0 0 4.75 8L3.25 8A0.25 0.25 0 0 0 3 8.25L3 8.75A0.25 0.25 0 0 1 2.75 9L0.25 9A0.25 0.25 0 0 0 0 9.25L0 13.75A0.25 0.25 0 0 0 0.25 14L0.75 14A0.25 0.25 0 0 1 1 14.25L1 14.75A0.25 0.25 0 0 1 0.75 15L0.25 15A0.25 0.25 0 0 0 0 15.25L0 20.75A0.25 0.25 0 0 0 0.25 21L1.75 21A0.25 0.25 0 0 0 2 20.75L2 19.25A0.25 0.25 0 0 1 2.25 19L3.75 19A0.25 0.25 0 0 1 4 19.25L4 19.75A0.25 0.25 0 0 1 3.75 20L3.25 20A0.25 0.25 0 0 0 3 20.25L3 20.75A0.25 0.25 0 0 0 3.25 21L6.75 21A0.25 0.25 0 0 0 7 20.75L7 20.25A0.25 0.25 0 0 0 6.75 20L5.25 20A0.25 0.25 0 0 1 5 19.75L5 19.25A0.25 0.25 0 0 1 5.25 19L6.75 19A0.25 0.25 0 0 0 7 18.75L7 18.25A0.25 0.25 0 0 1 7.25 18L9.75 18A0.25 0.25 0 0 0 10 17.75L10 17.25A0.25 0.25 0 0 0 9.75 17L9.25 17A0.25 0.25 0 0 1 9 16.75L9 16.25A0.25 0.25 0 0 1 9.25 16L11.75 16A0.25 0.25 0 0 0 12 15.75L12 15.25A0.25 0.25 0 0 0 11.75 15L9.25 15A0.25 0.25 0 0 1 9 14.75L9 14.25A0.25 0.25 0 0 1 9.25 14L9.75 14A0.25 0.25 0 0 0 10 13.75L10 13.25A0.25 0.25 0 0 1 10.25 13L10.75 13A0.25 0.25 0 0 1 11 13.25L11 13.75A0.25 0.25 0 0 0 11.25 14L12.75 14A0.25 0.25 0 0 1 13 14.25L13 14.75A0.25 0.25 0 0 0 13.25 15L13.75 15A0.25 0.25 0 0 0 14 14.75L14 14.25A0.25 0.25 0 0 1 14.25 14L18.75 14A0.25 0.25 0 0 1 19 14.25L19 14.75A0.25 0.25 0 0 0 19.25 15L19.75 15A0.25 0.25 0 0 1 20 15.25L20 18.75A0.25 0.25 0 0 0 20.25 19L21.75 19A0.25 0.25 0 0 1 22 19.25L22 19.75A0.25 0.25 0 0 1 21.75 20L20.25 20A0.25 0.25 0 0 0 20 20.25L20 20.75A0.25 0.25 0 0 1 19.75 21L19.25 21A0.25 0.25 0 0 1 19 20.75L19 20.25A0.25 0.25 0 0 0 18.75 20L18.25 20A0.25 0.25 0 0 1 18 19.75L18 19.25A0.25 0.25 0 0 1 18.25 19L18.75 19A0.25 0.25 0 0 0 19 18.75L19 18.25A0.25 0.25 0 0 0 18.75 18L18.25 18A0.25 0.25 0 0 0 18 18.25L18 18.75A0.25 0.25 0 0 1 17.75 19L16.25 19A0.25 0.25 0 0 1 16 18.75L16 17.25A0.25 0.25 0 0 1 16.25 17L16.75 17A0.25 0.25 0 0 0 17 16.75L17 15.25A0.25 0.25 0 0 0 16.75 15L16.25 15A0.25 0.25 0 0 0 16 15.25L16 16.75A0.25 0.25 0 0 1 15.75 17L15.25 17A0.25 0.25 0 0 1 15 16.75L15 16.25A0.25 0.25 0 0 0 14.75 16L14.25 16A0.25 0.25 0 0 0 14 16.25L14 16.75A0.25 0.25 0 0 1 13.75 17L13.25 17A0.25 0.25 0 0 0 13 17.25L13 18.75A0.25 0.25 0 0 0 13.25 19L13.75 19A0.25 0.25 0 0 0 14 18.75L14 17.25A0.25 0.25 0 0 1 14.25 17L14.75 17A0.25 0.25 0 0 1 15 17.25L15 18.75A0.25 0.25 0 0 0 15.25 19L15.75 19A0.25 0.25 0 0 1 16 19.25L16 19.75A0.25 0.25 0 0 0 16.25 20L16.75 20A0.25 0.25 0 0 1 17 20.25L17 20.75A0.25 0.25 0 0 0 17.25 21L17.75 21A0.25 0.25 0 0 1 18 21.25L18 21.75A0.25 0.25 0 0 1 17.75 22L17.25 22A0.25 0.25 0 0 0 17 22.25L17 22.75A0.25 0.25 0 0 1 16.75 23L16.25 23A0.25 0.25 0 0 1 16 22.75L16 21.25A0.25 0.25 0 0 0 15.75 21L14.25 21A0.25 0.25 0 0 1 14 20.75L14 20.25A0.25 0.25 0 0 0 13.75 20L12.25 20A0.25 0.25 0 0 1 12 19.75L12 19.25A0.25 0.25 0 0 0 11.75 19L10.25 19A0.25 0.25 0 0 0 10 19.25L10 19.75A0.25 0.25 0 0 1 9.75 20L8.25 20A0.25 0.25 0 0 0 8 20.25L8 22.75A0.25 0.25 0 0 0 8.25 23L8.75 23A0.25 0.25 0 0 0 9 22.75L9 22.25A0.25 0.25 0 0 1 9.25 22L9.75 22A0.25 0.25 0 0 1 10 22.25L10 22.75A0.25 0.25 0 0 0 10.25 23L10.75 23A0.25 0.25 0 0 1 11 23.25L11 23.75A0.25 0.25 0 0 1 10.75 24L8.25 24A0.25 0.25 0 0 0 8 24.25L8 25.75A0.25 0.25 0 0 0 8.25 26L10.75 26A0.25 0.25 0 0 1 11 26.25L11 26.75A0.25 0.25 0 0 1 10.75 27L9.25 27A0.25 0.25 0 0 0 9 27.25L9 28.75A0.25 0.25 0 0 0 9.25 29L13.75 29A0.25 0.25 0 0 0 14 28.75L14 28.25A0.25 0.25 0 0 1 14.25 28L14.75 28A0.25 0.25 0 0 0 15 27.75L15 27.25A0.25 0.25 0 0 1 15.25 27L15.75 27A0.25 0.25 0 0 0 16 26.75L16 26.25A0.25 0.25 0 0 0 15.75 26L15.25 26A0.25 0.25 0 0 1 15 25.75L15 25.25A0.25 0.25 0 0 1 15.25 25L16.75 25A0.25 0.25 0 0 0 17 24.75L17 23.25A0.25 0.25 0 0 1 17.25 23L19.75 23A0.25 0.25 0 0 1 20 23.25L20 23.75A0.25 0.25 0 0 1 19.75 24L19.25 24A0.25 0.25 0 0 0 19 24.25L19 24.75A0.25 0.25 0 0 1 18.75 25L18.25 25A0.25 0.25 0 0 0 18 25.25L18 25.75A0.25 0.25 0 0 0 18.25 26L18.75 26A0.25 0.25 0 0 1 19 26.25L19 26.75A0.25 0.25 0 0 1 18.75 27L17.25 27A0.25 0.25 0 0 0 17 27.25L17 27.75A0.25 0.25 0 0 1 16.75 28L16.25 28A0.25 0.25 0 0 0 16 28.25L16 28.75A0.25 0.25 0 0 0 16.25 29L18.75 29A0.25 0.25 0 0 0 19 28.75L19 27.25A0.25 0.25 0 0 1 19.25 27L19.75 27A0.25 0.25 0 0 1 20 27.25L20 28.75A0.25 0.25 0 0 0 20.25 29L25.75 29A0.25 0.25 0 0 0 26 28.75L26 28.25A0.25 0.25 0 0 1 26.25 28L26.75 28A0.25 0.25 0 0 0 27 27.75L27 27.25A0.25 0.25 0 0 1 27.25 27L27.75 27A0.25 0.25 0 0 1 28 27.25L28 27.75A0.25 0.25 0 0 0 28.25 28L28.75 28A0.25 0.25 0 0 0 29 27.75L29 26.25A0.25 0.25 0 0 0 28.75 26L28.25 26A0.25 0.25 0 0 1 28 25.75L28 25.25A0.25 0.25 0 0 1 28.25 25L28.75 25A0.25 0.25 0 0 0 29 24.75L29 24.25A0.25 0.25 0 0 0 28.75 24L28.25 24A0.25 0.25 0 0 0 28 24.25L28 24.75A0.25 0.25 0 0 1 27.75 25L26.25 25A0.25 0.25 0 0 0 26 25.25L26 25.75A0.25 0.25 0 0 1 25.75 26L24.25 26A0.25 0.25 0 0 1 24 25.75L24 25.25A0.25 0.25 0 0 1 24.25 25L24.75 25A0.25 0.25 0 0 0 25 24.75L25 23.25A0.25 0.25 0 0 1 25.25 23L25.75 23A0.25 0.25 0 0 0 26 22.75L26 22.25A0.25 0.25 0 0 1 26.25 22L26.75 22A0.25 0.25 0 0 0 27 21.75L27 19.25A0.25 0.25 0 0 1 27.25 19L28.75 19A0.25 0.25 0 0 0 29 18.75L29 18.25A0.25 0.25 0 0 0 28.75 18L28.25 18A0.25 0.25 0 0 1 28 17.75L28 17.25A0.25 0.25 0 0 0 27.75 17L27.25 17A0.25 0.25 0 0 0 27 17.25L27 17.75A0.25 0.25 0 0 1 26.75 18L26.25 18A0.25 0.25 0 0 0 26 18.25L26 18.75A0.25 0.25 0 0 1 25.75 19L24.25 19A0.25 0.25 0 0 1 24 18.75L24 18.25A0.25 0.25 0 0 1 24.25 18L24.75 18A0.25 0.25 0 0 0 25 17.75L25 17.25A0.25 0.25 0 0 1 25.25 17L25.75 17A0.25 0.25 0 0 0 26 16.75L26 16.25A0.25 0.25 0 0 1 26.25 16L28.75 16A0.25 0.25 0 0 0 29 15.75L29 13.25A0.25 0.25 0 0 0 28.75 13L28.25 13A0.25 0.25 0 0 1 28 12.75L28 12.25A0.25 0.25 0 0 1 28.25 12L28.75 12A0.25 0.25 0 0 0 29 11.75L29 11.25A0.25 0.25 0 0 0 28.75 11L27.25 11A0.25 0.25 0 0 1 27 10.75L27 8.25A0.25 0.25 0 0 0 26.75 8L25.25 8A0.25 0.25 0 0 0 25 8.25L25 8.75A0.25 0.25 0 0 1 24.75 9L23.25 9A0.25 0.25 0 0 0 23 9.25L23 10.75A0.25 0.25 0 0 0 23.25 11L23.75 11A0.25 0.25 0 0 1 24 11.25L24 11.75A0.25 0.25 0 0 0 24.25 12L24.75 12A0.25 0.25 0 0 0 25 11.75L25 11.25A0.25 0.25 0 0 1 25.25 11L26.75 11A0.25 0.25 0 0 1 27 11.25L27 12.75A0.25 0.25 0 0 1 26.75 13L26.25 13A0.25 0.25 0 0 0 26 13.25L26 13.75A0.25 0.25 0 0 1 25.75 14L25.25 14A0.25 0.25 0 0 1 25 13.75L25 13.25A0.25 0.25 0 0 0 24.75 13L24.25 13A0.25 0.25 0 0 0 24 13.25L24 13.75A0.25 0.25 0 0 1 23.75 14L23.25 14A0.25 0.25 0 0 1 23 13.75L23 12.25A0.25 0.25 0 0 0 22.75 12L22.25 12A0.25 0.25 0 0 0 22 12.25L22 13.75A0.25 0.25 0 0 1 21.75 14L21.25 14A0.25 0.25 0 0 1 21 13.75L21 13.25A0.25 0.25 0 0 0 20.75 13L20.25 13A0.25 0.25 0 0 1 20 12.75L20 12.25A0.25 0.25 0 0 0 19.75 12L19.25 12A0.25 0.25 0 0 1 19 11.75L19 11.25A0.25 0.25 0 0 0 18.75 11L17.25 11A0.25 0.25 0 0 1 17 10.75L17 10.25A0.25 0.25 0 0 1 17.25 10L17.75 10A0.25 0.25 0 0 0 18 9.75L18 9.25A0.25 0.25 0 0 1 18.25 9L18.75 9A0.25 0.25 0 0 0 19 8.75L19 8.25A0.25 0.25 0 0 1 19.25 8L19.75 8A0.25 0.25 0 0 1 20 8.25L20 9.75A0.25 0.25 0 0 0 20.25 10L20.75 10A0.25 0.25 0 0 0 21 9.75L21 5.25A0.25 0.25 0 0 0 20.75 5L20.25 5A0.25 0.25 0 0 1 20 4.75L20 4.25A0.25 0.25 0 0 1 20.25 4L20.75 4A0.25 0.25 0 0 0 21 3.75L21 1.25A0.25 0.25 0 0 0 20.75 1L20.25 1A0.25 0.25 0 0 1 20 0.75L20 0.25A0.25 0.25 0 0 0 19.75 0L17.25 0A0.25 0.25 0 0 0 17 0.25L17 0.75A0.25 0.25 0 0 1 16.75 1L16.25 1A0.25 0.25 0 0 1 16 0.75L16 0.25A0.25 0.25 0 0 0 15.75 0L12.25 0A0.25 0.25 0 0 0 12 0.25ZM14 1.25L14 1.75A0.25 0.25 0 0 0 14.25 2L14.75 2A0.25 0.25 0 0 0 15 1.75L15 1.25A0.25 0.25 0 0 0 14.75 1L14.25 1A0.25 0.25 0 0 0 14 1.25ZM17 1.25L17 1.75A0.25 0.25 0 0 1 16.75 2L16.25 2A0.25 0.25 0 0 0 16 2.25L16 3.75A0.25 0.25 0 0 1 15.75 4L14.25 4A0.25 0.25 0 0 0 14 4.25L14 4.75A0.25 0.25 0 0 1 13.75 5L13.25 5A0.25 0.25 0 0 0 13 5.25L13 7.75A0.25 0.25 0 0 1 12.75 8L12.25 8A0.25 0.25 0 0 1 12 7.75L12 6.25A0.25 0.25 0 0 0 11.75 6L11.25 6A0.25 0.25 0 0 0 11 6.25L11 6.75A0.25 0.25 0 0 1 10.75 7L10.25 7A0.25 0.25 0 0 0 10 7.25L10 7.75A0.25 0.25 0 0 0 10.25 8L10.75 8A0.25 0.25 0 0 1 11 8.25L11 8.75A0.25 0.25 0 0 0 11.25 9L12.75 9A0.25 0.25 0 0 0 13 8.75L13 8.25A0.25 0.25 0 0 1 13.25 8L13.75 8A0.25 0.25 0 0 1 14 8.25L14 9.75A0.25 0.25 0 0 1 13.75 10L13.25 10A0.25 0.25 0 0 0 13 10.25L13 10.75A0.25 0.25 0 0 1 12.75 11L12.25 11A0.25 0.25 0 0 0 12 11.25L12 11.75A0.25 0.25 0 0 1 11.75 12L11.25 12A0.25 0.25 0 0 1 11 11.75L11 10.25A0.25 0.25 0 0 0 10.75 10L10.25 10A0.25 0.25 0 0 0 10 10.25L10 10.75A0.25 0.25 0 0 1 9.75 11L9.25 11A0.25 0.25 0 0 0 9 11.25L9 11.75A0.25 0.25 0 0 0 9.25 12L10.75 12A0.25 0.25 0 0 1 11 12.25L11 12.75A0.25 0.25 0 0 0 11.25 13L12.75 13A0.25 0.25 0 0 0 13 12.75L13 12.25A0.25 0.25 0 0 1 13.25 12L14.75 12A0.25 0.25 0 0 1 15 12.25L15 12.75A0.25 0.25 0 0 0 15.25 13L18.75 13A0.25 0.25 0 0 1 19 13.25L19 13.75A0.25 0.25 0 0 0 19.25 14L19.75 14A0.25 0.25 0 0 1 20 14.25L20 14.75A0.25 0.25 0 0 0 20.25 15L20.75 15A0.25 0.25 0 0 0 21 14.75L21 14.25A0.25 0.25 0 0 0 20.75 14L20.25 14A0.25 0.25 0 0 1 20 13.75L20 13.25A0.25 0.25 0 0 0 19.75 13L19.25 13A0.25 0.25 0 0 1 19 12.75L19 12.25A0.25 0.25 0 0 0 18.75 12L17.25 12A0.25 0.25 0 0 1 17 11.75L17 11.25A0.25 0.25 0 0 0 16.75 11L16.25 11A0.25 0.25 0 0 1 16 10.75L16 10.25A0.25 0.25 0 0 1 16.25 10L16.75 10A0.25 0.25 0 0 0 17 9.75L17 9.25A0.25 0.25 0 0 1 17.25 9L17.75 9A0.25 0.25 0 0 0 18 8.75L18 8.25A0.25 0.25 0 0 1 18.25 8L18.75 8A0.25 0.25 0 0 0 19 7.75L19 7.25A0.25 0.25 0 0 1 19.25 7L19.75 7A0.25 0.25 0 0 0 20 6.75L20 5.25A0.25 0.25 0 0 0 19.75 5L19.25 5A0.25 0.25 0 0 1 19 4.75L19 4.25A0.25 0.25 0 0 0 18.75 4L18.25 4A0.25 0.25 0 0 0 18 4.25L18 4.75A0.25 0.25 0 0 0 18.25 5L18.75 5A0.25 0.25 0 0 1 19 5.25L19 6.75A0.25 0.25 0 0 1 18.75 7L18.25 7A0.25 0.25 0 0 1 18 6.75L18 6.25A0.25 0.25 0 0 0 17.75 6L17.25 6A0.25 0.25 0 0 1 17 5.75L17 3.25A0.25 0.25 0 0 1 17.25 3L19.75 3A0.25 0.25 0 0 0 20 2.75L20 1.25A0.25 0.25 0 0 0 19.75 1L17.25 1A0.25 0.25 0 0 0 17 1.25ZM8 2.25L8 3.75A0.25 0.25 0 0 0 8.25 4L8.75 4A0.25 0.25 0 0 0 9 3.75L9 3.25A0.25 0.25 0 0 1 9.25 3L9.75 3A0.25 0.25 0 0 0 10 2.75L10 2.25A0.25 0.25 0 0 0 9.75 2L8.25 2A0.25 0.25 0 0 0 8 2.25ZM14 6.25L14 7.75A0.25 0.25 0 0 0 14.25 8L14.75 8A0.25 0.25 0 0 1 15 8.25L15 8.75A0.25 0.25 0 0 0 15.25 9L15.75 9A0.25 0.25 0 0 0 16 8.75L16 8.25A0.25 0.25 0 0 1 16.25 8L16.75 8A0.25 0.25 0 0 0 17 7.75L17 6.25A0.25 0.25 0 0 0 16.75 6L16.25 6A0.25 0.25 0 0 0 16 6.25L16 7.75A0.25 0.25 0 0 1 15.75 8L15.25 8A0.25 0.25 0 0 1 15 7.75L15 6.25A0.25 0.25 0 0 0 14.75 6L14.25 6A0.25 0.25 0 0 0 14 6.25ZM3 9.25L3 9.75A0.25 0.25 0 0 0 3.25 10L3.75 10A0.25 0.25 0 0 1 4 10.25L4 11.75A0.25 0.25 0 0 1 3.75 12L3.25 12A0.25 0.25 0 0 1 3 11.75L3 11.25A0.25 0.25 0 0 0 2.75 11L1.25 11A0.25 0.25 0 0 0 1 11.25L1 11.75A0.25 0.25 0 0 0 1.25 12L1.75 12A0.25 0.25 0 0 1 2 12.25L2 15.75A0.25 0.25 0 0 1 1.75 16L1.25 16A0.25 0.25 0 0 0 1 16.25L1 16.75A0.25 0.25 0 0 0 1.25 17L2.75 17A0.25 0.25 0 0 0 3 16.75L3 16.25A0.25 0.25 0 0 1 3.25 16L3.75 16A0.25 0.25 0 0 0 4 15.75L4 15.25A0.25 0.25 0 0 1 4.25 15L5.75 15A0.25 0.25 0 0 1 6 15.25L6 15.75A0.25 0.25 0 0 0 6.25 16L6.75 16A0.25 0.25 0 0 0 7 15.75L7 15.25A0.25 0.25 0 0 1 7.25 15L7.75 15A0.25 0.25 0 0 0 8 14.75L8 14.25A0.25 0.25 0 0 1 8.25 14L8.75 14A0.25 0.25 0 0 0 9 13.75L9 13.25A0.25 0.25 0 0 0 8.75 13L6.25 13A0.25 0.25 0 0 1 6 12.75L6 12.25A0.25 0.25 0 0 1 6.25 12L7.75 12A0.25 0.25 0 0 0 8 11.75L8 10.25A0.25 0.25 0 0 0 7.75 10L7.25 10A0.25 0.25 0 0 1 7 9.75L7 9.25A0.25 0.25 0 0 0 6.75 9L6.25 9A0.25 0.25 0 0 0 6 9.25L6 9.75A0.25 0.25 0 0 1 5.75 10L5.25 10A0.25 0.25 0 0 1 5 9.75L5 9.25A0.25 0.25 0 0 0 4.75 9L3.25 9A0.25 0.25 0 0 0 3 9.25ZM25 9.25L25 9.75A0.25 0.25 0 0 1 24.75 10L24.25 10A0.25 0.25 0 0 0 24 10.25L24 10.75A0.25 0.25 0 0 0 24.25 11L24.75 11A0.25 0.25 0 0 0 25 10.75L25 10.25A0.25 0.25 0 0 1 25.25 10L25.75 10A0.25 0.25 0 0 0 26 9.75L26 9.25A0.25 0.25 0 0 0 25.75 9L25.25 9A0.25 0.25 0 0 0 25 9.25ZM6 10.25L6 10.75A0.25 0.25 0 0 0 6.25 11L6.75 11A0.25 0.25 0 0 0 7 10.75L7 10.25A0.25 0.25 0 0 0 6.75 10L6.25 10A0.25 0.25 0 0 0 6 10.25ZM3 13.25L3 14.75A0.25 0.25 0 0 0 3.25 15L3.75 15A0.25 0.25 0 0 0 4 14.75L4 14.25A0.25 0.25 0 0 1 4.25 14L5.75 14A0.25 0.25 0 0 1 6 14.25L6 14.75A0.25 0.25 0 0 0 6.25 15L6.75 15A0.25 0.25 0 0 0 7 14.75L7 14.25A0.25 0.25 0 0 0 6.75 14L6.25 14A0.25 0.25 0 0 1 6 13.75L6 13.25A0.25 0.25 0 0 0 5.75 13L3.25 13A0.25 0.25 0 0 0 3 13.25ZM27 13.25L27 13.75A0.25 0.25 0 0 1 26.75 14L26.25 14A0.25 0.25 0 0 0 26 14.25L26 14.75A0.25 0.25 0 0 1 25.75 15L25.25 15A0.25 0.25 0 0 0 25 15.25L25 15.75A0.25 0.25 0 0 1 24.75 16L24.25 16A0.25 0.25 0 0 1 24 15.75L24 15.25A0.25 0.25 0 0 0 23.75 15L23.25 15A0.25 0.25 0 0 0 23 15.25L23 15.75A0.25 0.25 0 0 1 22.75 16L22.25 16A0.25 0.25 0 0 0 22 16.25L22 17.75A0.25 0.25 0 0 0 22.25 18L23.75 18A0.25 0.25 0 0 0 24 17.75L24 17.25A0.25 0.25 0 0 1 24.25 17L24.75 17A0.25 0.25 0 0 0 25 16.75L25 16.25A0.25 0.25 0 0 1 25.25 16L25.75 16A0.25 0.25 0 0 0 26 15.75L26 15.25A0.25 0.25 0 0 1 26.25 15L27.75 15A0.25 0.25 0 0 0 28 14.75L28 13.25A0.25 0.25 0 0 0 27.75 13L27.25 13A0.25 0.25 0 0 0 27 13.25ZM18 16.25L18 16.75A0.25 0.25 0 0 0 18.25 17L18.75 17A0.25 0.25 0 0 0 19 16.75L19 16.25A0.25 0.25 0 0 0 18.75 16L18.25 16A0.25 0.25 0 0 0 18 16.25ZM23 16.25L23 16.75A0.25 0.25 0 0 0 23.25 17L23.75 17A0.25 0.25 0 0 0 24 16.75L24 16.25A0.25 0.25 0 0 0 23.75 16L23.25 16A0.25 0.25 0 0 0 23 16.25ZM6 17.25L6 17.75A0.25 0.25 0 0 0 6.25 18L6.75 18A0.25 0.25 0 0 0 7 17.75L7 17.25A0.25 0.25 0 0 0 6.75 17L6.25 17A0.25 0.25 0 0 0 6 17.25ZM11 17.25L11 17.75A0.25 0.25 0 0 0 11.25 18L11.75 18A0.25 0.25 0 0 0 12 17.75L12 17.25A0.25 0.25 0 0 0 11.75 17L11.25 17A0.25 0.25 0 0 0 11 17.25ZM11 20.25L11 20.75A0.25 0.25 0 0 1 10.75 21L10.25 21A0.25 0.25 0 0 0 10 21.25L10 21.75A0.25 0.25 0 0 0 10.25 22L11.75 22A0.25 0.25 0 0 1 12 22.25L12 23.75A0.25 0.25 0 0 0 12.25 24L13.75 24A0.25 0.25 0 0 0 14 23.75L14 23.25A0.25 0.25 0 0 1 14.25 23L14.75 23A0.25 0.25 0 0 0 15 22.75L15 22.25A0.25 0.25 0 0 0 14.75 22L13.25 22A0.25 0.25 0 0 1 13 21.75L13 21.25A0.25 0.25 0 0 0 12.75 21L12.25 21A0.25 0.25 0 0 1 12 20.75L12 20.25A0.25 0.25 0 0 0 11.75 20L11.25 20A0.25 0.25 0 0 0 11 20.25ZM25 20.25L25 21.75A0.25 0.25 0 0 0 25.25 22L25.75 22A0.25 0.25 0 0 0 26 21.75L26 20.25A0.25 0.25 0 0 0 25.75 20L25.25 20A0.25 0.25 0 0 0 25 20.25ZM28 20.25L28 20.75A0.25 0.25 0 0 0 28.25 21L28.75 21A0.25 0.25 0 0 0 29 20.75L29 20.25A0.25 0.25 0 0 0 28.75 20L28.25 20A0.25 0.25 0 0 0 28 20.25ZM21 21.25L21 23.75A0.25 0.25 0 0 0 21.25 24L23.75 24A0.25 0.25 0 0 0 24 23.75L24 21.25A0.25 0.25 0 0 0 23.75 21L21.25 21A0.25 0.25 0 0 0 21 21.25ZM22 22.25L22 22.75A0.25 0.25 0 0 0 22.25 23L22.75 23A0.25 0.25 0 0 0 23 22.75L23 22.25A0.25 0.25 0 0 0 22.75 22L22.25 22A0.25 0.25 0 0 0 22 22.25ZM12 25.25L12 26.75A0.25 0.25 0 0 1 11.75 27L11.25 27A0.25 0.25 0 0 0 11 27.25L11 27.75A0.25 0.25 0 0 0 11.25 28L12.75 28A0.25 0.25 0 0 0 13 27.75L13 27.25A0.25 0.25 0 0 1 13.25 27L13.75 27A0.25 0.25 0 0 0 14 26.75L14 26.25A0.25 0.25 0 0 0 13.75 26L13.25 26A0.25 0.25 0 0 1 13 25.75L13 25.25A0.25 0.25 0 0 0 12.75 25L12.25 25A0.25 0.25 0 0 0 12 25.25ZM19 25.25L19 25.75A0.25 0.25 0 0 0 19.25 26L19.75 26A0.25 0.25 0 0 1 20 26.25L20 26.75A0.25 0.25 0 0 0 20.25 27L22.75 27A0.25 0.25 0 0 1 23 27.25L23 27.75A0.25 0.25 0 0 0 23.25 28L25.75 28A0.25 0.25 0 0 0 26 27.75L26 27.25A0.25 0.25 0 0 1 26.25 27L26.75 27A0.25 0.25 0 0 0 27 26.75L27 26.25A0.25 0.25 0 0 0 26.75 26L26.25 26A0.25 0.25 0 0 0 26 26.25L26 26.75A0.25 0.25 0 0 1 25.75 27L24.25 27A0.25 0.25 0 0 1 24 26.75L24 26.25A0.25 0.25 0 0 0 23.75 26L23.25 26A0.25 0.25 0 0 1 23 25.75L23 25.25A0.25 0.25 0 0 0 22.75 25L19.25 25A0.25 0.25 0 0 0 19 25.25ZM0 0.25L0 6.75A0.25 0.25 0 0 0 0.25 7L6.75 7A0.25 0.25 0 0 0 7 6.75L7 0.25A0.25 0.25 0 0 0 6.75 0L0.25 0A0.25 0.25 0 0 0 0 0.25ZM1 1.25L1 5.75A0.25 0.25 0 0 0 1.25 6L5.75 6A0.25 0.25 0 0 0 6 5.75L6 1.25A0.25 0.25 0 0 0 5.75 1L1.25 1A0.25 0.25 0 0 0 1 1.25ZM2 2.25L2 4.75A0.25 0.25 0 0 0 2.25 5L4.75 5A0.25 0.25 0 0 0 5 4.75L5 2.25A0.25 0.25 0 0 0 4.75 2L2.25 2A0.25 0.25 0 0 0 2 2.25ZM22 0.25L22 6.75A0.25 0.25 0 0 0 22.25 7L28.75 7A0.25 0.25 0 0 0 29 6.75L29 0.25A0.25 0.25 0 0 0 28.75 0L22.25 0A0.25 0.25 0 0 0 22 0.25ZM23 1.25L23 5.75A0.25 0.25 0 0 0 23.25 6L27.75 6A0.25 0.25 0 0 0 28 5.75L28 1.25A0.25 0.25 0 0 0 27.75 1L23.25 1A0.25 0.25 0 0 0 23 1.25ZM24 2.25L24 4.75A0.25 0.25 0 0 0 24.25 5L26.75 5A0.25 0.25 0 0 0 27 4.75L27 2.25A0.25 0.25 0 0 0 26.75 2L24.25 2A0.25 0.25 0 0 0 24 2.25ZM0 22.25L0 28.75A0.25 0.25 0 0 0 0.25 29L6.75 29A0.25 0.25 0 0 0 7 28.75L7 22.25A0.25 0.25 0 0 0 6.75 22L0.25 22A0.25 0.25 0 0 0 0 22.25ZM1 23.25L1 27.75A0.25 0.25 0 0 0 1.25 28L5.75 28A0.25 0.25 0 0 0 6 27.75L6 23.25A0.25 0.25 0 0 0 5.75 23L1.25 23A0.25 0.25 0 0 0 1 23.25ZM2 24.25L2 26.75A0.25 0.25 0 0 0 2.25 27L4.75 27A0.25 0.25 0 0 0 5 26.75L5 24.25A0.25 0.25 0 0 0 4.75 24L2.25 24A0.25 0.25 0 0 0 2 24.25Z" fill="#000000"/></g></g></svg>
