<?xml version="1.0" encoding="UTF-8"?>
<svg xmlns="http://www.w3.org/2000/svg" version="1.1" width="100" height="100" viewBox="0 0 100 100"><rect x="0" y="0" width="100" height="100" fill="#ffffff"/><g transform="scale(3.448)"><g transform="translate(0,0)"><path fill-rule="evenodd" d="M8 0.25L8 2.75A0.25 0.25 0 0 0 8.25 3L9.75 3A0.25 0.25 0 0 1 10 3.25L10 7.75A0.25 0.25 0 0 0 10.25 8L11.75 8A0.25 0.25 0 0 1 12 8.25L12 8.75A0.25 0.25 0 0 1 11.75 9L9.25 9A0.25 0.25 0 0 1 9 8.75L9 5.25A0.25 0.25 0 0 0 8.75 5L8.25 5A0.25 0.25 0 0 0 8 5.25L8 8.75A0.25 0.25 0 0 1 7.75 9L7.25 9A0.25 0.25 0 0 1 7 8.75L7 8.25A0.25 0.25 0 0 0 6.75 8L6.25 8A0.25 0.25 0 0 0 6 8.25L6 8.75A0.25 0.25 0 0 1 5.75 9L5.25 9A0.25 0.25 0 0 1 5 8.75L5 8.25A0.25 0.25 0 0 0 4.75 8L2.25 8A0.25 0.25 0 0 0 2 8.25L2 8.75A0.25 0.25 0 0 1 1.75 9L1.25 9A0.25 0.25 0 0 0 1 9.25L1 9.75A0.25 0.25 0 0 0 1.25 10L1.75 10A0.25 0.25 0 0 1 2 10.25L2 12.75A0.25 0.25 0 0 0 2.25 13L3.75 13A0.25 0.25 0 0 0 4 12.75L4 12.25A0.25 0.25 0 0 0 3.75 12L3.25 12A0.25 0.25 0 0 1 3 11.75L3 11.25A0.25 0.25 0 0 1 3.25 11L4.75 11A0.25 0.25 0 0 0 5 10.75L5 10.25A0.25 0.25 0 0 1 5.25 10L5.75 10A0.25 0.25 0 0 1 6 10.25L6 10.75A0.25 0.25 0 0 0 6.25 11L6.75 11A0.25 0.25 0 0 1 7 11.25L7 11.75A0.25 0.25 0 0 1 6.75 12L5.25 12A0.25 0.25 0 0 0 5 12.25L5 12.75A0.25 0.25 0 0 0 5.25 13L6.75 13A0.25 0.25 0 0 0 7 12.75L7 12.25A0.25 0.25 0 0 1 7.25 12L7.75 12A0.25 0.25 0 0 1 8 12.25L8 13.75A0.25 0.25 0 0 0 8.25 14L8.75 14A0.25 0.25 0 0 1 9 14.25L9 15.75A0.25 0.25 0 0 1 8.75 16L8.25 16A0.25 0.25 0 0 0 8 16.25L8 17.75A0.25 0.25 0 0 0 8.25 18L8.75 18A0.25 0.25 0 0 0 9 17.75L9 17.25A0.25 0.25 0 0 1 9.25 17L9.75 17A0.25 0.25 0 0 1 10 17.25L10 17.75A0.25 0.25 0 0 0 10.25 18L12.75 18A0.25 0.25 0 0 1 13 18.25L13 19.75A0.25 0.25 0 0 1 12.75 20L11.25 20A0.25 0.25 0 0 1 11 19.75L11 19.25A0.25 0.25 0 0 0 10.75 19L10.25 19A0.25 0.25 0 0 0 10 19.25L10 19.75A0.25 0.25 0 0 1 9.75 20L9.25 20A0.25 0.25 0 0 1 9 19.75L9 19.25A0.25 0.25 0 0 0 8.75 19L7.25 19A0.25 0.25 0 0 1 7 18.75L7 18.25A0.25 0.25 0 0 0 6.75 18L6.25 18A0.25 0.25 0 0 0 6 18.25L6 18.75A0.25 0.25 0 0 1 5.75 19L5.25 19A0.25 0.25 0 0 0 5 19.25L5 19.75A0.25 0.25 0 0 1 4.75 20L4.25 20A0.25 0.25 0 0 1 4 19.75L4 19.25A0.25 0.25 0 0 0 3.75 19L2.25 19A0.25 0.25 0 0 0 2 19.25L2 19.75A0.25 0.25 0 0 0 2.25 20L2.75 20A0.25 0.25 0 0 1 3 20.25L3 20.75A0.25 0.25 0 0 0 3.25 21L4.75 21A0.25 0.25 0 0 0 5 20.75L5 20.25A0.25 0.25 0 0 1 5.25 20L5.75 20A0.25 0.25 0 0 1 6 20.25L6 20.75A0.25 0.25 0 0 0 6.25 21L6.75 21A0.25 0.25 0 0 0 7 20.75L7 20.25A0.25 0.25 0 0 1 7.25 20L7.75 20A0.25 0.25 0 0 1 8 20.25L8 21.75A0.25 0.25 0 0 0 8.25 22L8.75 22A0.25 0.25 0 0 0 9 21.75L9 21.25A0.25 0.25 0 0 1 9.25 21L9.75 21A0.25 0.25 0 0 1 10 21.25L10 22.75A0.25 0.25 0 0 1 9.75 23L9.25 23A0.25 0.25 0 0 0 9 23.25L9 23.75A0.25 0.25 0 0 1 8.75 24L8.25 24A0.25 0.25 0 0 0 8 24.25L8 26.75A0.25 0.25 0 0 0 8.25 27L8.75 27A0.25 0.25 0 0 1 9 27.25L9 27.75A0.25 0.25 0 0 0 9.25 28L9.75 28A0.25 0.25 0 0 1 10 28.25L10 28.75A0.25 0.25 0 0 0 10.25 29L11.75 29A0.25 0.25 0 0 0 12 28.75L12 28.25A0.25 0.25 0 0 0 11.75 28L11.25 28A0.25 0.25 0 0 1 11 27.75L11 26.25A0.25 0.25 0 0 0 10.75 26L10.25 26A0.25 0.25 0 0 1 10 25.75L10 25.25A0.25 0.25 0 0 1 10.25 25L11.75 25A0.25 0.25 0 0 0 12 24.75L12 24.25A0.25 0.25 0 0 1 12.25 24L12.75 24A0.25 0.25 0 0 0 13 23.75L13 23.25A0.25 0.25 0 0 1 13.25 23L14.75 23A0.25 0.25 0 0 1 15 23.25L15 23.75A0.25 0.25 0 0 0 15.25 24L16.75 24A0.25 0.25 0 0 0 17 23.75L17 22.25A0.25 0.25 0 0 1 17.25 22L17.75 22A0.25 0.25 0 0 1 18 22.25L18 22.75A0.25 0.25 0 0 0 18.25 23L19.75 23A0.25 0.25 0 0 1 20 23.25L20 24.75A0.25 0.25 0 0 1 19.75 25L19.25 25A0.25 0.25 0 0 1 19 24.75L19 24.25A0.25 0.25 0 0 0 18.75 24L18.25 24A0.25 0.25 0 0 0 18 24.25L18 25.75A0.25 0.25 0 0 0 18.25 26L19.75 26A0.25 0.25 0 0 0 20 25.75L20 25.25A0.25 0.25 0 0 1 20.25 25L22.75 25A0.25 0.25 0 0 1 23 25.25L23 25.75A0.25 0.25 0 0 1 22.75 26L21.25 26A0.25 0.25 0 0 0 21 26.25L21 28.75A0.25 0.25 0 0 0 21.25 29L21.75 29A0.25 0.25 0 0 0 22 28.75L22 28.25A0.25 0.25 0 0 1 22.25 28L22.75 28A0.25 0.25 0 0 1 23 28.25L23 28.75A0.25 0.25 0 0 0 23.25 29L24.75 29A0.25 0.25 0 0 0 25 28.75L25 28.25A0.25 0.25 0 0 1 25.25 28L25.75 28A0.25 0.25 0 0 1 26 28.25L26 28.75A0.25 0.25 0 0 0 26.25 29L26.75 29A0.25 0.25 0 0 0 27 28.75L27 28.25A0.25 0.25 0 0 1 27.25 28L27.75 28A0.25 0.25 0 0 0 28 27.75L28 26.25A0.25 0.25 0 0 0 27.75 26L26.25 26A0.25 0.25 0 0 0 26 26.25L26 26.75A0.25 0.25 0 0 1 25.75 27L25.25 27A0.25 0.25 0 0 1 25 26.75L25 26.25A0.25 0.25 0 0 0 24.75 26L24.25 26A0.25 0.25 0 0 1 24 25.75L24 25.25A0.25 0.25 0 0 1 24.25 25L24.75 25A0.25 0.25 0 0 0 25 24.75L25 24.25A0.25 0.25 0 0 1 25.25 24L25.75 24A0.25 0.25 0 0 1 26 24.25L26 24.75A0.25 0.25 0 0 0 26.25 25L27.75 25A0.25 0.25 0 0 0 28 24.75L28 24.25A0.25 0.25 0 0 1 28.25 24L28.75 24A0.25 0.25 0 0 0 29 23.75L29 23.25A0.25 0.25 0 0 0 28.75 23L28.25 23A0.25 0.25 0 0 0 28 23.25L28 23.75A0.25 0.25 0 0 1 27.75 24L26.25 24A0.25 0.25 0 0 1 26 23.75L26 21.25A0.25 0.25 0 0 1 26.25 21L26.75 21A0.25 0.25 0 0 1 27 21.25L27 21.75A0.25 0.25 0 0 0 27.25 22L28.75 22A0.25 0.25 0 0 0 29 21.75L29 21.25A0.25 0.25 0 0 0 28.75 21L27.25 21A0.25 0.25 0 0 1 27 20.75L27 20.25A0.25 0.25 0 0 1 27.25 20L27.75 20A0.25 0.25 0 0 0 28 19.75L28 19.25A0.25 0.25 0 0 0 27.75 19L27.25 19A0.25 0.25 0 0 1 27 18.75L27 18.25A0.25 0.25 0 0 1 27.25 18L28.75 18A0.25 0.25 0 0 0 29 17.75L29 17.25A0.25 0.25 0 0 0 28.75 17L27.25 17A0.25 0.25 0 0 1 27 16.75L27 16.25A0.25 0.25 0 0 1 27.25 16L27.75 16A0.25 0.25 0 0 0 28 15.75L28 14.25A0.25 0.25 0 0 1 28.25 14L28.75 14A0.25 0.25 0 0 0 29 13.75L29 13.25A0.25 0.25 0 0 0 28.75 13L28.25 13A0.25 0.25 0 0 0 28 13.25L28 13.75A0.25 0.25 0 0 1 27.75 14L26.25 14A0.25 0.25 0 0 0 26 14.25L26 14.75A0.25 0.25 0 0 0 26.25 15L26.75 15A0.25 0.25 0 0 1 27 15.25L27 15.75A0.25 0.25 0 0 1 26.75 16L25.25 16A0.25 0.25 0 0 1 25 15.75L25 15.25A0.25 0.25 0 0 0 24.75 15L23.25 15A0.25 0.25 0 0 0 23 15.25L23 16.75A0.25 0.25 0 0 1 22.75 17L22.25 17A0.25 0.25 0 0 1 22 16.75L22 15.25A0.25 0.25 0 0 0 21.75 15L21.25 15A0.25 0.25 0 0 0 21 15.25L21 16.75A0.25 0.25 0 0 1 20.75 17L20.25 17A0.25 0.25 0 0 0 20 17.25L20 17.75A0.25 0.25 0 0 1 19.75 18L19.25 18A0.25 0.25 0 0 0 19 18.25L19 18.75A0.25 0.25 0 0 1 18.75 19L18.25 19A0.25 0.25 0 0 1 18 18.75L18 18.25A0.25 0.25 0 0 0 17.75 18L17.25 18A0.25 0.25 0 0 1 17 17.75L17 17.25A0.25 0.25 0 0 0 16.75 17L15.25 17A0.25 0.25 0 0 1 15 16.75L15 16.25A0.25 0.25 0 0 0 14.75 16L14.25 16A0.25 0.25 0 0 0 14 16.25L14 16.75A0.25 0.25 0 0 0 14.25 17L14.75 17A0.25 0.25 0 0 1 15 17.25L15 17.75A0.25 0.25 0 0 1 14.75 18L13.25 18A0.25 0.25 0 0 1 13 17.75L13 15.25A0.25 0.25 0 0 1 13.25 15L14.75 15A0.25 0.25 0 0 0 15 14.75L15 14.25A0.25 0.25 0 0 1 15.25 14L15.75 14A0.25 0.25 0 0 0 16 13.75L16 13.25A0.25 0.25 0 0 1 16.25 13L16.75 13A0.25 0.25 0 0 1 17 13.25L17 13.75A0.25 0.25 0 0 0 17.25 14L17.75 14A0.25 0.25 0 0 1 18 14.25L18 14.75A0.25 0.25 0 0 1 17.75 15L16.25 15A0.25 0.25 0 0 0 16 15.25L16 15.75A0.25 0.25 0 0 0 16.25 16L17.75 16A0.25 0.25 0 0 0 18 15.75L18 15.25A0.25 0.25 0 0 1 18.25 15L18.75 15A0.25 0.25 0 0 1 19 15.25L19 15.75A0.25 0.25 0 0 0 19.25 16L19.75 16A0.25 0.25 0 0 0 20 15.75L20 15.25A0.25 0.25 0 0 0 19.75 15L19.25 15A0.25 0.25 0 0 1 19 14.75L19 14.25A0.25 0.25 0 0 1 19.25 14L24.75 14A0.25 0.25 0 0 0 25 13.75L25 13.25A0.25 0.25 0 0 0 24.75 13L19.25 13A0.25 0.25 0 0 0 19 13.25L19 13.75A0.25 0.25 0 0 1 18.75 14L18.25 14A0.25 0.25 0 0 1 18 13.75L18 12.25A0.25 0.25 0 0 1 18.25 12L18.75 12A0.25 0.25 0 0 0 19 11.75L19 11.25A0.25 0.25 0 0 0 18.75 11L18.25 11A0.25 0.25 0 0 1 18 10.75L18 9.25A0.25 0.25 0 0 1 18.25 9L18.75 9A0.25 0.25 0 0 0 19 8.75L19 8.25A0.25 0.25 0 0 1 19.25 8L19.75 8A0.25 0.25 0 0 1 20 8.25L20 8.75A0.25 0.25 0 0 0 20.25 9L21.75 9A0.25 0.25 0 0 1 22 9.25L22 9.75A0.25 0.25 0 0 0 22.25 10L22.75 10A0.25 0.25 0 0 0 23 9.75L23 9.25A0.25 0.25 0 0 1 23.25 9L23.75 9A0.25 0.25 0 0 1 24 9.25L24 10.75A0.25 0.25 0 0 0 24.25 11L24.75 11A0.25 0.25 0 0 1 25 11.25L25 11.75A0.25 0.25 0 0 0 25.25 12L25.75 12A0.25 0.25 0 0 1 26 12.25L26 12.75A0.25 0.25 0 0 0 26.25 13L26.75 13A0.25 0.25 0 0 0 27 12.75L27 12.25A0.25 0.25 0 0 1 27.25 12L27.75 12A0.25 0.25 0 0 0 28 11.75L28 10.25A0.25 0.25 0 0 1 28.25 10L28.75 10A0.25 0.25 0 0 0 29 9.75L29 8.25A0.25 0.25 0 0 0 28.75 8L26.25 8A0.25 0.25 0 0 0 26 8.25L26 8.75A0.25 0.25 0 0 0 26.25 9L27.75 9A0.25 0.25 0 0 1 28 9.25L28 9.75A0.25 0.25 0 0 1 27.75 10L25.25 10A0.25 0.25 0 0 1 25 9.75L25 9.25A0.25 0.25 0 0 0 24.75 9L24.25 9A0.25 0.25 0 0 1 24 8.75L24 8.25A0.25 0.25 0 0 0 23.75 8L21.25 8A0.25 0.25 0 0 1 21 7.75L21 6.25A0.25 0.25 0 0 0 20.75 6L20.25 6A0.25 0.25 0 0 0 20 6.25L20 6.75A0.25 0.25 0 0 1 19.75 7L19.25 7A0.25 0.25 0 0 1 19 6.75L19 5.25A0.25 0.25 0 0 1 19.25 5L20.75 5A0.25 0.25 0 0 0 21 4.75L21 4.25A0.25 0.25 0 0 0 20.75 4L20.25 4A0.25 0.25 0 0 1 20 3.75L20 3.25A0.25 0.25 0 0 1 20.25 3L20.75 3A0.25 0.25 0 0 0 21 2.75L21 2.25A0.25 0.25 0 0 0 20.75 2L20.25 2A0.25 0.25 0 0 1 20 1.75L20 1.25A0.25 0.25 0 0 1 20.25 1L20.75 1A0.25 0.25 0 0 0 21 0.75L21 0.25A0.25 0.25 0 0 0 20.75 0L20.25 0A0.25 0.25 0 0 0 20 0.25L20 0.75A0.25 0.25 0 0 1 19.75 1L19.25 1A0.25 0.25 0 0 1 19 0.75L19 0.25A0.25 0.25 0 0 0 18.75 0L18.25 0A0.25 0.25 0 0 0 18 0.25L18 1.75A0.25 0.25 0 0 0 18.25 2L18.75 2A0.25 0.25 0 0 1 19 2.25L19 2.75A0.25 0.25 0 0 1 18.75 3L16.25 3A0.25 0.25 0 0 0 16 3.25L16 4.75A0.25 0.25 0 0 1 15.75 5L14.25 5A0.25 0.25 0 0 1 14 4.75L14 3.25A0.25 0.25 0 0 0 13.75 3L13.25 3A0.25 0.25 0 0 1 13 2.75L13 2.25A0.25 0.25 0 0 1 13.25 2L16.75 2A0.25 0.25 0 0 0 17 1.75L17 0.25A0.25 0.25 0 0 0 16.75 0L16.25 0A0.25 0.25 0 0 0 16 0.25L16 0.75A0.25 0.25 0 0 1 15.75 1L14.25 1A0.25 0.25 0 0 1 14 0.75L14 0.25A0.25 0.25 0 0 0 13.75 0L13.25 0A0.25 0.25 0 0 0 13 0.25L13 1.75A0.25 0.25 0 0 1 12.75 2L12.25 2A0.25 0.25 0 0 0 12 2.25L12 3.75A0.25 0.25 0 0 1 11.75 4L11.25 4A0.25 0.25 0 0 1 11 3.75L11 2.25A0.25 0.25 0 0 0 10.75 2L9.25 2A0.25 0.25 0 0 1 9 1.75L9 0.25A0.25 0.25 0 0 0 8.75 0L8.25 0A0.25 0.25 0 0 0 8 0.25ZM10 0.25L10 0.75A0.25 0.25 0 0 0 10.25 1L10.75 1A0.25 0.25 0 0 0 11 0.75L11 0.25A0.25 0.25 0 0 0 10.75 0L10.25 0A0.25 0.25 0 0 0 10 0.25ZM12 4.25L12 5.75A0.25 0.25 0 0 1 11.75 6L11.25 6A0.25 0.25 0 0 0 11 6.25L11 6.75A0.25 0.25 0 0 0 11.25 7L11.75 7A0.25 0.25 0 0 1 12 7.25L12 7.75A0.25 0.25 0 0 0 12.25 8L12.75 8A0.25 0.25 0 0 1 13 8.25L13 9.75A0.25 0.25 0 0 1 12.75 10L12.25 10A0.25 0.25 0 0 0 12 10.25L12 10.75A0.25 0.25 0 0 1 11.75 11L11.25 11A0.25 0.25 0 0 0 11 11.25L11 11.75A0.25 0.25 0 0 1 10.75 12L10.25 12A0.25 0.25 0 0 1 10 11.75L10 11.25A0.25 0.25 0 0 0 9.75 11L9.25 11A0.25 0.25 0 0 1 9 10.75L9 9.25A0.25 0.25 0 0 0 8.75 9L8.25 9A0.25 0.25 0 0 0 8 9.25L8 10.75A0.25 0.25 0 0 0 8.25 11L8.75 11A0.25 0.25 0 0 1 9 11.25L9 11.75A0.25 0.25 0 0 0 9.25 12L9.75 12A0.25 0.25 0 0 1 10 12.25L10 12.75A0.25 0.25 0 0 0 10.25 13L10.75 13A0.25 0.25 0 0 0 11 12.75L11 12.25A0.25 0.25 0 0 1 11.25 12L11.75 12A0.25 0.25 0 0 0 12 11.75L12 11.25A0.25 0.25 0 0 1 12.25 11L12.75 11A0.25 0.25 0 0 0 13 10.75L13 10.25A0.25 0.25 0 0 1 13.25 10L13.75 10A0.25 0.25 0 0 1 14 10.25L14 11.75A0.25 0.25 0 0 0 14.25 12L14.75 12A0.25 0.25 0 0 0 15 11.75L15 11.25A0.25 0.25 0 0 1 15.25 11L16.75 11A0.25 0.25 0 0 0 17 10.75L17 9.25A0.25 0.25 0 0 1 17.25 9L17.75 9A0.25 0.25 0 0 0 18 8.75L18 8.25A0.25 0.25 0 0 1 18.25 8L18.75 8A0.25 0.25 0 0 0 19 7.75L19 7.25A0.25 0.25 0 0 0 18.75 7L18.25 7A0.25 0.25 0 0 1 18 6.75L18 5.25A0.25 0.25 0 0 1 18.25 5L18.75 5A0.25 0.25 0 0 0 19 4.75L19 4.25A0.25 0.25 0 0 0 18.75 4L17.25 4A0.25 0.25 0 0 0 17 4.25L17 4.75A0.25 0.25 0 0 1 16.75 5L16.25 5A0.25 0.25 0 0 0 16 5.25L16 5.75A0.25 0.25 0 0 1 15.75 6L15.25 6A0.25 0.25 0 0 0 15 6.25L15 6.75A0.25 0.25 0 0 0 15.25 7L15.75 7A0.25 0.25 0 0 1 16 7.25L16 7.75A0.25 0.25 0 0 1 15.75 8L15.25 8A0.25 0.25 0 0 0 15 8.25L15 9.75A0.25 0.25 0 0 1 14.75 10L14.25 10A0.25 0.25 0 0 1 14 9.75L14 8.25A0.25 0.25 0 0 0 13.75 8L13.25 8A0.25 0.25 0 0 1 13 7.75L13 7.25A0.25 0.25 0 0 1 13.25 7L13.75 7A0.25 0.25 0 0 0 14 6.75L14 6.25A0.25 0.25 0 0 0 13.75 6L13.25 6A0.25 0.25 0 0 1 13 5.75L13 4.25A0.25 0.25 0 0 0 12.75 4L12.25 4A0.25 0.25 0 0 0 12 4.25ZM12 6.25L12 6.75A0.25 0.25 0 0 0 12.25 7L12.75 7A0.25 0.25 0 0 0 13 6.75L13 6.25A0.25 0.25 0 0 0 12.75 6L12.25 6A0.25 0.25 0 0 0 12 6.25ZM16 6.25L16 6.75A0.25 0.25 0 0 0 16.25 7L16.75 7A0.25 0.25 0 0 0 17 6.75L17 6.25A0.25 0.25 0 0 0 16.75 6L16.25 6A0.25 0.25 0 0 0 16 6.25ZM16 8.25L16 8.75A0.25 0.25 0 0 0 16.25 9L16.75 9A0.25 0.25 0 0 0 17 8.75L17 8.25A0.25 0.25 0 0 0 16.75 8L16.25 8A0.25 0.25 0 0 0 16 8.25ZM2 9.25L2 9.75A0.25 0.25 0 0 0 2.25 10L4.75 10A0.25 0.25 0 0 0 5 9.75L5 9.25A0.25 0.25 0 0 0 4.75 9L2.25 9A0.25 0.25 0 0 0 2 9.25ZM6 9.25L6 9.75A0.25 0.25 0 0 0 6.25 10L6.75 10A0.25 0.25 0 0 0 7 9.75L7 9.25A0.25 0.25 0 0 0 6.75 9L6.25 9A0.25 0.25 0 0 0 6 9.25ZM20 10.25L20 10.75A0.25 0.25 0 0 0 20.25 11L20.75 11A0.25 0.25 0 0 1 21 11.25L21 11.75A0.25 0.25 0 0 0 21.25 12L21.75 12A0.25 0.25 0 0 0 22 11.75L22 11.25A0.25 0.25 0 0 0 21.75 11L21.25 11A0.25 0.25 0 0 1 21 10.75L21 10.25A0.25 0.25 0 0 0 20.75 10L20.25 10A0.25 0.25 0 0 0 20 10.25ZM26 11.25L26 11.75A0.25 0.25 0 0 0 26.25 12L26.75 12A0.25 0.25 0 0 0 27 11.75L27 11.25A0.25 0.25 0 0 0 26.75 11L26.25 11A0.25 0.25 0 0 0 26 11.25ZM0 13.25L0 14.75A0.25 0.25 0 0 0 0.25 15L0.75 15A0.25 0.25 0 0 1 1 15.25L1 15.75A0.25 0.25 0 0 0 1.25 16L1.75 16A0.25 0.25 0 0 1 2 16.25L2 17.75A0.25 0.25 0 0 0 2.25 18L3.75 18A0.25 0.25 0 0 0 4 17.75L4 17.25A0.25 0.25 0 0 0 3.75 17L3.25 17A0.25 0.25 0 0 1 3 16.75L3 16.25A0.25 0.25 0 0 1 3.25 16L3.75 16A0.25 0.25 0 0 0 4 15.75L4 15.25A0.25 0.25 0 0 1 4.25 15L4.75 15A0.25 0.25 0 0 0 5 14.75L5 14.25A0.25 0.25 0 0 0 4.75 14L1.25 14A0.25 0.25 0 0 1 1 13.75L1 13.25A0.25 0.25 0 0 0 0.75 13L0.25 13A0.25 0.25 0 0 0 0 13.25ZM13 13.25L13 13.75A0.25 0.25 0 0 1 12.75 14L11.25 14A0.25 0.25 0 0 0 11 14.25L11 14.75A0.25 0.25 0 0 0 11.25 15L12.75 15A0.25 0.25 0 0 0 13 14.75L13 14.25A0.25 0.25 0 0 1 13.25 14L14.75 14A0.25 0.25 0 0 0 15 13.75L15 13.25A0.25 0.25 0 0 0 14.75 13L13.25 13A0.25 0.25 0 0 0 13 13.25ZM6 14.25L6 14.75A0.25 0.25 0 0 0 6.25 15L6.75 15A0.25 0.25 0 0 0 7 14.75L7 14.25A0.25 0.25 0 0 0 6.75 14L6.25 14A0.25 0.25 0 0 0 6 14.25ZM5 16.25L5 16.75A0.25 0.25 0 0 0 5.25 17L6.75 17A0.25 0.25 0 0 0 7 16.75L7 16.25A0.25 0.25 0 0 0 6.75 16L5.25 16A0.25 0.25 0 0 0 5 16.25ZM11 16.25L11 16.75A0.25 0.25 0 0 0 11.25 17L11.75 17A0.25 0.25 0 0 0 12 16.75L12 16.25A0.25 0.25 0 0 0 11.75 16L11.25 16A0.25 0.25 0 0 0 11 16.25ZM24 16.25L24 16.75A0.25 0.25 0 0 1 23.75 17L23.25 17A0.25 0.25 0 0 0 23 17.25L23 17.75A0.25 0.25 0 0 1 22.75 18L22.25 18A0.25 0.25 0 0 1 22 17.75L22 17.25A0.25 0.25 0 0 0 21.75 17L21.25 17A0.25 0.25 0 0 0 21 17.25L21 17.75A0.25 0.25 0 0 1 20.75 18L20.25 18A0.25 0.25 0 0 0 20 18.25L20 18.75A0.25 0.25 0 0 0 20.25 19L20.75 19A0.25 0.25 0 0 1 21 19.25L21 19.75A0.25 0.25 0 0 0 21.25 20L23.75 20A0.25 0.25 0 0 0 24 19.75L24 19.25A0.25 0.25 0 0 1 24.25 19L24.75 19A0.25 0.25 0 0 1 25 19.25L25 19.75A0.25 0.25 0 0 0 25.25 20L26.75 20A0.25 0.25 0 0 0 27 19.75L27 19.25A0.25 0.25 0 0 0 26.75 19L25.25 19A0.25 0.25 0 0 1 25 18.75L25 18.25A0.25 0.25 0 0 1 25.25 18L26.75 18A0.25 0.25 0 0 0 27 17.75L27 17.25A0.25 0.25 0 0 0 26.75 17L25.25 17A0.25 0.25 0 0 1 25 16.75L25 16.25A0.25 0.25 0 0 0 24.75 16L24.25 16A0.25 0.25 0 0 0 24 16.25ZM0 17.25L0 20.75A0.25 0.25 0 0 0 0.25 21L0.75 21A0.25 0.25 0 0 0 1 20.75L1 17.25A0.25 0.25 0 0 0 0.75 17L0.25 17A0.25 0.25 0 0 0 0 17.25ZM24 17.25L24 17.75A0.25 0.25 0 0 1 23.75 18L23.25 18A0.25 0.25 0 0 0 23 18.25L23 18.75A0.25 0.25 0 0 0 23.25 19L23.75 19A0.25 0.25 0 0 0 24 18.75L24 18.25A0.25 0.25 0 0 1 24.25 18L24.75 18A0.25 0.25 0 0 0 25 17.75L25 17.25A0.25 0.25 0 0 0 24.75 17L24.25 17A0.25 0.25 0 0 0 24 17.25ZM16 18.25L16 18.75A0.25 0.25 0 0 0 16.25 19L16.75 19A0.25 0.25 0 0 0 17 18.75L17 18.25A0.25 0.25 0 0 0 16.75 18L16.25 18A0.25 0.25 0 0 0 16 18.25ZM6 19.25L6 19.75A0.25 0.25 0 0 0 6.25 20L6.75 20A0.25 0.25 0 0 0 7 19.75L7 19.25A0.25 0.25 0 0 0 6.75 19L6.25 19A0.25 0.25 0 0 0 6 19.25ZM14 19.25L14 19.75A0.25 0.25 0 0 0 14.25 20L14.75 20A0.25 0.25 0 0 0 15 19.75L15 19.25A0.25 0.25 0 0 0 14.75 19L14.25 19A0.25 0.25 0 0 0 14 19.25ZM10 20.25L10 20.75A0.25 0.25 0 0 0 10.25 21L10.75 21A0.25 0.25 0 0 1 11 21.25L11 21.75A0.25 0.25 0 0 0 11.25 22L11.75 22A0.25 0.25 0 0 1 12 22.25L12 22.75A0.25 0.25 0 0 0 12.25 23L12.75 23A0.25 0.25 0 0 0 13 22.75L13 22.25A0.25 0.25 0 0 1 13.25 22L15.75 22A0.25 0.25 0 0 0 16 21.75L16 21.25A0.25 0.25 0 0 0 15.75 21L13.25 21A0.25 0.25 0 0 0 13 21.25L13 21.75A0.25 0.25 0 0 1 12.75 22L12.25 22A0.25 0.25 0 0 1 12 21.75L12 21.25A0.25 0.25 0 0 0 11.75 21L11.25 21A0.25 0.25 0 0 1 11 20.75L11 20.25A0.25 0.25 0 0 0 10.75 20L10.25 20A0.25 0.25 0 0 0 10 20.25ZM18 21.25L18 21.75A0.25 0.25 0 0 0 18.25 22L18.75 22A0.25 0.25 0 0 0 19 21.75L19 21.25A0.25 0.25 0 0 0 18.75 21L18.25 21A0.25 0.25 0 0 0 18 21.25ZM21 21.25L21 23.75A0.25 0.25 0 0 0 21.25 24L23.75 24A0.25 0.25 0 0 0 24 23.75L24 21.25A0.25 0.25 0 0 0 23.75 21L21.25 21A0.25 0.25 0 0 0 21 21.25ZM22 22.25L22 22.75A0.25 0.25 0 0 0 22.25 23L22.75 23A0.25 0.25 0 0 0 23 22.75L23 22.25A0.25 0.25 0 0 0 22.75 22L22.25 22A0.25 0.25 0 0 0 22 22.25ZM15 25.25L15 25.75A0.25 0.25 0 0 1 14.75 26L12.25 26A0.25 0.25 0 0 0 12 26.25L12 26.75A0.25 0.25 0 0 0 12.25 27L13.75 27A0.25 0.25 0 0 1 14 27.25L14 27.75A0.25 0.25 0 0 1 13.75 28L13.25 28A0.25 0.25 0 0 0 13 28.25L13 28.75A0.25 0.25 0 0 0 13.25 29L13.75 29A0.25 0.25 0 0 0 14 28.75L14 28.25A0.25 0.25 0 0 1 14.25 28L14.75 28A0.25 0.25 0 0 1 15 28.25L15 28.75A0.25 0.25 0 0 0 15.25 29L16.75 29A0.25 0.25 0 0 0 17 28.75L17 28.25A0.25 0.25 0 0 1 17.25 28L17.75 28A0.25 0.25 0 0 1 18 28.25L18 28.75A0.25 0.25 0 0 0 18.25 29L18.75 29A0.25 0.25 0 0 0 19 28.75L19 27.25A0.25 0.25 0 0 0 18.75 27L17.25 27A0.25 0.25 0 0 0 17 27.25L17 27.75A0.25 0.25 0 0 1 16.75 28L16.25 28A0.25 0.25 0 0 1 16 27.75L16 26.25A0.25 0.25 0 0 1 16.25 26L16.75 26A0.25 0.25 0 0 0 17 25.75L17 25.25A0.25 0.25 0 0 0 16.75 25L15.25 25A0.25 0.25 0 0 0 15 25.25ZM9 26.25L9 26.75A0.25 0.25 0 0 0 9.25 27L9.75 27A0.25 0.25 0 0 0 10 26.75L10 26.25A0.25 0.25 0 0 0 9.75 26L9.25 26A0.25 0.25 0 0 0 9 26.25ZM23 26.25L23 27.75A0.25 0.25 0 0 0 23.25 28L23.75 28A0.25 0.25 0 0 0 24 27.75L24 26.25A0.25 0.25 0 0 0 23.75 26L23.25 26A0.25 0.25 0 0 0 23 26.25ZM26 27.25L26 27.75A0.25 0.25 0 0 0 26.25 28L26.75 28A0.25 0.25 0 0 0 27 27.75L27 27.25A0.25 0.25 0 0 0 26.75 27L26.25 27A0.25 0.25 0 0 0 26 27.25ZM0 0.25L0 6.75A0.25 0.25 0 0 0 0.25 7L6.75 7A0.25 0.25 0 0 0 7 6.75L7 0.25A0.25 0.25 0 0 0 6.75 0L0.25 0A0.25 0.25 0 0 0 0 0.25ZM1 1.25L1 5.75A0.25 0.25 0 0 0 1.25 6L5.75 6A0.25 0.25 0 0 0 6 5.75L6 1.25A0.25 0.25 0 0 0 5.75 1L1.25 1A0.25 0.25 0 0 0 1 1.25ZM2 2.25L2 4.75A0.25 0.25 0 0 0 2.25 5L4.75 5A0.25 0.25 0 0 0 5 4.75L5 2.25A0.25 0.25 0 0 0 4.75 2L2.25 2A0.25 0.25 0 0 0 2 2.25ZM22 0.25L22 6.75A0.25 0.25 0 0 0 22.25 7L28.75 7A0.25 0.25 0 0 0 29 6.75L29 0.25A0.25 0.25 0 0 0 28.75 0L22.25 0A0.25 0.25 0 0 0 22 0.25ZM23 1.25L23 5.75A0.25 0.25 0 0 0 23.25 6L27.75 6A0.25 0.25 0 0 0 28 5.75L28 1.25A0.25 0.25 0 0 0 27.75 1L23.25 1A0.25 0.25 0 0 0 23 1.25ZM24 2.25L24 4.75A0.25 0.25 0 0 0 24.25 5L26.75 5A0.25 0.25 0 0 0 27 4.75L27 2.25A0.25 0.25 0 0 0 26.75 2L24.25 2A0.25 0.25 0 0 0 24 2.25ZM0 22.25L0 28.75A0.25 0.25 0 0 0 0.25 29L6.75 29A0.25 0.25 0 0 0 7 28.75L7 22.25A0.25 0.25 0 0 0 6.75 22L0.25 22A0.25 0.25 0 0 0 0 22.25ZM1 23.25L1 27.75A0.25 0.25 0 0 0 1.25 28L5.75 28A0.25 0.25 0 0 0 6 27.75L6 23.25A0.25 0.25 0 0 0 5.75 23L1.25 23A0.25 0.25 0 0 0 1 23.25ZM2 24.25L2 26.75A0.25 0.25 0 0 0 2.25 27L4.75 27A0.25 0.25 0 0 0 5 26.75L5 24.25A0.25 0.25 0 0 0 4.75 24L2.25 24A0.25 0.25 0 0 0 2 24.25Z" fill="#000000"/></g></g></svg>
